<svg width="29" height="33" viewBox="0 0 29 33" fill="none" xmlns="http://www.w3.org/2000/svg">
<path fill-rule="evenodd" clip-rule="evenodd" d="M11.084 1.5397C11.3174 1.3918 11.4724 1.13118 11.4724 0.834356C11.4724 0.373554 11.0989 0 10.6381 0C10.1773 0 9.80371 0.373554 9.80371 0.834356C9.80371 1.29108 10.1707 1.6621 10.6259 1.66862C10.4129 1.76325 10.2314 1.90234 10.0813 2.08589C9.64261 2.99485 9.86862 3.67276 10.7592 4.11963C10.4143 4.40939 10.1883 4.77442 10.0813 5.21472C9.85464 6.14297 10.0632 6.94255 10.707 7.6135L10.8113 9.80368C10.9408 11.3748 11.4797 12.7827 12.4279 14.0276C11.819 14.1884 11.228 14.397 10.6549 14.6534C8.30741 16.0795 6.56916 18.0438 5.44017 20.546C4.18228 20.9059 3.52174 21.7403 3.45858 23.0491C2.12545 22.6767 1.49969 23.1982 1.58128 24.6135C1.8198 25.1802 2.25436 25.4931 2.88496 25.5521C3.49727 25.4487 3.8623 25.1011 3.98005 24.5092C4.30148 24.6372 4.61436 24.7936 4.9187 24.9785L5.70091 25.135C7.44158 24.8872 8.20641 23.879 7.99539 22.1104C8.32799 21.5638 8.64087 21.0075 8.93404 20.4417C9.82398 19.2043 10.9191 18.1787 12.2193 17.365C13.3017 16.9062 14.0491 17.2365 14.4616 18.3558C14.8861 20.6158 14.6602 22.806 13.7837 24.9264C13.4339 25.1893 13.1384 25.5022 12.8972 25.865C12.3857 27.6487 13.0287 28.7785 14.8267 29.2546C14.4102 30.5068 14.8622 31.2021 16.1825 31.3405L16.1612 31.3651L16.1459 31.3831C15.9663 31.5361 15.8525 31.764 15.8525 32.0184C15.8525 32.4792 16.226 32.8528 16.6868 32.8528C17.1476 32.8528 17.5212 32.4792 17.5212 32.0184C17.5212 31.6665 17.3033 31.3655 16.9951 31.2429C17.002 31.2374 17.0056 31.2341 17.005 31.2317C17.0041 31.228 16.9938 31.2266 16.9711 31.2235L16.9711 31.2235H16.9711L16.9711 31.2235C16.956 31.2214 16.9356 31.2186 16.9089 31.2139C16.8764 31.205 16.843 31.1979 16.809 31.1929C16.7535 31.1795 16.6844 31.1602 16.5997 31.1319C16.8128 30.943 16.9692 30.717 17.069 30.454C17.2432 29.6926 17.0172 29.1016 16.3911 28.681C16.5676 28.4871 16.724 28.2785 16.8604 28.0552C17.0755 27.2333 17.0581 26.4162 16.8083 25.6043C17.1541 24.4267 17.4148 23.2273 17.5905 22.0061C17.8904 19.9303 17.5949 17.9487 16.704 16.0613C18.9038 15.6397 20.7463 14.5967 22.2316 12.9325C23.8467 12.8568 24.7506 12.0224 24.9432 10.4294C25.1304 10.5092 25.3216 10.5788 25.5169 10.638C26.5629 10.3878 26.9795 9.76017 26.7664 8.75517C26.9143 8.88833 27.11 8.96937 27.3246 8.96937C27.7854 8.96937 28.1589 8.59582 28.1589 8.13502C28.1589 7.67421 27.7854 7.30066 27.3246 7.30066C26.8638 7.30066 26.4902 7.67421 26.4902 8.13502C26.4902 8.22542 26.5046 8.31247 26.5312 8.394C26.3922 8.282 26.2453 8.17828 26.0905 8.08282C25.1771 7.78397 24.5687 8.07947 24.2653 8.96933C24.0632 8.69754 23.8025 8.50634 23.4831 8.39571C21.482 8.06727 20.4565 8.919 20.4064 10.9509C19.5878 11.821 18.6318 12.499 17.5383 12.9847C16.6697 13.3589 15.8353 13.2894 15.0353 12.7761C14.0596 11.8707 13.5207 10.7409 13.4187 9.3865C13.2122 8.51555 13.4208 7.78549 14.0445 7.19632C14.8064 5.26871 14.1981 4.05193 12.2193 3.54601C12.5957 2.38589 12.2172 1.71712 11.084 1.5397ZM17.4074 7.43423C16.7807 7.24027 16.0805 7.26894 15.5155 7.60211C14.9562 7.93181 14.5504 8.43968 14.2979 9.12571C14.0722 10.0137 14.1807 10.7919 14.6235 11.4603C14.9356 11.9315 15.4331 12.2536 15.9761 12.4101C17.0962 12.733 18.0007 12.4459 18.6896 11.5488C19.0932 11.0232 19.2825 10.3514 19.2256 9.69123C19.1254 8.53072 18.5194 7.77839 17.4074 7.43423ZM0.834277 25.865C1.29508 25.865 1.66863 25.4915 1.66863 25.0307C1.66863 24.5699 1.29508 24.1963 0.834277 24.1963C0.373475 24.1963 -7.89762e-05 24.5699 -7.89762e-05 25.0307C-7.89762e-05 25.4915 0.373475 25.865 0.834277 25.865Z" fill="#191919"/>
</svg>
