<svg width="26" height="30" viewBox="0 0 26 30" fill="none" xmlns="http://www.w3.org/2000/svg">
<path d="M4.18607 23.998H3.57274L1.38607 21.738V23.998H0.919402V19.3314H1.38607V21.4647L3.50607 19.3314H4.1194L1.8794 21.598L4.18607 23.998ZM7.28711 20.6647H7.72711V23.998H7.28711V23.3447C6.98044 23.8336 6.53155 24.078 5.94044 24.078C5.46489 24.078 5.05822 23.9092 4.72044 23.5714C4.38711 23.2336 4.22044 22.8203 4.22044 22.3314C4.22044 21.8425 4.38711 21.4292 4.72044 21.0914C5.05822 20.7536 5.46489 20.5847 5.94044 20.5847C6.53155 20.5847 6.98044 20.8292 7.28711 21.318V20.6647ZM5.04044 23.2714C5.29378 23.5247 5.60489 23.6514 5.97378 23.6514C6.34267 23.6514 6.65378 23.5247 6.90711 23.2714C7.16044 23.0136 7.28711 22.7003 7.28711 22.3314C7.28711 21.9625 7.16044 21.6514 6.90711 21.398C6.65378 21.1403 6.34267 21.0114 5.97378 21.0114C5.60489 21.0114 5.29378 21.1403 5.04044 21.398C4.78711 21.6514 4.66044 21.9625 4.66044 22.3314C4.66044 22.7003 4.78711 23.0136 5.04044 23.2714ZM11.0587 20.6647V21.0914H9.87872V23.998H9.43872V21.0914H8.25872V20.6647H11.0587ZM14.3314 20.6647H14.7714V23.998H14.3314V23.3447C14.0247 23.8336 13.5758 24.078 12.9847 24.078C12.5092 24.078 12.1025 23.9092 11.7647 23.5714C11.4314 23.2336 11.2647 22.8203 11.2647 22.3314C11.2647 21.8425 11.4314 21.4292 11.7647 21.0914C12.1025 20.7536 12.5092 20.5847 12.9847 20.5847C13.5758 20.5847 14.0247 20.8292 14.3314 21.318V20.6647ZM12.0847 23.2714C12.338 23.5247 12.6492 23.6514 13.018 23.6514C13.3869 23.6514 13.698 23.5247 13.9514 23.2714C14.2047 23.0136 14.3314 22.7003 14.3314 22.3314C14.3314 21.9625 14.2047 21.6514 13.9514 21.398C13.698 21.1403 13.3869 21.0114 13.018 21.0114C12.6492 21.0114 12.338 21.1403 12.0847 21.398C11.8314 21.6514 11.7047 21.9625 11.7047 22.3314C11.7047 22.7003 11.8314 23.0136 12.0847 23.2714ZM18.4363 20.6647V23.998H17.9963V21.0914H16.4897V22.578C16.4897 23.1336 16.383 23.5158 16.1697 23.7247C15.9608 23.9336 15.6719 24.0247 15.303 23.998V23.5847C15.5563 23.6114 15.743 23.5514 15.863 23.4047C15.9874 23.258 16.0497 22.9825 16.0497 22.578V20.6647H18.4363ZM22.1617 23.578C21.8239 23.9114 21.4106 24.078 20.9217 24.078C20.4328 24.078 20.0172 23.9114 19.675 23.578C19.3372 23.2403 19.1684 22.8247 19.1684 22.3314C19.1684 21.838 19.3372 21.4247 19.675 21.0914C20.0172 20.7536 20.4328 20.5847 20.9217 20.5847C21.4106 20.5847 21.8239 20.7536 22.1617 21.0914C22.5039 21.4247 22.675 21.838 22.675 22.3314C22.675 22.8247 22.5039 23.2403 22.1617 23.578ZM19.9884 23.2714C20.2417 23.5247 20.5528 23.6514 20.9217 23.6514C21.2906 23.6514 21.6017 23.5247 21.855 23.2714C22.1084 23.0136 22.235 22.7003 22.235 22.3314C22.235 21.9625 22.1084 21.6514 21.855 21.398C21.6017 21.1403 21.2906 21.0114 20.9217 21.0114C20.5528 21.0114 20.2417 21.1403 19.9884 21.398C19.735 21.6514 19.6084 21.9625 19.6084 22.3314C19.6084 22.7003 19.735 23.0136 19.9884 23.2714ZM25.5447 20.6647V21.0914H23.8513V23.998H23.4113V20.6647H25.5447Z" fill="#777777"/>
<path d="M12.2285 8C12.4042 8.49667 12.6743 8.94839 13.0186 9.33301H6.66406V8H12.2285ZM13.0186 4C12.6743 4.38462 12.4041 4.83634 12.2285 5.33301H6.66406V4H13.0186ZM18.6641 1.33301H6.66406V0H18.6641V1.33301Z" fill="#202020"/>
<path d="M15.8668 8.39941C16.8978 8.39941 17.7335 7.56366 17.7335 6.53272C17.7335 5.50177 16.8978 4.66602 15.8668 4.66602C14.8358 4.66602 14 5.50177 14 6.53272C14 7.56366 14.8358 8.39941 15.8668 8.39941Z" stroke="#202020" stroke-width="1.2"/>
<path d="M17.502 8.16602L18.6687 9.3327" stroke="#202020" stroke-width="1.2" stroke-linecap="square"/>
</svg>
