<svg width="36" height="29" viewBox="0 0 36 29" fill="none" xmlns="http://www.w3.org/2000/svg">
<path d="M21.9499 26.4143C24.7136 18.2654 19.0123 7.57796 30.1055 4.14543C28.7359 3.47634 27.4666 2.93054 26.0796 2.37568C25.4291 1.71927 27.5194 0.339369 28.0784 0.0347391C29.5886 -0.286211 32.5843 1.70295 34.0347 2.45365C37.4312 4.50265 35.8982 5.66496 33.4035 7.50181C31.6894 8.47916 30.0773 9.70131 28.3527 10.6025C28.0925 10.6478 28.0081 10.5481 28.082 10.287C28.7553 8.19267 30.6276 6.8309 32.412 5.77557C30.7893 6.29054 27.4438 5.98228 26.4909 7.60335C25.0986 11.7558 25.9143 16.2799 25.5979 20.5882C25.5856 24.1277 23.4706 28.6464 19.7172 29C17.9592 28.3146 17.0151 22.9999 16.5176 21.1249C15.7933 17.0378 14.9916 12.9144 13.1334 9.19359C11.1117 13.3424 7.45143 17.5891 2.76979 18.1693C1.67102 18.2183 0.834195 17.5256 0.0501119 16.8293C-0.312043 15.9934 1.38622 14.9544 2.01559 14.5518C3.27435 13.8229 3.92482 16.5319 6.34036 15.4893C8.63107 14.5482 10.0322 12.0368 10.7284 9.70494C11.1837 8.3613 10.7917 6.71303 11.6039 5.52171C12.2473 4.86893 13.7417 3.08467 14.5099 4.29775C19.1705 10.8183 18.2897 19.5129 21.9535 26.4161L21.9499 26.4143Z" fill="#04251A"/>
</svg>
