<svg width="22" height="22" viewBox="0 0 22 22" fill="none" xmlns="http://www.w3.org/2000/svg">
<path d="M15.7818 13.1881C15.8697 12.4628 15.9357 11.7374 15.9357 10.9901C15.9357 10.2428 15.8697 9.51744 15.7818 8.79209H19.4965C19.6723 9.49546 19.7822 10.2318 19.7822 10.9901C19.7822 11.7484 19.6723 12.4848 19.4965 13.1881M13.8366 19.2986C14.496 18.0787 15.0015 16.7599 15.3532 15.3862H18.5953C17.5305 17.2196 15.8413 18.6085 13.8366 19.2986ZM13.5618 13.1881H8.41843C8.30853 12.4628 8.24259 11.7374 8.24259 10.9901C8.24259 10.2428 8.30853 9.50645 8.41843 8.79209H13.5618C13.6607 9.50645 13.7376 10.2428 13.7376 10.9901C13.7376 11.7374 13.6607 12.4628 13.5618 13.1881ZM10.9901 19.7382C10.0779 18.4194 9.3416 16.9577 8.891 15.3862H13.0892C12.6386 16.9577 11.9023 18.4194 10.9901 19.7382ZM6.59407 6.59407H3.38496C4.43875 4.75566 6.12676 3.36461 8.13268 2.68159C7.47328 3.90149 6.97872 5.2203 6.59407 6.59407ZM3.38496 15.3862H6.59407C6.97872 16.7599 7.47328 18.0787 8.13268 19.2986C6.13097 18.6081 4.44533 17.219 3.38496 15.3862ZM2.48377 13.1881C2.30792 12.4848 2.19802 11.7484 2.19802 10.9901C2.19802 10.2318 2.30792 9.49546 2.48377 8.79209H6.19842C6.1105 9.51744 6.04456 10.2428 6.04456 10.9901C6.04456 11.7374 6.1105 12.4628 6.19842 13.1881M10.9901 2.23099C11.9023 3.54981 12.6386 5.02248 13.0892 6.59407H8.891C9.3416 5.02248 10.0779 3.54981 10.9901 2.23099ZM18.5953 6.59407H15.3532C15.0092 5.2329 14.4999 3.91896 13.8366 2.68159C15.8587 3.37397 17.5402 4.76971 18.5953 6.59407ZM10.9901 0C4.91258 0 0 4.94555 0 10.9901C0 13.9049 1.15788 16.7003 3.21893 18.7613C4.23946 19.7818 5.451 20.5914 6.78438 21.1437C8.11776 21.696 9.54687 21.9802 10.9901 21.9802C13.9049 21.9802 16.7003 20.8223 18.7613 18.7613C20.8223 16.7003 21.9802 13.9049 21.9802 10.9901C21.9802 9.54687 21.696 8.11776 21.1437 6.78438C20.5914 5.451 19.7818 4.23946 18.7613 3.21893C17.7408 2.1984 16.5292 1.38888 15.1958 0.836573C13.8625 0.284268 12.4334 0 10.9901 0Z" fill="#04251A"/>
</svg>
