<svg width="72" height="12" viewBox="0 0 72 12" fill="none" xmlns="http://www.w3.org/2000/svg">
<path d="M3.30486 5.49937C3.30486 5.88667 3.34745 6.22079 3.43812 6.49666C3.52674 6.77473 3.68335 7.03243 3.91072 7.27558C4.13947 7.51507 4.47331 7.69852 4.91226 7.82371C5.35256 7.9504 5.89864 8.01297 6.55192 8.01297H11.4187V10.999H6.53611C4.31326 10.999 2.66603 10.4902 1.59856 9.47398C0.531095 8.45848 -0.00195312 7.13289 -0.00195312 5.49866C-0.00195312 3.86514 0.531095 2.53956 1.59856 1.52261C2.66603 0.507129 4.31326 -0.000976562 6.53611 -0.000976562H11.4187V2.98506H6.55192C5.30517 2.98506 4.4527 3.2049 3.99452 3.64458C3.53498 4.08426 3.30486 4.70303 3.30486 5.49937Z" fill="#ABABAB"/>
<path d="M21.9615 11.499H20.7404C19.5445 11.499 18.502 11.3481 17.6075 11.0506C16.7144 10.751 16.0012 10.3374 15.4695 9.80618C14.9357 9.27274 14.5422 8.67045 14.2861 7.99196C14.0293 7.31649 13.9023 6.56844 13.9023 5.74864C13.9023 4.92961 14.0293 4.18158 14.2861 3.50607C14.5422 2.8276 14.9357 2.22385 15.4695 1.69188C16.0012 1.1599 16.7144 0.744086 17.6075 0.446652C18.502 0.14848 19.5445 -0.000976562 20.7404 -0.000976562H21.9615C23.1554 -0.000976562 24.1993 0.14848 25.0945 0.446652C25.9869 0.744086 26.7014 1.1599 27.2331 1.69188C27.7641 2.22385 28.1604 2.8276 28.4144 3.50607C28.6712 4.18158 28.7989 4.92961 28.7989 5.74864C28.7989 6.56773 28.6719 7.31649 28.4144 7.99196C28.1604 8.67045 27.7648 9.27274 27.2331 9.80618C26.7014 10.3381 25.9869 10.7517 25.0945 11.0506C24.1993 11.3474 23.1554 11.499 21.9615 11.499ZM20.7558 8.46401H21.9455C23.2719 8.46401 24.1825 8.22651 24.6793 7.75298C25.1775 7.27946 25.4259 6.6121 25.4259 5.74941C25.4259 4.88667 25.174 4.21932 24.6737 3.74431C24.1706 3.27152 23.2615 3.03402 21.9455 3.03402H20.7683C20.079 3.03402 19.4921 3.09987 19.0156 3.23453C18.5397 3.36697 18.1748 3.56526 17.9243 3.82496C17.6738 4.08688 17.4973 4.37099 17.3975 4.67878C17.2963 4.98881 17.2461 5.3454 17.2461 5.75012C17.2461 6.61358 17.5007 7.28023 18.0066 7.75375C18.5139 8.22651 19.4307 8.46401 20.7558 8.46401Z" fill="#ABABAB"/>
<path d="M33.9055 -0.000976562V8.01281H41.2127V10.999H30.7852V-0.000976562H33.9055Z" fill="#ABABAB"/>
<path d="M62.4992 10.999V7.68228L56.1113 -0.000976562H60.6935L64.0672 5.02003L67.4155 -0.000976562H72.001L65.6093 7.68228V10.999H62.4992Z" fill="#ABABAB"/>
<path d="M54.0294 1.52272C52.9752 0.507163 51.3486 -0.000976562 49.1524 -0.000976562H44.1914V2.97289H45.6542V2.98526H49.1368C50.3581 2.98526 51.1947 3.20511 51.6501 3.64482C52.1041 4.08308 52.331 4.7026 52.331 5.49904C52.331 5.88632 52.2876 6.22046 52.1994 6.4964C52.1121 6.77449 51.9554 7.03221 51.7299 7.27533C51.5052 7.51484 51.1759 7.69829 50.7408 7.82354C50.308 7.95019 49.7734 8.01281 49.1368 8.01281H45.6542H48.4776H44.1914V10.999H49.1524C51.3486 10.999 52.9752 10.4902 54.0294 9.47388C55.0836 8.45835 55.6121 7.13267 55.6121 5.49829C55.6121 3.86541 55.0836 2.54046 54.0294 1.52272Z" fill="#ABABAB"/>
<defs>
<clipPath id="clip0_7564_63065">
<rect width="72" height="12" fill="white"/>
</clipPath>
</defs>
</svg>
