<svg width="86" height="20" viewBox="0 0 86 20" fill="none" xmlns="http://www.w3.org/2000/svg">
<path d="M1.76125 4.24107C0.65282 5.83458 0 7.77037 0 9.85577C0 12.2562 0.863627 14.4572 2.29394 16.1664C2.29394 16.0621 2.29394 15.9578 2.29394 15.8513V7.4961C2.29394 6.89088 2.29394 6.34233 2.1806 5.84818C2.1262 5.37897 1.96979 4.85762 1.76125 4.24107ZM7.60264 6.06805C7.09489 6.06805 6.53047 6.12472 5.85272 6.34233C5.62831 6.4534 5.34497 6.5622 5.06162 6.72541V12.9907C5.68271 13.6503 6.41713 13.979 7.32156 13.979C8.4504 13.979 9.35256 13.648 9.91924 12.9907C10.5381 12.2744 10.8803 11.3428 10.8803 10.0779C10.8803 8.81307 10.5403 7.82478 9.97591 7.11075C9.41149 6.39673 8.56373 6.06579 7.60264 6.06579M76.1261 19.1834H36.8481V19.1721C32.3871 18.5895 28.9349 14.6635 28.9349 9.90111C28.9349 5.13869 32.3849 1.2127 36.8481 0.630153V0.618819H76.1261C81.088 0.618819 85.1228 4.78281 85.1228 9.90111C85.1228 15.0194 81.088 19.1834 76.1261 19.1834ZM5.06162 6.12472L6.92488 4.31133L7.26263 4.14586C7.65704 3.98039 8.16706 3.92599 8.78814 3.92599C9.63817 3.92599 10.3885 4.11413 11.0367 4.48134V3.2097C11.0367 2.44128 10.9801 1.83606 10.8667 1.34191C10.8146 0.895361 10.6695 0.446547 10.4746 0H9.85351C6.54634 0 3.61771 1.63885 1.82926 4.14586H5.06162V6.12472ZM75.8473 0H14.0742C13.9948 0.299209 13.9223 0.621086 13.8634 0.956563C13.8067 1.56178 13.75 2.43901 13.75 3.54064V6.12472L15.84 4.14586C16.5177 3.98039 17.0821 3.92599 17.5899 3.92599C18.8321 3.92599 19.7365 4.20026 20.4142 4.85988C21.0353 5.5195 21.3753 6.45567 21.3753 7.71824V12.2245C21.3753 12.4149 21.3776 12.594 21.3821 12.7663C21.84 13.2332 22.3024 13.571 22.8124 13.818C23.3202 14.0379 23.8846 14.2011 24.3946 14.2011C24.9613 14.2011 25.4124 14.0356 25.7501 13.7614C26.0879 13.5415 26.2579 13.2105 26.2579 12.7731C26.2579 12.4988 26.1445 12.1678 25.8635 11.8392C25.5801 11.5649 25.0157 11.1795 24.2246 10.6831C23.2658 10.0235 22.5314 9.41829 22.1347 8.86974C21.7403 8.37559 21.5136 7.82478 21.5136 7.16516C21.5136 6.23126 21.9647 5.46284 22.8691 4.80322C23.7735 4.198 24.8457 3.92372 26.2012 3.92372C26.709 3.92372 27.1623 3.92372 27.5001 3.97812C27.8401 4.08919 28.2911 4.198 28.7422 4.36347V6.5622C28.3455 6.23126 27.9511 5.95698 27.5567 5.73711C27.1623 5.57391 26.709 5.51724 26.2012 5.51724C25.6935 5.51724 25.2401 5.62604 24.8457 5.84591C24.5057 6.06579 24.338 6.39673 24.338 6.72541C24.338 7.11075 24.4513 7.38503 24.678 7.66157C24.9046 7.99025 25.3535 8.32573 26.0335 8.76094C27.16 9.48176 27.9557 10.0802 28.4068 10.6287C28.8034 11.1795 29.0278 11.7825 29.0278 12.3877C29.0278 13.3783 28.6334 14.2011 27.8423 14.8607C26.9946 15.4659 25.9791 15.7946 24.7369 15.7946C24.0591 15.7946 23.4925 15.7946 22.9847 15.6858C22.6696 15.6473 22.2684 15.5815 21.8264 15.4705C21.8468 15.5067 21.8627 15.543 21.8853 15.577H18.0455C18.2699 15.1917 18.4399 14.8086 18.4966 14.3122C18.6099 13.818 18.6643 13.104 18.6643 12.2245V7.99252C18.6643 7.33289 18.4399 6.83875 18.0999 6.5078C17.7055 6.17913 17.1388 6.06805 16.4044 6.06805C15.8966 6.06805 15.2189 6.17686 14.3711 6.5078L13.75 6.78208V12.2222C13.75 13.1017 13.8067 13.8158 13.8634 14.2555C13.9767 14.7497 14.1467 15.1894 14.3144 15.5747H10.4179C10.4179 15.5747 10.4202 15.5702 10.4225 15.5679C9.91244 15.7176 9.35029 15.7946 8.73601 15.7946C7.32383 15.7946 6.08166 15.4115 5.06389 14.6409V15.8513C5.06389 16.4565 5.06389 17.0051 5.17723 17.4992C5.21803 17.8551 5.31777 18.2382 5.45377 18.6688C6.78208 19.3353 8.27586 19.7115 9.85804 19.7115H75.8496C81.2829 19.7115 85.7053 15.2914 85.7053 9.85577C85.7053 4.42014 81.2829 0 75.8473 0Z" fill="#ABABAB"/>
<path d="M57.226 9.05374C57.4844 9.11041 57.7972 9.20788 58.1622 9.34842L58.2982 8.87694L58.4319 8.40319H55.2199L55.0499 8.90414L54.8822 9.40055C55.1791 9.24415 55.5531 9.13081 56.0042 9.06734L56.2445 9.04014V11.4316C56.2445 11.7557 56.2309 12.0073 56.2014 12.1909C56.172 12.3745 56.1198 12.5377 56.045 12.6828H57.3031C57.226 12.5332 57.1761 12.3677 57.1444 12.1841C57.1149 12.0028 57.1013 11.7512 57.1013 11.4316V9.03108L57.2305 9.05601L57.226 9.05374ZM65.257 11.4293V9.6567C65.257 9.32349 65.2684 9.06281 65.2956 8.88147C65.3205 8.69787 65.3681 8.53919 65.4384 8.40546H64.2189C64.2869 8.54373 64.3345 8.7024 64.3617 8.88601C64.3889 9.06961 64.4047 9.32575 64.4047 9.6567V10.1644H62.9042V9.6567C62.9042 9.42776 62.9178 9.22375 62.945 9.04014C62.9699 8.85654 63.0198 8.64573 63.0878 8.40546H61.866C61.9363 8.6412 61.9839 8.84974 62.0111 9.03561C62.0383 9.21922 62.0496 9.42776 62.0496 9.6567V11.4293C62.0496 11.7648 62.0383 12.0254 62.0111 12.209C61.9861 12.3926 61.9385 12.5491 61.866 12.6805H63.0878C63.0198 12.5423 62.9722 12.3858 62.945 12.2022C62.9178 12.0209 62.9042 11.7625 62.9042 11.4293V10.7561H64.4047V11.4293C64.4047 11.7648 64.3912 12.0254 64.3662 12.209C64.339 12.3926 64.2937 12.5491 64.2257 12.6805H65.4452C65.3772 12.5423 65.3273 12.3858 65.3001 12.2022C65.2752 12.0209 65.2593 11.7625 65.2593 11.4293M68.4463 12.0866H66.9934C67.0546 11.8736 67.1112 11.6174 67.1611 11.3137C67.2744 10.6359 67.3402 9.86297 67.3583 8.99481H68.4486V12.0844L68.4463 12.0866ZM69.8268 12.0866H69.2986V9.65443C69.2986 9.42549 69.3122 9.22148 69.3394 9.03788C69.3689 8.85427 69.4142 8.64346 69.4822 8.40319H66.3745C66.4448 8.64573 66.4902 8.85654 66.5128 9.04014C66.5332 9.22375 66.5332 9.42776 66.5173 9.65443C66.4743 10.246 66.4085 10.7923 66.3111 11.291C66.2499 11.6106 66.1796 11.8758 66.1071 12.0844H65.6129C65.6333 12.1456 65.6492 12.2453 65.6673 12.3858C65.6945 12.5921 65.7036 12.812 65.6923 13.05C65.6832 13.288 65.6537 13.4784 65.6129 13.619H66.6715C66.6284 13.4784 66.6012 13.288 66.5899 13.0477V12.6783H68.8453C68.8544 12.7939 68.8521 12.9185 68.8453 13.0477C68.834 13.2857 68.8113 13.4784 68.7682 13.619H69.8268C69.7837 13.4784 69.7565 13.288 69.7474 13.0477C69.7361 12.8097 69.7474 12.5876 69.7724 12.3836C69.7882 12.243 69.8041 12.1456 69.8268 12.0844M77.7808 8.40092L77.613 8.90187L77.443 9.39829C77.7422 9.24188 78.114 9.12855 78.5651 9.06508L78.8053 9.03788V11.4293C78.8053 11.7534 78.7917 12.005 78.7623 12.1886C78.7328 12.37 78.6784 12.5355 78.6036 12.6805H79.8639C79.7891 12.5309 79.737 12.3654 79.7075 12.1818C79.678 12.0005 79.6622 11.7489 79.6622 11.4293V9.02881L79.7936 9.05374C80.0498 9.11041 80.3626 9.20788 80.7275 9.34842L80.8635 8.87694L80.9995 8.40319H77.7853L77.7808 8.40092ZM40.7831 12.0934H40.2187C39.831 12.0934 39.516 11.7784 39.516 11.3885C39.516 10.9986 39.831 10.6858 40.2187 10.6858H40.7831V12.0934ZM41.6376 11.4248V9.74963C41.6376 9.27135 41.522 8.90867 41.2908 8.6684C41.0574 8.42586 40.7105 8.30572 40.2504 8.30572C40.0872 8.30572 39.9263 8.32159 39.7698 8.35332C39.6134 8.38506 39.4502 8.43719 39.2825 8.50973L39.0468 9.33029C39.2236 9.20788 39.3845 9.11948 39.5318 9.06508C39.6792 9.01294 39.831 8.98574 39.9875 8.98574C40.2323 8.98574 40.4249 9.05374 40.57 9.19201C40.7128 9.32802 40.7853 9.51389 40.7853 9.74737V10.1372L39.5273 10.6563C39.2576 10.7674 39.0422 10.9238 38.8836 11.1165C38.7249 11.3114 38.6455 11.5177 38.6455 11.7376C38.6455 12.0685 38.7566 12.3224 38.9833 12.5015C39.21 12.6783 39.5296 12.7689 39.9489 12.7689L40.1235 12.7621L40.7876 12.2657V12.676H41.794C41.7351 12.5627 41.6966 12.4153 41.6739 12.234C41.6512 12.0526 41.6399 11.7829 41.6399 11.4248M44.7249 11.7081C44.5323 11.9642 44.2625 12.0934 43.9089 12.0934C43.6233 12.0934 43.3853 11.9642 43.1904 11.7126V9.35749C43.2788 9.30762 43.3649 9.26455 43.4488 9.23055C43.6482 9.14895 43.8273 9.10815 43.9837 9.10815C44.2988 9.10815 44.5504 9.24415 44.734 9.51616C44.9176 9.78817 45.0105 10.1554 45.0105 10.6201C45.0105 11.0847 44.9153 11.4565 44.7249 11.7104M44.3668 8.30799C44.1787 8.30799 44.0154 8.33746 43.8817 8.40092L43.7752 8.45532L43.1926 9.14441V8.40092H42.1567C42.2247 8.63666 42.2723 8.84747 42.2995 9.03108C42.3267 9.21468 42.3381 9.42322 42.3381 9.65216V12.7825C42.3381 13.016 42.3267 13.2245 42.2995 13.4081C42.2723 13.5918 42.2247 13.8003 42.1567 14.0338H43.3762C43.3082 13.7958 43.2606 13.585 43.2312 13.4013C43.204 13.2177 43.1904 13.0115 43.1904 12.7848V12.345C43.5213 12.6284 43.9066 12.7757 44.3487 12.7735C44.8428 12.7735 45.2236 12.5853 45.4888 12.2045C45.7563 11.826 45.8878 11.2887 45.8878 10.5906C45.8878 9.89244 45.7472 9.36429 45.4662 8.94267C45.1851 8.51879 44.8179 8.31025 44.3645 8.31025M51.0129 8.90414C51.0537 8.72053 51.1239 8.55279 51.2259 8.40319H50.1062C50.1039 8.48026 50.0654 8.58226 49.9974 8.71373C49.9271 8.8452 49.8319 8.97894 49.7186 9.11495L48.7031 10.3594L48.6985 10.3617H48.7031L47.5538 8.97214C47.4768 8.88374 47.4156 8.78627 47.3657 8.682C47.3158 8.57773 47.2909 8.48479 47.2886 8.40319H46.1439L46.4386 8.75V11.4293C46.4386 11.6628 46.4273 11.8713 46.4001 12.0549C46.3751 12.2385 46.3275 12.447 46.2572 12.6805H47.4768C47.4088 12.4425 47.3589 12.2294 47.3317 12.0481C47.3067 11.8645 47.2909 11.6582 47.2909 11.4293V9.77683L48.694 11.4792L50.0971 9.77683V11.4293C50.0971 11.665 50.0858 11.8758 50.0586 12.0594C50.0336 12.243 49.9838 12.4516 49.9158 12.6805H51.1353C51.0673 12.4425 51.0197 12.2294 50.9925 12.0481C50.9653 11.8645 50.9517 11.6582 50.9517 11.4293V9.6567C50.9517 9.33935 50.9698 9.08774 51.0106 8.90414M53.6695 12.107C53.2705 12.107 52.9532 11.962 52.7197 11.6696C52.484 11.3771 52.3684 10.985 52.3684 10.4886C52.3684 9.99217 52.4794 9.61816 52.6993 9.33255C52.9215 9.04921 53.2207 8.90641 53.5969 8.90641C53.7851 8.90641 53.9551 8.94494 54.1115 9.01974C54.2679 9.09681 54.4243 9.21922 54.5807 9.38922L54.6238 8.40319C54.4016 8.36466 54.2316 8.33972 54.107 8.32612C53.9823 8.31479 53.835 8.30799 53.6672 8.30799C53.0393 8.30799 52.518 8.53239 52.1009 8.98121C51.6838 9.43002 51.4753 9.99444 51.4753 10.6722C51.4753 11.2751 51.6634 11.7761 52.0397 12.175C52.416 12.574 52.8875 12.7735 53.4541 12.7735C53.6173 12.7735 53.7579 12.7644 53.878 12.7485C53.9982 12.7327 54.1523 12.7009 54.3472 12.6511L54.685 11.8328C54.4356 11.9348 54.2384 12.005 54.0888 12.0458C53.9438 12.0844 53.8032 12.1048 53.6649 12.1048M60.3632 12.0957H59.801C59.4134 12.0957 59.0961 11.7806 59.0961 11.3907C59.0961 11.0009 59.4111 10.6881 59.801 10.6881H60.3632V12.0957ZM61.2177 11.427V9.7519C61.2177 9.27362 61.1021 8.91094 60.8686 8.67067C60.6374 8.42812 60.2884 8.30799 59.8282 8.30799C59.665 8.30799 59.5041 8.32385 59.3477 8.35559C59.1913 8.38732 59.028 8.43946 58.8603 8.51199L58.6246 9.33255C58.8014 9.21015 58.96 9.12175 59.1074 9.06734C59.2547 9.01521 59.4066 8.98801 59.563 8.98801C59.8078 8.98801 60.0005 9.05601 60.1455 9.19428C60.2884 9.33029 60.3609 9.51616 60.3609 9.74963V10.1395L59.1029 10.6586C58.8331 10.7697 58.6178 10.9261 58.4614 11.1187C58.3027 11.3137 58.2234 11.52 58.2234 11.7398C58.2234 12.0708 58.3367 12.3246 58.5611 12.5037C58.7878 12.6828 59.1074 12.7712 59.5267 12.7712L59.699 12.7644L60.3632 12.268V12.6783H61.3719C61.3152 12.5649 61.2744 12.4176 61.254 12.2362C61.2313 12.0549 61.22 11.7852 61.22 11.427M72.1729 12.0957H71.6107C71.2208 12.0957 70.9057 11.7806 70.9057 11.3907C70.9057 11.0009 71.2208 10.6881 71.6107 10.6881H72.1729V12.0957ZM73.0274 11.427V9.7519C73.0274 9.27362 72.9118 8.91094 72.6806 8.67067C72.4471 8.42812 72.1003 8.30799 71.6379 8.30799C71.4747 8.30799 71.316 8.32385 71.1574 8.35559C71.001 8.38732 70.8377 8.43946 70.67 8.51199L70.4343 9.33255C70.6111 9.21015 70.772 9.12175 70.9171 9.06734C71.0644 9.01521 71.2163 8.98801 71.3727 8.98801C71.6175 8.98801 71.8102 9.05601 71.9552 9.19428C72.1003 9.33029 72.1729 9.51616 72.1729 9.74963V10.1395L70.9125 10.6586C70.6428 10.7697 70.4297 10.9261 70.2711 11.1187C70.1124 11.3137 70.0308 11.52 70.0308 11.7398C70.0308 12.0708 70.1441 12.3246 70.3708 12.5037C70.5975 12.6805 70.9171 12.7712 71.3364 12.7712L71.5087 12.7644L72.1729 12.268V12.6783H73.1793C73.1226 12.5649 73.0841 12.4176 73.0591 12.2362C73.0387 12.0549 73.0252 11.7852 73.0252 11.427M76.1238 11.7104C75.9311 11.9665 75.6614 12.0957 75.3078 12.0957C75.0221 12.0957 74.7841 11.9665 74.5869 11.7149V9.35975C74.6753 9.30989 74.7637 9.26682 74.8476 9.23282C75.0471 9.15121 75.2262 9.11041 75.3826 9.11041C75.6976 9.11041 75.947 9.24642 76.1328 9.51843C76.3187 9.79043 76.4117 10.1576 76.4117 10.6223C76.4117 11.087 76.3164 11.4588 76.126 11.7126M75.7656 8.31025C75.5775 8.31025 75.4143 8.33972 75.2806 8.40319L75.174 8.45759L74.5892 9.14668V8.40319H73.5556C73.6236 8.63893 73.6712 8.84747 73.6984 9.03334C73.7233 9.21695 73.7369 9.42549 73.7369 9.65443V12.7848C73.7369 13.0183 73.7233 13.2268 73.6984 13.4104C73.6712 13.594 73.6236 13.8026 73.5556 14.036H74.7751C74.7071 13.798 74.6572 13.5872 74.6323 13.4036C74.6051 13.22 74.5892 13.0137 74.5892 12.7871V12.3473C74.9201 12.6307 75.3078 12.778 75.7498 12.7757C76.2439 12.7757 76.6247 12.5876 76.8922 12.2068C77.1574 11.8282 77.2911 11.291 77.2911 10.5929C77.2911 9.8947 77.1483 9.36655 76.8695 8.94494C76.5885 8.52333 76.2235 8.31252 75.7679 8.31252M37.0271 10.9193C36.7098 11.1981 36.2836 11.3545 35.7509 11.3885L35.7419 10.8989V8.30572L35.7555 7.81384C36.2836 7.85011 36.703 8.00651 37.0203 8.28305C37.3852 8.6004 37.5688 9.04014 37.5688 9.60456C37.5688 10.169 37.3852 10.6042 37.0248 10.9215M34.8057 10.8989L34.7921 11.3885C34.2639 11.3522 33.8446 11.1958 33.5295 10.9193C33.1646 10.6019 32.9832 10.1644 32.9832 9.60229C32.9832 9.04014 33.1646 8.59586 33.5273 8.28079C33.8446 8.00651 34.2707 7.85011 34.7944 7.80931L34.8057 8.30572V10.8989ZM37.7729 7.7889C37.2878 7.39903 36.6349 7.18142 35.8167 7.14062C35.8439 6.93661 35.8915 6.72807 35.9549 6.51953H34.5904C34.6493 6.73487 34.6969 6.94341 34.7309 7.14062C33.9149 7.18369 33.2643 7.39676 32.7815 7.78437C32.2329 8.22412 31.9609 8.82934 31.9609 9.60229C31.9609 10.3753 32.2329 10.9805 32.7747 11.4157C33.2575 11.801 33.9103 12.0164 34.7309 12.0594C34.6969 12.2612 34.6493 12.4697 34.5904 12.6805H35.9549C35.8915 12.472 35.8439 12.2634 35.8144 12.0594C36.6327 12.0164 37.2855 11.8033 37.7706 11.4157C38.3123 10.9805 38.5843 10.3753 38.5843 9.60229C38.5843 8.82934 38.3101 8.22412 37.7706 7.7889" fill="#ABABAB"/>
</svg>
