<svg width="107" height="13" viewBox="0 0 107 13" fill="none" xmlns="http://www.w3.org/2000/svg">
<path d="M7.11001 12.7294H0.00538426V10.0516L7.11001 5.25828V12.7294ZM8.07344 2.34182L13.0252 5.68574V0.180664H0V7.78463L8.07344 2.34182ZM9.0358 5.25828V12.7284H13.0284V7.95583L9.0358 5.25828Z" fill="#ABABAB"/>
<path d="M104.201 0.000976562H100.762V1.32692H104.201V0.000976562Z" fill="#ABABAB"/>
<path d="M22.7352 4.37237V11.2646H20.6738V2.57227H27.631V4.37237H22.7352Z" fill="#ABABAB"/>
<path d="M28.502 10.9907C29.0176 10.0974 29.2759 8.70814 29.2759 6.80638V2.57227H36.8768V11.2646H34.8132V4.37237H31.3363V6.62067C31.3363 8.84303 31.0919 10.3828 30.6021 11.2646H28.502V10.9907Z" fill="#ABABAB"/>
<path d="M41.7625 2.57227H44.7206L48.2729 11.2646H46.0123L45.3169 9.46346H41.1682L40.4729 11.2646H38.2188L41.7625 2.57227ZM44.6215 7.66336L43.2437 4.11195L41.8647 7.66336H44.6215Z" fill="#ABABAB"/>
<path d="M49.6094 2.57227H54.2468C55.9992 2.57227 57.1457 3.45416 57.1457 4.80708C57.1457 5.75122 56.657 6.40901 55.6645 6.79393C56.798 7.10518 57.4675 7.81277 57.4675 8.84302C57.4675 10.3828 56.2694 11.2646 54.3113 11.2646H49.6094V2.57227ZM54.1833 5.92448C54.8141 5.92448 55.1521 5.62672 55.1521 5.11833C55.1521 4.67116 54.8044 4.37237 54.1833 4.37237H51.6708V5.92865L54.1833 5.92448ZM54.4405 9.46346C55.0713 9.46346 55.4707 9.12834 55.4707 8.59506C55.4707 8.06177 55.0713 7.72562 54.4405 7.72562H51.6708V9.46346H54.4405Z" fill="#ABABAB"/>
<path d="M63.4829 9.5854C65.0158 9.5854 65.9297 8.64126 66.2268 7.18873L68.1203 7.92122C67.5918 10.0575 65.9426 11.3855 63.47 11.3855C60.5969 11.3855 58.7411 9.47334 58.7411 6.91586C58.6905 4.4196 60.8284 2.39644 63.47 2.4452C65.8533 2.4452 67.3603 3.71201 67.7468 5.33884L65.8533 6.1564C65.5949 4.95184 64.681 4.24426 63.4312 4.24426C61.9877 4.24426 60.8025 5.29941 60.8025 6.91379C60.8025 8.55514 62.0394 9.5854 63.4829 9.5854Z" fill="#ABABAB"/>
<path d="M76.9516 4.37237H73.86V11.2646H71.7986V4.37237H68.707V2.57227H76.9516V4.37237Z" fill="#ABABAB"/>
<path d="M80.4501 11.2646H78.3887V2.57227H82.7042C84.7139 2.57227 85.7323 3.82663 85.7323 5.29161C85.7323 6.70678 84.6881 8.03584 82.7042 8.03584H80.4501V11.2646ZM82.5761 6.23574C83.2457 6.23574 83.6709 5.90062 83.6709 5.30197C83.6709 4.70333 83.2457 4.36821 82.5761 4.36821H80.4501V6.23574H82.5761Z" fill="#ABABAB"/>
<path d="M96.5535 6.91583C96.6052 9.3374 94.3759 11.4478 91.787 11.3855C89.197 11.4478 86.9687 9.3374 87.0204 6.91583C86.9687 4.49427 89.197 2.39641 91.787 2.44517C94.3759 2.39641 96.6041 4.49634 96.5535 6.91583ZM94.4921 6.91583C94.4921 5.32636 93.294 4.30855 91.787 4.30855C90.2799 4.30855 89.0818 5.32636 89.0818 6.91583C89.0818 8.50531 90.2799 9.52311 91.787 9.52311C93.294 9.52311 94.4921 8.50531 94.4921 6.91583Z" fill="#ABABAB"/>
<path d="M101.618 11.2646H98.0879V2.57227H100.155V9.93864L103.453 2.57227H106.983V11.2646H104.921V3.89822L101.618 11.2646Z" fill="#ABABAB"/>
<defs>
<clipPath id="clip0_7564_62995">
<rect width="107" height="12.7615" fill="white"/>
</clipPath>
</defs>
</svg>
