<svg width="84" height="19" viewBox="0 0 84 19" fill="none" xmlns="http://www.w3.org/2000/svg">
<path d="M30.6241 18.48L26.7293 11.4437H24.2855C25.7365 11.289 26.9584 10.7478 27.9512 9.89724C29.2495 8.81473 29.9368 7.42293 29.9368 5.79916C29.9368 4.1754 29.2495 2.7836 27.9512 1.70109C26.6529 0.541255 24.9728 0 23.0636 0H14.5102L9.46981 13.2994L4.27669 0H0V18.48H1.06917V2.01038L7.48421 18.48H8.70612L14.8157 2.0877V18.48H18.7869V11.521H22.3762L26.1947 18.48H30.6241ZM18.7869 0.927866H21.7653C23.9036 0.927866 25.3547 2.86092 25.3547 5.79916C25.3547 8.73741 23.9036 10.6705 21.7653 10.6705H18.7869V0.927866Z" fill="#ABABAB"/>
<path d="M53.0768 13.918L51.1675 10.3612H49.9456C50.6329 10.2839 51.2439 9.97456 51.7785 9.58795C52.4658 9.0467 52.7713 8.3508 52.7713 7.50025C52.7713 6.64971 52.4658 6.03113 51.7785 5.48987C51.0912 4.94862 50.3275 4.63933 49.3347 4.63933H45.2107V13.918H47.1963V10.4385H49.0292L50.9384 13.918H53.0768ZM47.1963 9.97456V5.10326H48.6473C49.7165 5.10326 50.4038 6.03113 50.4038 7.50025C50.4038 8.96937 49.7165 9.89724 48.6473 9.89724H47.1963V9.97456Z" fill="#ABABAB"/>
<path d="M59.0336 13.918C57.6589 13.918 56.5134 13.4541 55.597 12.6035C54.6805 11.6756 54.2223 10.5931 54.2223 9.27866C54.2223 7.96419 54.6805 6.80435 55.597 5.95381C56.5134 5.02594 57.6589 4.63933 59.0336 4.63933C60.4082 4.63933 61.5538 5.10326 62.4702 5.95381C63.3866 6.88167 63.8449 7.96419 63.8449 9.27866C63.8449 10.5931 63.3866 11.753 62.4702 12.6035C61.5538 13.5314 60.4082 13.918 59.0336 13.918ZM59.0336 13.6087C59.8736 13.6087 60.4846 13.2221 61.0192 12.4489C61.5538 11.6757 61.7829 10.5931 61.7829 9.27866C61.7829 7.96419 61.5538 6.959 61.0192 6.10845C60.561 5.33523 59.8736 4.94862 59.0336 4.94862C58.1935 4.94862 57.5826 5.33523 57.048 6.10845C56.5898 6.88167 56.2843 7.96419 56.2843 9.27866C56.2843 10.5931 56.5134 11.5983 57.048 12.4489C57.5062 13.2221 58.1935 13.6087 59.0336 13.6087Z" fill="#ABABAB"/>
<path d="M72.3982 4.63933C72.3982 4.63933 72.3982 11.0571 72.3982 12.2169C71.94 12.9128 71.1763 13.2994 70.1835 13.2994C68.5034 13.2994 67.4342 12.2169 67.4342 10.3612V4.63933H65.4486V10.1292C65.4486 11.2117 65.8305 12.1396 66.5941 12.8355C67.3578 13.5314 68.3506 13.8407 69.5726 13.8407C70.7181 13.8407 71.5582 13.5314 72.2455 12.9128C72.3982 12.7582 72.551 12.6035 72.6273 12.4489L74.0784 13.918H74.3838V4.63933H72.3982Z" fill="#ABABAB"/>
<path d="M80.4934 4.63933C81.4862 4.63933 82.2499 4.94862 82.9372 5.48987C83.6245 6.03113 83.93 6.72703 83.93 7.50025C83.93 8.3508 83.6245 8.96937 82.9372 9.58795C82.2499 10.1292 81.4862 10.4385 80.4934 10.4385H78.355V13.918H76.3694V4.63933H80.4934ZM79.8824 9.97456C80.9516 9.97456 81.6389 9.0467 81.6389 7.57757C81.6389 6.10845 80.9516 5.18059 79.8824 5.18059H78.4314V9.97456H79.8824Z" fill="#ABABAB"/>
<path d="M41.2395 9.97448C41.2395 9.97448 41.2395 11.289 41.2395 12.2942C41.0104 13.1447 40.2467 13.6859 39.1775 13.6859C38.2611 13.6859 37.6501 13.2993 37.1155 12.5261C36.581 11.7529 36.3519 10.7477 36.3519 9.43323C36.3519 6.64963 37.6501 5.02586 39.7885 5.02586C40.5522 5.02586 41.1631 5.18051 41.6213 5.56712C42.1559 5.95373 42.385 6.41766 42.385 7.03624H42.7669C42.7669 6.34034 42.385 5.64444 41.7741 5.18051C41.1631 4.71658 40.3231 4.56193 39.3303 4.56193C37.8792 4.56193 36.7337 5.02586 35.7409 5.87641C34.8245 6.80428 34.3662 7.96411 34.3662 9.27858C34.3662 10.5931 34.8245 11.7529 35.7409 12.6808C36.6573 13.6086 37.8792 13.9952 39.1775 13.9952C40.3994 13.9952 41.3922 13.6086 41.8505 12.9127L42.9196 13.9179H43.2251V9.97448H41.2395Z" fill="#ABABAB"/>
</svg>
