<svg width="70" height="32" viewBox="0 0 70 32" fill="none" xmlns="http://www.w3.org/2000/svg">
<path d="M9.91604 10.6667H13.5219V14.4762H17.1277V10.6667H20.7335V20.9524H17.1277V16.7619H13.5219V20.9524H9.91604V10.6667ZM32.9032 10.6667V20.9524H29.7481V12.9524H27.4945V16C27.4945 17.2916 27.0706 18.9144 26.1423 19.8095C25.2129 20.8031 23.6077 21.2505 21.635 20.9524V18.2857C23.4917 18.5847 23.8886 17.9871 23.8886 16V10.6667H32.9032ZM36.0583 10.6667H39.2134L41.4671 16.7619L43.27 10.6667H46.8758L48.228 20.9524H45.0729L44.1714 15.2381L42.3685 20.9524H40.1149L38.312 15.2381L37.4105 20.9524H34.2554L36.0583 10.6667ZM49.5802 10.6667H53.186V14.8571L56.3411 10.6667H60.3977L55.8904 15.619L60.3977 20.9524H56.3411L53.186 16.7619V20.9524H49.5802V10.6667ZM34.7061 0C13.8122 0 0 6.45907 0 16C0 25.4407 13.8122 32 34.7061 32C55.7151 32 69.4123 25.437 69.4123 16C69.4123 6.45907 55.7129 0 34.7061 0ZM34.7061 30.4762C15.0908 30.4762 1.80292 24.6458 1.80292 16C1.80079 7.25483 15.0887 1.52381 34.7061 1.52381C54.4375 1.52381 67.6093 7.25483 67.6093 16C67.6093 24.6458 54.4375 30.4762 34.7061 30.4762ZM34.7061 3.04762C16.2501 3.04762 4.05656 8.14903 4.05656 16C4.05656 23.851 16.2501 28.9524 34.7061 28.9524C53.1621 28.9524 65.3557 23.851 65.3557 16C65.3557 8.14903 53.1589 3.04762 34.7061 3.04762ZM34.7061 28.9524C16.4833 28.9524 4.50729 23.6523 4.50729 16C4.50729 8.34775 16.4812 3.04762 34.7061 3.04762C52.9311 3.04762 64.905 8.34775 64.905 16C64.905 23.6523 52.9268 28.9524 34.7061 28.9524Z" fill="#B5B5B5"/>
</svg>
