<svg width="69" height="9" viewBox="0 0 69 9" fill="none" xmlns="http://www.w3.org/2000/svg">
<path d="M5.53623 5.55387C4.90615 6.178 4.13937 6.49006 3.23587 6.49006C2.33236 6.49006 1.56558 6.178 0.935504 5.55387C0.311375 4.92379 -0.000689616 4.15403 -0.000689616 3.24459C-0.000689616 2.33514 0.311375 1.56836 0.935504 0.944228C1.56558 0.314154 2.33236 -0.000882224 3.23587 -0.000882224C4.13937 -0.000882224 4.90615 0.314154 5.53623 0.944228C6.1663 1.56836 6.48134 2.33514 6.48134 3.24459C6.48134 4.15403 6.1663 4.92379 5.53623 5.55387ZM1.80037 4.71575C2.18673 5.09617 2.66523 5.28638 3.23587 5.28638C3.8065 5.28638 4.285 5.09617 4.67136 4.71575C5.05773 4.32938 5.25091 3.839 5.25091 3.24459C5.25091 2.65018 5.05773 2.15979 4.67136 1.77343C4.285 1.38706 3.8065 1.19388 3.23587 1.19388C2.66523 1.19388 2.18673 1.38706 1.80037 1.77343C1.414 2.15979 1.22082 2.65018 1.22082 3.24459C1.22082 3.839 1.414 4.32938 1.80037 4.71575ZM12.0004 2.61154C12.3927 3.03357 12.5888 3.54179 12.5888 4.1362C12.5888 4.73061 12.3927 5.23883 12.0004 5.66086C11.608 6.08289 11.0701 6.34146 10.3865 6.43656V8.14846H9.2631V6.43656C8.57953 6.34146 8.04159 6.08289 7.64928 5.66086C7.25697 5.23883 7.06081 4.73061 7.06081 4.1362C7.06081 3.54179 7.25697 3.03357 7.64928 2.61154C8.04159 2.18951 8.57953 1.93095 9.2631 1.83584V0.123944H10.3865V1.83584C11.0701 1.93095 11.608 2.18951 12.0004 2.61154ZM8.19316 4.1362C8.19316 4.43341 8.2853 4.689 8.46956 4.90299C8.65383 5.11698 8.91834 5.26261 9.2631 5.33988V2.93252C8.91834 3.0098 8.65383 3.15543 8.46956 3.36941C8.2853 3.57746 8.19316 3.83305 8.19316 4.1362ZM10.3865 5.33096C10.7313 5.25369 10.9928 5.11103 11.1712 4.90299C11.3554 4.689 11.4476 4.43341 11.4476 4.1362C11.4476 3.83305 11.3554 3.57746 11.1712 3.36941C10.9928 3.15543 10.7313 3.0098 10.3865 2.93252V5.33096ZM17.1946 5.81243C16.7369 6.26418 16.1782 6.49006 15.5184 6.49006C14.8586 6.49006 14.2999 6.26418 13.8422 5.81243C13.3904 5.35474 13.1645 4.796 13.1645 4.1362C13.1645 3.47641 13.3904 2.92064 13.8422 2.46889C14.2999 2.01119 14.8586 1.78234 15.5184 1.78234C16.1782 1.78234 16.7369 2.01119 17.1946 2.46889C17.6523 2.92064 17.8812 3.47641 17.8812 4.1362C17.8812 4.796 17.6523 5.35474 17.1946 5.81243ZM14.6535 5.0189C14.8853 5.25072 15.1736 5.36663 15.5184 5.36663C15.8631 5.36663 16.1514 5.25072 16.3833 5.0189C16.6151 4.78708 16.731 4.49285 16.731 4.1362C16.731 3.77956 16.6151 3.48532 16.3833 3.25351C16.1514 3.02169 15.8631 2.90578 15.5184 2.90578C15.1736 2.90578 14.8853 3.02169 14.6535 3.25351C14.4277 3.48532 14.3147 3.77956 14.3147 4.1362C14.3147 4.49285 14.4277 4.78708 14.6535 5.0189ZM21.2849 1.78234C21.8852 1.78234 22.3964 2.01119 22.8185 2.46889C23.2464 2.92064 23.4604 3.47641 23.4604 4.1362C23.4604 4.796 23.2464 5.35474 22.8185 5.81243C22.3964 6.26418 21.8852 6.49006 21.2849 6.49006C20.6608 6.49006 20.1793 6.2731 19.8405 5.83918V8.14846H18.6903V1.90717H19.8405V2.43322C20.1793 1.9993 20.6608 1.78234 21.2849 1.78234ZM20.1882 5.04565C20.42 5.27747 20.7143 5.39338 21.0709 5.39338C21.4276 5.39338 21.7218 5.27747 21.9536 5.04565C22.1914 4.80788 22.3103 4.50474 22.3103 4.1362C22.3103 3.76767 22.1914 3.46749 21.9536 3.23567C21.7218 2.99791 21.4276 2.87903 21.0709 2.87903C20.7143 2.87903 20.42 2.99791 20.1882 3.23567C19.9564 3.46749 19.8405 3.76767 19.8405 4.1362C19.8405 4.50474 19.9564 4.80788 20.1882 5.04565ZM28.908 1.90717V6.36523H27.7935V3.76172L26.6611 5.54495H26.5185L25.3772 3.74389V6.36523H24.2716V1.90717H25.4039L26.5898 3.77956L27.7756 1.90717H28.908ZM33.1761 1.90717H34.032V6.36523H32.9086V3.83305L30.8133 6.36523H29.9574V1.90717H31.0808V4.43935L33.1761 1.90717ZM38.5988 1.90717V3.01277H37.2079V6.36523H36.0577V3.01277H34.649V1.90717H38.5988ZM41.2281 3.33375C41.7334 3.33375 42.1405 3.47344 42.4496 3.75281C42.7587 4.02624 42.9133 4.3918 42.9133 4.84949C42.9133 5.30719 42.7587 5.67572 42.4496 5.95509C42.1405 6.22852 41.7334 6.36523 41.2281 6.36523H39.2131V1.90717H40.3633V3.33375H41.2281ZM41.237 5.3488C41.3975 5.3488 41.5283 5.30421 41.6293 5.21505C41.7363 5.11995 41.7898 4.99809 41.7898 4.84949C41.7898 4.70089 41.7363 4.57904 41.6293 4.48393C41.5283 4.38883 41.3975 4.34127 41.237 4.34127H40.3633V5.3488H41.237ZM48.4778 4.09162C48.9295 4.31155 49.1554 4.66523 49.1554 5.15264C49.1554 5.53306 48.9979 5.85107 48.6828 6.10667C48.3678 6.36226 47.925 6.49006 47.3543 6.49006C46.4508 6.49006 45.8356 6.13342 45.5087 5.42012L46.4449 4.86732C46.5875 5.27152 46.8937 5.47362 47.3633 5.47362C47.5772 5.47362 47.7407 5.43201 47.8536 5.3488C47.9725 5.26558 48.032 5.15264 48.032 5.00998C48.032 4.73655 47.8566 4.59984 47.5059 4.59984H46.8729V3.61907H47.3543C47.6991 3.61907 47.8715 3.48235 47.8715 3.20892C47.8715 3.07815 47.8209 2.97413 47.7199 2.89686C47.6188 2.81959 47.4851 2.78095 47.3187 2.78095C46.9323 2.78095 46.6559 2.96819 46.4895 3.34267L45.5622 2.8077C45.901 2.12413 46.4806 1.78234 47.3008 1.78234C47.812 1.78234 48.2162 1.91311 48.5134 2.17465C48.8166 2.43025 48.9682 2.74231 48.9682 3.11085C48.9682 3.54477 48.8047 3.87169 48.4778 4.09162ZM53.2675 1.90717H54.4177V6.36523H53.2675V5.83918C52.9227 6.2731 52.4383 6.49006 51.8141 6.49006C51.2197 6.49006 50.7085 6.26418 50.2806 5.81243C49.8585 5.35474 49.6475 4.796 49.6475 4.1362C49.6475 3.47641 49.8585 2.92064 50.2806 2.46889C50.7085 2.01119 51.2197 1.78234 51.8141 1.78234C52.4383 1.78234 52.9227 1.9993 53.2675 2.43322V1.90717ZM51.1454 5.04565C51.3773 5.27747 51.6715 5.39338 52.0281 5.39338C52.3848 5.39338 52.679 5.27747 52.9108 5.04565C53.1486 4.80788 53.2675 4.50474 53.2675 4.1362C53.2675 3.76767 53.1486 3.46749 52.9108 3.23567C52.679 2.99791 52.3848 2.87903 52.0281 2.87903C51.6715 2.87903 51.3773 2.99791 51.1454 3.23567C50.9136 3.46749 50.7977 3.76767 50.7977 4.1362C50.7977 4.50474 50.9136 4.80788 51.1454 5.04565ZM59.571 6.36523H58.2335L56.6108 4.34127V6.36523H55.4606V1.90717H56.6108V3.86872L58.1444 1.90717H59.5175L57.7253 4.10945L59.571 6.36523ZM63.211 1.90717H64.3612V6.36523H63.211V5.83918C62.8663 6.2731 62.3818 6.49006 61.7577 6.49006C61.1633 6.49006 60.6521 6.26418 60.2241 5.81243C59.8021 5.35474 59.5911 4.796 59.5911 4.1362C59.5911 3.47641 59.8021 2.92064 60.2241 2.46889C60.6521 2.01119 61.1633 1.78234 61.7577 1.78234C62.3818 1.78234 62.8663 1.9993 63.211 2.43322V1.90717ZM61.089 5.04565C61.3208 5.27747 61.6151 5.39338 61.9717 5.39338C62.3283 5.39338 62.6226 5.27747 62.8544 5.04565C63.0922 4.80788 63.211 4.50474 63.211 4.1362C63.211 3.76767 63.0922 3.46749 62.8544 3.23567C62.6226 2.99791 62.3283 2.87903 61.9717 2.87903C61.6151 2.87903 61.3208 2.99791 61.089 3.23567C60.8572 3.46749 60.7413 3.76767 60.7413 4.1362C60.7413 4.50474 60.8572 4.80788 61.089 5.04565ZM68.0166 4.09162C68.4684 4.31155 68.6943 4.66523 68.6943 5.15264C68.6943 5.53306 68.5367 5.85107 68.2217 6.10667C67.9067 6.36226 67.4638 6.49006 66.8932 6.49006C65.9897 6.49006 65.3745 6.13342 65.0476 5.42012L65.9838 4.86732C66.1264 5.27152 66.4325 5.47362 66.9021 5.47362C67.1161 5.47362 67.2796 5.43201 67.3925 5.3488C67.5114 5.26558 67.5708 5.15264 67.5708 5.00998C67.5708 4.73655 67.3955 4.59984 67.0448 4.59984H66.4117V3.61907H66.8932C67.238 3.61907 67.4103 3.48235 67.4103 3.20892C67.4103 3.07815 67.3598 2.97413 67.2588 2.89686C67.1577 2.81959 67.024 2.78095 66.8575 2.78095C66.4712 2.78095 66.1948 2.96819 66.0283 3.34267L65.1011 2.8077C65.4399 2.12413 66.0194 1.78234 66.8397 1.78234C67.3509 1.78234 67.7551 1.91311 68.0523 2.17465C68.3554 2.43025 68.507 2.74231 68.507 3.11085C68.507 3.54477 68.3436 3.87169 68.0166 4.09162Z" fill="#202020"/>
</svg>
