<svg width="98" height="19" viewBox="0 0 98 19" fill="none" xmlns="http://www.w3.org/2000/svg">
<path d="M9.80586 -0.000976562C4.3865 -0.000976562 0.00585938 4.24557 0.00585938 9.49902C0.00585938 14.7525 4.3865 18.999 9.80586 18.999C15.2252 18.999 19.6059 14.7525 19.6059 9.49902C19.6059 4.24557 15.1801 -0.000976562 9.80586 -0.000976562ZM8.40586 13.5267L7.68328 15.5843C4.9736 14.7087 3.16715 12.2133 3.16715 9.41147C3.16715 6.60962 4.9736 4.15801 7.72844 3.23865L8.45102 5.29626C6.64457 5.86538 5.47038 7.52898 5.47038 9.36769C5.42521 11.294 6.59941 12.9575 8.40586 13.5267ZM11.793 15.6281L11.1155 13.5267C12.9671 12.9575 14.1865 11.294 14.1865 9.41147C14.1865 7.52898 12.9671 5.90916 11.1607 5.34004L11.8833 3.23865C14.6381 4.11423 16.4897 6.60962 16.4897 9.41147C16.4446 12.3009 14.5478 14.7963 11.793 15.6281Z" fill="#ABABAB"/>
<path d="M96.6291 11.2042L97.6792 12.4519C96.5854 13.5706 95.229 13.8717 94.1352 13.8717C93.0851 13.8717 92.3412 13.6996 91.6849 13.3985C90.2848 12.71 89.5848 11.3332 89.5848 9.65525C89.5848 7.11675 91.3349 5.22363 93.9164 5.22363C96.8041 5.22363 98.2043 7.33188 97.9855 10.0855H91.4224C91.4662 10.7739 91.86 11.4193 92.4288 11.7635C92.91 12.0647 93.4789 12.1937 94.2227 12.1937C95.054 12.2368 95.8853 11.9356 96.6291 11.2042ZM91.5099 8.62264H96.1478C96.0166 7.63305 95.1852 6.77255 93.8726 6.77255C92.4725 6.77255 91.6412 7.7191 91.5099 8.62264ZM47.406 13.6566H49.7687L46.0496 9.39709L49.725 5.39573H47.406L44.6057 8.57961H43.7744V5.39573H41.9805V13.6136H43.7744V10.3437H44.6057L47.406 13.6566ZM55.1504 6.90162C53.6191 6.90162 52.6127 8.06331 52.6127 9.52617C52.6127 10.989 53.6191 12.1507 55.1504 12.1507C56.6818 12.1507 57.6444 11.0321 57.6444 9.52617C57.6444 8.10633 56.7256 6.90162 55.1504 6.90162ZM55.4567 5.22363C57.8194 5.22363 59.5696 7.0307 59.5696 9.52617C59.5696 11.9786 57.8632 13.8717 55.4567 13.8717C54.3191 13.8717 53.4003 13.4845 52.744 12.7961V17.0986H50.9063V5.43876H52.7002V6.42834C53.4003 5.61086 54.2754 5.22363 55.4567 5.22363ZM79.2588 5.43876H71.7769V7.07372H74.6209V13.6566H76.4586V7.07372H79.3026V5.43876H79.2588ZM40.7117 5.43876H33.2297V7.07372H36.0737V13.6566H37.8676V7.07372H40.7117V5.43876ZM30.9983 9.5692C30.9983 8.02028 29.9044 6.90162 28.3731 6.90162C26.8854 6.90162 25.7478 8.02028 25.7478 9.5692C25.7478 11.1181 26.8417 12.2368 28.3731 12.2368C29.8607 12.2368 30.9983 11.1181 30.9983 9.5692ZM23.9102 9.5692C23.9102 7.11675 25.8353 5.26666 28.4168 5.26666C30.9983 5.26666 32.9235 7.11675 32.9235 9.5692C32.9235 12.0216 30.9983 13.9148 28.4168 13.9148C25.8353 13.9148 23.9102 12.0216 23.9102 9.5692ZM88.1409 5.43876V13.6566H86.347V8.36449L81.9716 13.6566H80.5277V5.43876H82.3216V10.7309L86.697 5.43876H88.1409ZM70.5518 13.6566H68.7579V5.43876H70.5518V13.6566ZM65.8701 10.86C65.8701 10.1285 65.3451 9.61222 64.645 9.61222H62.8074V12.1507H64.645C65.3451 12.1507 65.8701 11.5914 65.8701 10.86ZM67.7078 10.86C67.7078 12.4949 66.4827 13.6566 64.7325 13.6566H61.0572V5.43876H62.8511V8.10633H64.9076C66.614 8.10633 67.7078 9.18197 67.7078 10.86Z" fill="#ABABAB"/>
<defs>
<clipPath id="clip0_7564_62951">
<rect width="98" height="19" fill="white"/>
</clipPath>
</defs>
</svg>
