<svg width="20" height="25" viewBox="0 0 20 25" fill="none" xmlns="http://www.w3.org/2000/svg">
<path d="M7.07083 2.0474L1.26917 18.5992C0.64902 20.3684 1.96207 22.2201 3.83685 22.2201H11.5373C12.759 22.2201 13.8309 21.4058 14.1585 20.2288L18.7657 3.67702C19.2484 1.94299 17.9444 0.226562 16.1445 0.226562H9.63851C8.48276 0.226562 7.45313 0.956711 7.07083 2.0474Z" stroke="#04251A" stroke-width="0.453474"/>
<path fill-rule="evenodd" clip-rule="evenodd" d="M6.99274 2.19913C7.4069 1.01756 8.52233 0.226562 9.77439 0.226562H16.2804C18.2303 0.226562 19.6429 2.08602 19.12 3.96456L14.5128 20.5164C14.1579 21.7914 12.9967 22.6735 11.6732 22.6735H3.97273C1.94172 22.6735 0.519248 20.6676 1.19107 18.7509L6.99274 2.19913ZM7.0301 2.94741C7.44427 1.76583 8.27215 0.4533 9.52421 0.4533H16.7798C18.7298 0.4533 19.6428 3.89992 19.12 5.77845L14.9662 22.3303C14.6113 23.6053 13.4501 24.4874 12.1266 24.4874H3.97268C1.94167 24.4874 0.395637 21.2659 1.06746 19.3492L7.0301 2.94741Z" fill="#04251A"/>
<path d="M5.44141 21.0859H9.52267" stroke="#04251A" stroke-width="0.453474" stroke-linecap="round"/>
<path d="M14.3356 1.13281H10.937C10.7653 1.13281 10.6083 1.22986 10.5314 1.38349L10.3047 1.83696C10.1539 2.13848 10.3732 2.49324 10.7103 2.49324H14.1845C14.3796 2.49324 14.5529 2.36833 14.6147 2.18316L14.7658 1.72969C14.8637 1.43605 14.6451 1.13281 14.3356 1.13281Z" fill="#04251A"/>
<path d="M13.1504 18.8201L17.4584 3.85547" stroke="#04251A" stroke-width="0.453474" stroke-linecap="round"/>
<path d="M7.69628 3.9311C7.73805 3.81305 7.67622 3.68349 7.55817 3.64172C7.44012 3.59995 7.31055 3.66178 7.26878 3.77983L7.48253 3.85547L7.69628 3.9311ZM2.26758 18.5934L2.48133 18.669L7.69628 3.9311L7.48253 3.85547L7.26878 3.77983L2.05383 18.5177L2.26758 18.5934Z" fill="#04251A"/>
<path d="M11.4471 18.8196H4.08008C4.38239 18.4417 5.66724 17.6859 5.66724 17.6859L7.2544 14.5116L7.6361 15.7839C7.74983 16.163 8.26064 16.2247 8.46132 15.8836L10.202 12.9244V14.5279C10.202 15.0121 10.859 15.1593 11.0656 14.7214L15.8704 4.53516L11.8831 18.4907C11.8275 18.6854 11.6496 18.8196 11.4471 18.8196Z" fill="#04251A"/>
<path d="M6.34766 12.0173H11.3359M7.70808 8.84299H12.6963M9.0685 4.76172H14.7369" stroke="#04251A" stroke-width="0.453474" stroke-linecap="round"/>
</svg>
