<svg width="76" height="34" viewBox="0 0 76 34" fill="none" xmlns="http://www.w3.org/2000/svg">
<path d="M20.0652 16.638C20.0652 18.5414 18.5219 20.0757 16.6332 20.0641C14.7444 20.0641 13.2012 18.5183 13.2012 16.6264C13.2012 14.723 14.7444 13.1887 16.6332 13.2003C18.5334 13.2118 20.0652 14.7461 20.0652 16.638Z" fill="#ABABAB"/>
<path d="M16.8076 0C14.1941 0 11.7143 0.59237 9.50195 1.64138C12.4558 1.33284 15.5191 2.62868 17.7801 4.93649C18.9106 6.07189 19.9073 7.54049 20.7461 9.31763C25.5477 10.1939 28.8054 7.77497 30.094 6.33104C26.9334 2.46824 22.1562 0 16.8076 0Z" fill="#ABABAB"/>
<path d="M6.94179 3.21964C4.60886 4.968 2.75448 7.29915 1.58203 9.9871C2.99375 10.332 7.21696 11.6998 9.15509 16.8973C9.74131 16.707 10.9975 15.9815 11.8709 13.1746C12.9356 9.73733 14.8857 6.41902 17.422 4.94421C14.6225 2.25626 10.3993 1.07879 6.94179 3.21964Z" fill="#ABABAB"/>
<path d="M31.6151 25.517C32.8737 23.2833 33.5912 20.8814 33.7912 18.4795C32.6149 21.1456 30.0743 23.1391 27.0514 23.9438C25.5694 24.3641 23.8639 24.4842 21.9937 24.3521C18.9473 28.027 19.3707 31.9901 19.9353 33.7915C24.6872 32.9628 29.0275 30.0806 31.6151 25.517Z" fill="#ABABAB"/>
<path d="M33.7858 14.9758C33.4236 12.0547 32.3128 9.25428 30.5379 6.86426C29.5237 7.91442 26.1912 10.908 20.6372 9.96646C20.5044 10.57 20.5164 12.0306 22.5449 14.2154C25.0321 16.8951 26.9761 20.2749 26.9881 23.2323C30.7552 22.17 33.9186 19.0678 33.7858 14.9758Z" fill="#ABABAB"/>
<path d="M2.35236 25.661C3.67535 27.916 5.45582 29.7587 7.49595 31.1529C5.72784 28.7646 5.29508 25.4792 6.14823 22.3877C6.55625 20.8602 7.33521 19.2721 8.448 17.6839C6.76644 13.1134 3.00766 11.4889 1.10355 11.0889C-0.652197 15.72 -0.367804 21.0421 2.35236 25.661Z" fill="#ABABAB"/>
<path d="M10.3688 32.4723C13.0417 33.5902 15.976 34.0138 18.8984 33.6843C18.4945 32.3075 17.5798 28.0476 21.1199 23.823C20.6685 23.4229 19.4093 22.7168 16.5462 23.3523C13.0417 24.1407 9.19266 24.129 6.66227 22.7051C5.71189 26.4119 6.80484 30.5894 10.3688 32.4723Z" fill="#ABABAB"/>
<path d="M38.2773 14.2568H39.8769C41.0882 14.2568 41.7404 14.7633 41.7404 15.6382C41.7404 16.4517 41.2435 16.8968 40.6068 17.035C41.1037 17.2192 41.3677 18.3857 41.9733 19.5368H41.1813C40.203 17.6029 40.436 17.1885 39.5042 17.1885H38.9762V19.5368H38.2929V14.2568H38.2773ZM38.9607 16.5592H39.9079C40.5602 16.5592 40.9795 16.3289 40.9795 15.6996C40.9795 15.1778 40.6378 14.8861 39.8148 14.8861H38.9451V16.5592H38.9607Z" fill="#ABABAB"/>
<path d="M43.2969 16.8968C43.2969 15.2562 44.2595 14.2568 45.65 14.2568C47.2085 14.2568 48.0489 15.3456 48.0489 16.8968C48.0489 18.6419 47.0404 19.5368 45.6652 19.5368C44.2137 19.5368 43.2969 18.5226 43.2969 16.8968ZM47.3307 16.8968C47.3307 15.4948 46.689 14.8684 45.65 14.8684C44.7332 14.8684 44.015 15.5246 44.015 16.8968C44.015 18.2392 44.7026 18.9253 45.7416 18.9253C46.7196 18.9253 47.3307 18.2243 47.3307 16.8968Z" fill="#ABABAB"/>
<path d="M49.802 18.5403C50.048 18.7039 50.4786 18.9122 51.0169 18.9122C51.7243 18.9122 52.0626 18.5998 52.0626 18.0644C52.0626 17.4695 51.7705 17.3059 51.0477 17.0381L50.8631 16.9786C50.0942 16.696 49.7251 16.354 49.7251 15.5657C49.7251 14.7328 50.371 14.2568 51.4167 14.2568C52.0626 14.2568 52.5548 14.4502 52.6624 14.5394L52.4932 15.1046C52.1088 14.9261 51.6935 14.8815 51.3706 14.8815C50.7862 14.8815 50.4479 15.1195 50.4479 15.5806C50.4479 15.9821 50.617 16.2201 51.4475 16.5176L51.6474 16.5919C52.5701 16.934 52.8008 17.3654 52.8008 18.0347C52.8008 19.0014 52.1088 19.5368 51.0938 19.5368C50.5401 19.5368 50.0019 19.3881 49.6328 19.1502L49.802 18.5403Z" fill="#ABABAB"/>
<path d="M57.3765 18.1248H55.0786L54.5628 19.5368H53.8594L55.9071 14.2568H56.5949L58.6114 19.5368H57.8923L57.3765 18.1248ZM55.3131 17.5108H57.1733L56.2666 15.0243H56.2354L55.3131 17.5108Z" fill="#ABABAB"/>
<path d="M61.3146 19.5368H60.6588V14.8861H59.1387V14.2568H62.8347V14.8861H61.3146V19.5368Z" fill="#ABABAB"/>
<path d="M63.8906 16.8959C63.8906 15.2552 64.8533 14.2559 66.2437 14.2559C67.8022 14.2559 68.6426 15.3447 68.6426 16.8959C68.6426 18.6409 67.6342 19.5359 66.259 19.5359C64.8074 19.5359 63.8906 18.5216 63.8906 16.8959ZM67.9245 16.8959C67.9245 15.4938 67.2827 14.8674 66.2437 14.8674C65.3269 14.8674 64.6088 15.5236 64.6088 16.8959C64.6088 18.2382 65.2964 18.9243 66.3354 18.9243C67.3286 18.9243 67.9245 18.2233 67.9245 16.8959Z" fill="#ABABAB"/>
<path d="M75.5046 19.5359H74.8427L74.5268 15.407L73.2181 19.5359H72.5111L71.2174 15.4224L70.8865 19.5359H70.2246L70.6609 14.2559H71.4882L72.8721 18.7991L74.241 14.2559H75.0684L75.5046 19.5359Z" fill="#ABABAB"/>
</svg>
