<svg width="80" height="25" viewBox="0 0 80 25" fill="none" xmlns="http://www.w3.org/2000/svg">
<path fill-rule="evenodd" clip-rule="evenodd" d="M3.16892 3.20919H11.4546L8.28571 0.00195312H0V8.38786L3.16892 11.5951V3.20919ZM13.1655 3.20919H21.4512V11.5951L24.6201 8.38786V0.00195312H16.3344L13.1655 3.20919ZM21.4512 13.3266V21.7125H13.1655L16.3344 24.9197H24.6201V16.5338L21.4512 13.3266ZM11.4546 21.7125H3.16892V13.3266L0 16.5338V24.9197H8.28571L11.4546 21.7125Z" fill="#ABABAB"/>
<path fill-rule="evenodd" clip-rule="evenodd" d="M44.7823 18.9923C45.8398 18.9923 46.6979 19.9672 46.6979 21.1681C46.6979 22.369 45.8398 23.3439 44.7823 23.3439C43.7248 23.3439 42.8667 22.369 42.8667 21.1681C42.8667 19.9672 43.7248 18.9923 44.7823 18.9923ZM44.7823 17.3347C46.8893 17.3347 48.598 19.0514 48.598 21.1681C48.598 23.2849 46.8893 25.0016 44.7823 25.0016C42.6754 25.0016 40.9667 23.2849 40.9667 21.1681C40.9667 19.0514 42.6754 17.3347 44.7823 17.3347ZM53.7058 18.9923C54.3596 18.9923 54.9747 19.2887 55.3204 19.8571L56.5738 18.6405C55.8744 17.8402 54.8488 17.3347 53.7058 17.3347C51.5988 17.3347 49.8902 19.0514 49.8902 21.1681C49.8902 23.2849 51.5988 25.0016 53.7058 25.0016C54.8753 25.0016 55.9218 24.4723 56.6218 23.6396L55.3194 22.511C54.9717 23.0613 54.3472 23.3439 53.7058 23.3439C52.6483 23.3439 51.7902 22.369 51.7902 21.1681C51.7902 19.9672 52.6483 18.9923 53.7058 18.9923ZM66.3183 21.6712H71.7989C71.8196 21.5066 71.8304 21.3386 71.8304 21.1681C71.8304 19.0514 70.1823 17.3347 68.1501 17.3347C66.1179 17.3347 64.4698 19.0514 64.4698 21.1681C64.4698 23.2849 66.1179 25.0016 68.1501 25.0016C69.309 25.0016 70.6416 24.8025 71.3162 23.93L70.4783 22.7026C70.058 23.3142 68.9459 23.4846 68.2363 23.4846C67.2984 23.4846 66.5133 22.7082 66.3183 21.6712ZM66.36 20.4795C66.6089 19.5368 67.3551 18.8516 68.2363 18.8516C69.1175 18.8516 69.8638 19.5368 70.1126 20.4795H66.36ZM57.7285 17.5098H63.6267V19.1546H61.5882V24.8264H59.7669V19.1546H57.7285V17.5098ZM74.845 21.0545L72.3622 17.5098H74.5556L76.0415 19.7747L77.5275 17.5098H79.7208L77.238 21.0545L79.8332 24.8264H77.7137L76.0415 22.3774L74.3693 24.8264H72.2498L74.845 21.0545ZM76.0415 20.1175L76.033 20.1319L76.0415 20.1321L76.0501 20.1319L76.0415 20.1175ZM36.5362 16.5488C37.3272 16.5488 37.9687 17.1981 37.9687 17.9987C37.9687 18.7993 37.3272 19.4485 36.5362 19.4485H34.1217V16.5488H36.5362ZM32.1211 14.8271H36.948C38.6784 14.8271 40.0816 16.2474 40.0816 17.9986C40.0816 19.75 38.6783 21.1702 36.948 21.1702H34.1217V24.8264H32.1211V14.8271Z" fill="black"/>
<path fill-rule="evenodd" clip-rule="evenodd" d="M44.7823 18.9923C45.8398 18.9923 46.6979 19.9672 46.6979 21.1681C46.6979 22.369 45.8398 23.3439 44.7823 23.3439C43.7248 23.3439 42.8667 22.369 42.8667 21.1681C42.8667 19.9672 43.7248 18.9923 44.7823 18.9923ZM44.7823 17.3347C46.8893 17.3347 48.598 19.0514 48.598 21.1681C48.598 23.2849 46.8893 25.0016 44.7823 25.0016C42.6754 25.0016 40.9667 23.2849 40.9667 21.1681C40.9667 19.0514 42.6754 17.3347 44.7823 17.3347ZM53.7058 18.9923C54.3596 18.9923 54.9747 19.2887 55.3204 19.8571L56.5738 18.6405C55.8744 17.8402 54.8488 17.3347 53.7058 17.3347C51.5988 17.3347 49.8902 19.0514 49.8902 21.1681C49.8902 23.2849 51.5988 25.0016 53.7058 25.0016C54.8753 25.0016 55.9218 24.4723 56.6218 23.6396L55.3194 22.511C54.9717 23.0613 54.3472 23.3439 53.7058 23.3439C52.6483 23.3439 51.7902 22.369 51.7902 21.1681C51.7902 19.9672 52.6483 18.9923 53.7058 18.9923ZM66.3183 21.6712H71.7989C71.8196 21.5066 71.8304 21.3386 71.8304 21.1681C71.8304 19.0514 70.1823 17.3347 68.1501 17.3347C66.1179 17.3347 64.4698 19.0514 64.4698 21.1681C64.4698 23.2849 66.1179 25.0016 68.1501 25.0016C69.309 25.0016 70.6416 24.8025 71.3162 23.93L70.4783 22.7026C70.058 23.3142 68.9459 23.4846 68.2363 23.4846C67.2984 23.4846 66.5133 22.7082 66.3183 21.6712ZM66.36 20.4795C66.6089 19.5368 67.3551 18.8516 68.2363 18.8516C69.1175 18.8516 69.8638 19.5368 70.1126 20.4795H66.36ZM57.7285 17.5098H63.6267V19.1546H61.5882V24.8264H59.7669V19.1546H57.7285V17.5098ZM74.845 21.0545L72.3622 17.5098H74.5556L76.0415 19.7747L77.5275 17.5098H79.7208L77.238 21.0545L79.8332 24.8264H77.7137L76.0415 22.3774L74.3693 24.8264H72.2498L74.845 21.0545ZM76.0415 20.1175L76.033 20.1319L76.0415 20.1321L76.0501 20.1319L76.0415 20.1175ZM36.5362 16.5488C37.3272 16.5488 37.9687 17.1981 37.9687 17.9987C37.9687 18.7993 37.3272 19.4485 36.5362 19.4485H34.1217V16.5488H36.5362ZM32.1211 14.8271H36.948C38.6784 14.8271 40.0816 16.2474 40.0816 17.9986C40.0816 19.75 38.6783 21.1702 36.948 21.1702H34.1217V24.8264H32.1211V14.8271Z" fill="#ABABAB"/>

<defs>
<clipPath id="clip0_7564_62929">
<rect width="80" height="25" fill="white"/>
</clipPath>
</defs>
</svg>
