<svg width="77" height="21" viewBox="0 0 77 21" fill="none" xmlns="http://www.w3.org/2000/svg">
<path d="M60.5027 6.05213L63.2566 4H54.0371V16.2927H63.2566V14.2405H56.6713V11.102H62.2987V9.04986H56.6713V6.05213H60.5027Z" fill="#ABABAB"/>
<path d="M47.2054 8.78831H43.9336V6.05213H49.1685L51.9905 4H41.2344V16.2927H46.8578C50.0069 16.2927 51.8269 14.8844 51.8269 12.4298C51.8269 10.0759 50.191 8.78831 47.2054 8.78831ZM46.7556 14.2405H43.9336V10.8404H46.7556C48.4733 10.8404 49.2708 11.4038 49.2708 12.5506C49.2708 13.6973 48.4119 14.2405 46.7556 14.2405Z" fill="#ABABAB"/>
<path d="M71.352 4H66.3301V16.2927H68.9711V12.8121H71.372C74.5732 12.8121 76.574 11.1221 76.574 8.40605C76.574 5.68999 74.5732 4 71.352 4ZM71.292 10.76H68.9511V6.05213H71.292C72.9926 6.05213 73.913 6.89713 73.913 8.40605C73.913 9.91497 72.9926 10.76 71.292 10.76Z" fill="#ABABAB"/>
<path d="M36.3567 13.9444C35.6513 14.3323 34.8653 14.5365 34.0591 14.5365C31.6606 14.5365 29.9273 12.8009 29.9273 10.4118C29.9273 8.02267 31.6606 6.287 34.0591 6.287C34.9257 6.26658 35.7722 6.55246 36.4777 7.06295L38.3924 5.63357L38.2714 5.51105C37.1629 4.51049 35.6715 4 33.9784 4C32.1443 4 30.4715 4.63301 29.2622 5.77651C28.0529 6.96085 27.3676 8.61484 27.4079 10.3301C27.3878 12.0658 28.0529 13.7402 29.2622 14.9654C30.5319 16.1701 32.225 16.844 33.9583 16.8031C35.873 16.8031 37.5459 16.1293 38.6745 14.9041L36.9614 13.6177L36.3567 13.9444Z" fill="#ABABAB"/>
<path d="M18.9909 4C19.4781 4.61069 19.8841 5.28049 20.2292 5.98968L10.8504 12.7073L6.91211 10.3039V7.42777L10.8301 9.81144L18.9909 4Z" fill="#ABABAB"/>
<path fill-rule="evenodd" clip-rule="evenodd" d="M18.439 10.5C18.439 14.8846 14.8846 18.439 10.5 18.439C6.1154 18.439 2.56098 14.8846 2.56098 10.5C2.56098 6.1154 6.1154 2.56098 10.5 2.56098C12.0565 2.56098 13.5083 3.00889 14.7337 3.78284L16.9545 2.21752C15.1739 0.827943 12.9336 0 10.5 0C4.70101 0 0 4.70101 0 10.5C0 16.299 4.70101 21 10.5 21C16.299 21 21 16.299 21 10.5C21 9.73865 20.919 8.99622 20.7651 8.28088L18.4192 9.93436C18.4323 10.1212 18.439 10.3098 18.439 10.5Z" fill="#ABABAB"/>
</svg>
