<svg width="131" height="30" viewBox="0 0 131 30" fill="none" xmlns="http://www.w3.org/2000/svg">
<path d="M37.7265 0H33.6133V24.3128H37.7265V0Z" fill="#B5B5B5"/>
<path d="M9.87068 13.3274C8.20911 11.4545 7.02393 10.4166 5.39141 8.86262C4.87435 8.32337 4.63615 7.95227 4.63615 7.07671C4.63615 5.95181 4.63615 5.69668 4.64196 5.12843V4.38044C4.64196 3.98034 4.9673 3.65563 5.36817 3.65563C5.41465 3.65563 5.45532 3.65563 5.49598 3.66723C5.51341 3.66723 5.53084 3.67303 5.54246 3.67883C5.54246 3.67883 5.54827 3.67883 5.55408 3.67883C5.86199 3.7658 6.08857 4.04413 6.08857 4.38044V8.76985H10.6608V4.43262C10.6608 1.2087 8.09873 0.0664062 5.30426 0.0664062C2.5098 0.0664062 -0.00579965 1.26088 1.00432e-05 4.45582V7.8479C1.00432e-05 8.97859 0.249827 9.57583 0.644887 10.2832C1.87073 12.2141 4.34566 13.9536 5.43208 15.2351C6.03047 15.9135 6.08276 16.4586 6.08276 17.0152V19.6941C6.08276 19.6941 6.08276 19.9318 6.08276 20.129V20.4537C6.08276 20.5349 6.06533 20.6102 6.04209 20.6856C6.04209 20.6856 6.04209 20.6856 6.04209 20.6914C5.99562 20.8364 5.91428 20.9581 5.79809 21.0509C5.72256 21.1089 5.65284 21.1437 5.5657 21.1669C5.49598 21.1901 5.42046 21.2017 5.34493 21.2017C4.99054 21.2017 4.69424 20.9465 4.63034 20.616C4.61872 20.5696 4.61872 20.5233 4.61872 20.4769V20.4653L4.6071 19.9724C4.6071 19.8216 4.6071 19.7579 4.6071 19.6361V15.2351H0.0406799V20.3725C0.0406799 23.5906 2.59694 24.7793 5.39722 24.7793C8.19749 24.7793 10.7596 23.5906 10.7596 20.2101V16.273C10.7596 14.6842 10.4633 13.9942 9.87068 13.3332" fill="#B5B5B5"/>
<path d="M21.5543 11.6728V9.06934C21.5543 6.15853 19.2885 4.70312 16.7148 4.70312C14.1411 4.70312 11.9102 6.15853 11.9102 9.06934V20.1733C11.9102 23.0899 14.112 24.5453 16.7148 24.5453C19.3175 24.5453 21.5543 23.0899 21.5543 20.1733V16.6363H17.441V20.3473C17.441 20.3879 17.441 20.4285 17.441 20.4633V20.6604C17.441 21.0199 17.1737 21.3098 16.8252 21.3504C16.8252 21.3504 16.8252 21.3504 16.8193 21.3504C16.7903 21.3504 16.7613 21.3562 16.7264 21.3562C16.5463 21.3562 16.4127 21.2924 16.3081 21.1939C16.1512 21.0663 16.0525 20.8749 16.0525 20.6546V20.585C16.0409 20.5038 16.035 20.4169 16.035 20.3415V8.90119C16.035 8.8548 16.035 8.80841 16.0409 8.76202V8.57068C16.0409 8.18798 16.3546 7.87487 16.738 7.87487C17.1215 7.87487 17.4352 8.18798 17.4352 8.57068V8.67505C17.4468 8.75043 17.4526 8.82581 17.4526 8.90119V11.667H21.5659L21.5543 11.6728Z" fill="#B5B5B5"/>
<path d="M29.5814 4.70833C28.4776 4.70833 27.0891 5.45632 26.9264 6.645H26.7695V0H22.6562V24.3128H26.7695V9.26009C26.7695 9.2137 26.7695 9.17311 26.7695 9.12673V8.94118C26.7695 8.64546 26.9554 8.39033 27.2169 8.29175C27.2285 8.29175 27.2401 8.28596 27.2517 8.28016C27.2575 8.28016 27.2633 8.28016 27.2691 8.28016C27.2808 8.28016 27.2924 8.28016 27.304 8.27436C27.3563 8.26276 27.4144 8.25117 27.4725 8.25117C27.8559 8.25117 28.1697 8.56428 28.1697 8.95278V9.10933C28.1697 9.16152 28.1755 9.2137 28.1755 9.27169V24.3244H32.2887V8.96437C32.2887 6.72618 32.19 4.71992 29.5698 4.71992" fill="#B5B5B5"/>
<path d="M44.5758 4.94434V19.9971C44.5758 20.0376 44.5758 20.0782 44.5758 20.1188V20.316C44.5758 20.7045 44.2621 21.0176 43.8728 21.0176C43.8205 21.0176 43.7683 21.0118 43.716 21.0002C43.6637 20.9886 43.6114 20.9712 43.5649 20.948C43.3267 20.8378 43.164 20.5943 43.164 20.316V20.113C43.164 20.0724 43.164 20.0376 43.164 19.9971V4.94434H39.0508V21.0814C39.0508 23.1224 39.7944 24.5488 41.9324 24.5488C43.164 24.5488 44.5584 23.4587 44.5584 22.1367H44.6223L44.5816 24.3111H48.6949V4.94434H44.5816H44.5758Z" fill="#B5B5B5"/>
<path d="M62.462 4.71094C60.8062 4.71094 60.3473 5.42414 59.6269 6.71719C59.1388 5.15162 58.4301 4.71094 56.9718 4.71094C55.3161 4.71094 54.8571 5.38935 54.2006 6.6824H54.1367V4.94867H50.0234V24.3154H54.1367V9.2627C54.1367 9.21052 54.1367 9.15833 54.1425 9.10035V8.96698C54.1425 8.56109 54.4679 8.23638 54.8745 8.23638C55.2812 8.23638 55.6066 8.56109 55.6066 8.96698V9.17573C55.6066 9.17573 55.6066 9.23371 55.6066 9.2627V24.3154H59.7198V9.2627C59.7198 9.21052 59.7198 9.15253 59.7256 9.09455V8.96698C59.7256 8.56109 60.051 8.23638 60.4577 8.23638C60.8643 8.23638 61.1897 8.56109 61.1897 8.96698V9.18153C61.1897 9.18153 61.1897 9.23371 61.1897 9.2627V24.3154H65.3029V8.31176C65.3029 6.85056 65.0415 4.71094 62.4504 4.71094" fill="#B5B5B5"/>
<path d="M73.3191 4.70832C72.0875 4.70832 71.0824 5.5259 70.7338 6.645H70.6699V0H66.5566V24.307H70.6699V22.266H70.7338C71.0824 23.6286 72.0875 24.5447 73.3191 24.5447C75.8754 24.5447 76.2007 22.3703 76.2007 20.2017V8.95277C76.2007 6.78416 75.8754 4.70832 73.3191 4.70832ZM72.0875 10.6285V20.3061C72.0875 20.6946 71.7737 21.0135 71.3787 21.0135C71.3729 21.0135 71.3671 21.0135 71.3555 21.0135C71.2218 21.0135 71.1056 20.9729 71.0185 20.9149C70.8093 20.7932 70.6699 20.567 70.6699 20.3061V18.6188V9.26009C70.6699 9.2311 70.6699 9.20211 70.6699 9.17311V8.94118C70.6699 8.55268 70.9836 8.23377 71.3729 8.23377C71.7621 8.23377 72.0817 8.54688 72.0817 8.94118V10.6285H72.0875Z" fill="#B5B5B5"/>
<path d="M87.0933 9.07514C87.0933 6.16433 84.8275 4.70312 82.2596 4.70312C79.6918 4.70312 77.4492 6.15853 77.4492 9.07514V20.1733C77.4492 23.0899 79.6511 24.5511 82.2596 24.5511C84.8682 24.5511 87.0933 23.0957 87.0933 20.1733V16.6363H82.9801V20.3415C82.9801 20.3415 82.9801 20.3937 82.9801 20.4169V20.6662C82.9801 21.0547 82.6663 21.3678 82.2713 21.3678C81.8762 21.3678 81.5683 21.0547 81.5683 20.6662V20.3589C81.5683 20.3589 81.5683 20.3473 81.5683 20.3415V15.2737H87.0991V9.06934L87.0933 9.07514ZM82.9801 12.386H81.5625V8.90699C81.5625 8.87219 81.5625 8.8374 81.5625 8.80261V8.59387C81.5625 8.20538 81.8762 7.88646 82.2655 7.88646C82.6547 7.88646 82.9684 8.20538 82.9684 8.59387V12.386H82.9801Z" fill="#B5B5B5"/>
<path d="M95.4512 4.70892C94.0278 4.70892 93.1389 5.42213 92.5463 6.61081H92.4824V4.94666H88.3691V24.3134H92.4824V9.26069C92.4824 9.26069 92.4824 9.2143 92.4824 9.19111V8.94178C92.4824 8.65186 92.6625 8.39673 92.9181 8.29235C92.953 8.27496 92.9937 8.26336 93.0401 8.25176H93.0692C93.0692 8.25176 93.0692 8.24597 93.075 8.24597C93.1099 8.24597 93.1447 8.23437 93.1854 8.23437C93.5746 8.23437 93.8884 8.54748 93.8884 8.93598V9.13892C93.8884 9.17951 93.8884 9.2143 93.8884 9.25489V15.378H98.0016V8.101C98.0016 5.99617 97.4846 4.70312 95.4395 4.70312" fill="#B5B5B5"/>
<path d="M119.484 9.07715C119.484 6.16634 117.218 4.71094 114.65 4.71094C112.082 4.71094 109.84 6.17214 109.84 9.07715V20.1753C109.84 23.092 112.042 24.5532 114.65 24.5532C117.259 24.5532 119.484 23.0978 119.484 20.1753V16.6383H115.371V18.9635V20.6624C115.371 21.0509 115.051 21.3698 114.656 21.3698C114.261 21.3698 113.947 21.0509 113.947 20.6624V18.9635V15.2815H119.478V9.07715H119.484ZM115.371 10.2832V12.3881H113.953V10.2832V8.59589C113.953 8.20739 114.273 7.88848 114.662 7.88848C115.051 7.88848 115.371 8.20159 115.371 8.59589V10.2832Z" fill="#B5B5B5"/>
<path d="M127.697 4.71094C126.274 4.71094 125.385 5.42414 124.787 6.61282H124.723V4.94867H120.609V24.3154H124.723V8.93799C124.723 8.5495 125.036 8.23638 125.426 8.23638C125.815 8.23638 126.134 8.55529 126.134 8.93799V9.18732C126.134 9.18732 126.134 9.23951 126.134 9.2627V15.3858H130.248V8.10882C130.248 6.00399 129.731 4.71094 127.691 4.71094" fill="#B5B5B5"/>
<path d="M104.615 4.94867V6.75198H104.458C103.987 5.66188 102.907 4.71094 101.675 4.71094C99.7986 4.71094 99.084 6.3055 99.084 8.1784V19.8506C99.084 21.7061 99.7986 23.1209 101.675 23.1209C102.907 23.1209 103.987 22.344 104.458 21.2654H104.615V25.5853C104.615 25.6201 104.615 25.6491 104.615 25.6839V25.9158C104.615 26.3043 104.301 26.6174 103.912 26.6174C103.523 26.6174 103.209 26.3043 103.209 25.9158V25.7186C103.209 25.6781 103.209 25.6375 103.209 25.5911V24.1589H99.0956V25.2258C99.0956 28.4149 101.071 29.6036 103.935 29.6036C106.799 29.6036 108.74 28.4149 108.74 25.2258V4.94867H104.626H104.615ZM104.615 19.0504C104.615 19.4389 104.295 19.7579 103.906 19.7579C103.517 19.7579 103.197 19.4389 103.197 19.0504V17.3573V8.93799C103.197 8.54949 103.517 8.23638 103.9 8.23638C104.284 8.23638 104.609 8.54949 104.609 8.93799V17.3573V19.0504H104.615Z" fill="#B5B5B5"/>
</svg>
