<svg width="91" height="29" viewBox="0 0 91 29" fill="none" xmlns="http://www.w3.org/2000/svg">
<path d="M5.9033 24.6461C2.07781 24.6461 0 21.8017 0 18.2378C0 14.6376 2.44574 11.6841 6.46149 11.6841C7.52749 11.6841 8.45236 11.8283 9.25627 12.2608V14.583C8.19027 13.9349 7.33596 13.8076 6.5497 13.8076C3.82549 13.8076 2.81997 15.8792 2.81997 18.0573C2.81997 20.4873 4.08632 22.4134 6.30399 22.4134C7.28304 22.4134 8.07057 22.1342 9.01308 21.6121L9.69224 23.494C8.27973 24.4123 7.07262 24.6461 5.9033 24.6461ZM48.9199 24.6461C46.0898 24.6461 44.6408 22.5044 44.6408 19.9483C44.6408 17.0858 46.5623 15.1947 49.129 15.1947C50.2643 15.1947 50.8578 15.4285 51.3291 15.7169V17.7703C50.7003 17.3014 50.1938 17.139 49.4957 17.139C48.0466 17.139 47.113 18.2378 47.113 19.8223C47.113 21.2445 47.8362 22.6303 49.4604 22.6303C49.914 22.6303 50.5151 22.4277 51.1602 22.0861L51.765 23.7824C51.033 24.2863 49.8107 24.6461 48.9199 24.6461ZM56.7913 17.4274V24.4668H54.2763V17.4274H51.8318V15.3753H59.5521L59.0065 17.4274H56.7913ZM68.9533 16.4377C68.9533 19.6054 68.831 21.2627 68.2728 22.0186C67.9931 22.3966 67.5571 22.6498 67.1023 22.72L67.8003 24.6461C68.3762 24.6279 69.2683 24.3759 69.8794 23.746C70.6833 22.9356 70.9441 21.9095 71.0664 20.8289C71.1709 19.9107 71.2415 18.8314 71.2415 17.8768V17.4261H73.2084V24.4655H75.7235V15.374H68.9533V16.4377ZM40.436 15.1947C39.4582 15.1947 38.7072 15.6818 38.0608 16.2039L37.7811 15.3753H35.668V28.8957L38.183 28.1035V24.2681C38.6379 24.5201 39.2314 24.6461 39.8778 24.6461C42.4798 24.6461 44.0511 22.3602 44.0511 19.66C44.0511 16.7793 42.4621 15.1947 40.436 15.1947ZM39.2667 22.7745C38.8118 22.7745 38.4628 22.6122 38.183 22.4147V18.1118C38.4804 17.6443 39.2667 17.0858 39.9295 17.0858C40.9425 17.0858 41.536 17.7521 41.536 19.6249C41.536 21.1731 40.9778 22.7745 39.2667 22.7745ZM63.1659 15.1947C61.9777 15.1947 60.8273 15.3844 59.6201 16.1896L60.3825 17.7586C60.9747 17.4144 61.737 17.1468 62.6291 17.1468C63.5011 17.1468 64.281 17.5443 64.281 18.5002V18.6547L62.7564 18.7145C60.5311 18.7911 59.0279 19.786 59.0279 21.6991C59.0279 23.4992 60.288 24.6461 61.9588 24.6461C63.0928 24.6461 63.8715 24.2071 64.4461 23.6707L64.8367 24.4668H66.8049V18.5625C66.8049 16.1701 65.5058 15.1947 63.1659 15.1947ZM64.281 22.216C64.0404 22.4069 63.5376 22.6368 62.8698 22.6368C62.0142 22.6368 61.5329 22.1965 61.5329 21.5095C61.5329 20.8198 62.052 20.438 63.1294 20.399L64.281 20.3613V22.216ZM80.6087 18.3274H79.3158V14.9791L76.8008 15.674V24.4668H80.0152C82.3551 24.4668 84.5387 23.8174 84.5387 21.316C84.5387 19.1924 82.7747 18.3274 80.6087 18.3274ZM80.1891 22.6732H79.3158V20.1354H80.155C81.0446 20.1354 82.0237 20.2795 82.0237 21.3588C82.0237 22.4212 81.1845 22.6732 80.1891 22.6732ZM24.3692 19.5158V19.4431C25.1895 19.2639 25.8712 18.7054 25.8712 17.517C25.8712 16.0987 24.7157 15.5818 23.5804 15.4246C23.2327 15.3766 22.4703 15.3753 22.0457 15.3753H18.4508V24.4668H21.4699C21.8038 24.4668 22.3015 24.4655 22.6896 24.4538C24.2772 24.3759 26.2379 23.7915 26.2379 21.6757C26.2379 20.3795 25.5562 19.7314 24.3692 19.5158ZM21.015 17.1066H22.0457C23.0751 17.1066 23.4607 17.4313 23.4607 17.9897C23.4607 18.6911 22.832 18.9067 21.7836 18.9067H21.015V17.1066ZM21.9928 22.742H20.9621V20.5094H21.8705C23.0751 20.5094 23.7215 20.7977 23.7215 21.6082C23.7215 22.4719 22.866 22.742 21.9928 22.742ZM17.6229 19.8405C17.6229 17.0312 15.9458 15.1947 13.5354 15.1947C10.8981 15.1947 9.41377 17.391 9.41377 19.9483C9.41377 22.342 10.7066 24.6461 13.8504 24.6461C14.9151 24.6461 16.1021 24.3954 17.3256 23.6018L16.7661 21.9641C15.7707 22.4511 15.1243 22.6122 14.2687 22.6122C13.0981 22.6122 11.9805 21.8563 11.9276 20.6315H17.6229V19.8405ZM11.8759 18.8508C11.8759 18.0222 12.453 17.0858 13.4648 17.0858C14.5321 17.0858 15.0021 17.9858 15.055 18.8508H11.8759ZM34.9485 19.8405C34.9485 17.0312 33.2714 15.1947 30.8609 15.1947C28.2237 15.1947 26.7393 17.391 26.7393 19.9483C26.7393 22.342 28.0322 24.6461 31.176 24.6461C32.2407 24.6461 33.4289 24.3954 34.6511 23.6018L34.0917 21.9641C33.0975 22.4511 32.4499 22.6122 31.5943 22.6122C30.425 22.6122 29.3073 21.8563 29.2544 20.6315H34.9485V19.8405ZM29.2015 18.8508C29.2015 18.0222 29.7786 17.0858 30.7904 17.0858C31.8564 17.0858 32.3276 17.9858 32.3806 18.8508H29.2015Z" fill="#AEAFB0"/>
<path d="M89.0156 8.95273C88.872 9.05534 88.7246 9.13587 88.5746 9.18522C88.0769 9.34757 87.4633 9.19821 86.9126 8.96443C86.5195 8.79688 86.1075 8.57998 85.6753 8.30594C85.9008 7.73836 86.1125 7.09027 86.2927 6.37333C86.5724 5.26026 86.706 4.27967 86.7337 3.41857C86.7514 2.88607 86.7262 2.39902 86.6695 1.95613C86.5913 1.347 86.4099 0.727472 86.0243 0.362511C85.9021 0.249516 85.7534 0.154704 85.5871 0.0767759C86.3746 -0.0115421 87.0739 -0.0180354 87.6913 0.0287212C88.3403 0.0858681 89.0005 0.250815 89.3861 0.640453C89.7717 1.03009 89.9418 1.70936 90.0098 2.37564C90.0728 3.01205 90.0779 3.73288 90.0048 4.54853C89.9304 5.35248 89.7792 6.24605 89.531 7.23703H89.5323C89.376 7.85006 89.1971 8.43581 89.0156 8.95273ZM79.5061 8.4488C79.491 8.26957 79.4973 8.09683 79.5313 7.93838C79.6435 7.41237 80.0757 6.9409 80.5482 6.56425C80.8859 6.298 81.2727 6.03824 81.72 5.78887C82.0842 6.27462 82.5227 6.78635 83.0355 7.30586C83.8306 8.11242 84.5879 8.72155 85.2973 9.17613C85.7358 9.45797 86.1566 9.67876 86.5573 9.8502C87.1079 10.084 87.7191 10.2333 88.2193 10.071C88.3755 10.0177 88.5293 9.93332 88.678 9.82423C88.3579 10.571 88.0139 11.1996 87.6661 11.727C87.2932 12.2776 86.8257 12.7855 86.3053 12.9335C85.7849 13.0829 85.1297 12.8959 84.5362 12.6231C83.9704 12.3621 83.3618 12.0049 82.7129 11.5321C82.0753 11.0646 81.3987 10.4827 80.6906 9.76448C80.2533 9.32159 79.8488 8.86961 79.5061 8.4488ZM84.671 0.210553C84.8298 0.287181 84.9709 0.379396 85.0868 0.488494C85.4724 0.852157 85.6526 1.47428 85.7332 2.08341C85.7887 2.51721 85.8126 2.99387 85.7988 3.51728C85.2078 3.59911 84.5589 3.73418 83.8659 3.9329C82.791 4.23941 81.9002 4.61087 81.1631 5.01739C80.7069 5.26806 80.31 5.53301 79.9673 5.80576C79.4948 6.17981 79.0638 6.65127 78.9504 7.17858C78.9164 7.34483 78.9101 7.52406 78.929 7.71109C78.4615 7.0526 78.1049 6.43048 77.8366 5.85641C77.5593 5.24857 77.3678 4.5771 77.5026 4.0381C77.6375 3.4991 78.1226 3.00686 78.648 2.61462C79.1508 2.23927 79.7543 1.87431 80.4763 1.53272C81.1883 1.19764 82.0161 0.884626 82.9725 0.611879C83.5647 0.440439 84.1468 0.306663 84.671 0.210553Z" fill="#AEAFB0"/>
</svg>
