<svg width="69" height="13" viewBox="0 0 69 13" fill="none" xmlns="http://www.w3.org/2000/svg">
<path d="M15.3837 13H19.8962C21.3558 13 21.6107 12.1364 21.6927 11.3603C21.7685 10.6416 22.8003 0 22.8003 0H18.3121C17.0315 0 16.5854 0.661341 16.4913 1.74354C16.4276 2.28463 15.3837 13 15.3837 13Z" fill="#B5B5B5"/>
<path d="M46.5722 9.95018H45.0003L45.9683 0H39.8141C39.8141 0 38.7641 11.0078 38.7004 11.5543C38.7028 11.9364 38.8724 12.3021 39.1723 12.5723C39.4723 12.8424 39.8785 12.9951 40.3027 12.9973H50.9634C51.3614 12.9964 51.7449 12.8626 52.0397 12.6218C52.3345 12.381 52.5198 12.0503 52.5596 11.6937C52.6233 11.0542 53.6915 0 53.6915 0H47.5373L46.5722 9.95018Z" fill="#B5B5B5"/>
<path d="M2.80302 0C1.70448 0 1.10362 0.513769 0.982236 1.72167C0.933682 2.32563 0.548283 6.23082 0.499729 6.79378C0.451175 7.35674 0.681807 7.85138 1.46171 7.85138H8.13791L7.9012 10.2945H6.31105L6.4203 9.16859H0.266062C0.266062 9.16859 0.0930877 11.1144 0.0141871 11.7866C-0.0647134 12.4589 0.168954 13 1.13397 13H12.0587C13.7914 13 13.8794 11.8549 13.9796 10.9886C14.0737 10.1852 14.4257 6.40299 14.4742 5.92474C14.4879 5.82315 14.4765 5.72009 14.4408 5.62293C14.4051 5.52578 14.346 5.43694 14.2677 5.36277C14.1894 5.2886 14.0938 5.23094 13.9879 5.19392C13.882 5.1569 13.7682 5.14143 13.6549 5.14862H6.81177L7.04847 2.70275H8.64165L8.53241 3.82594H14.6866C14.6866 3.82594 14.8687 1.63969 14.9507 1.03847C15.0326 0.43725 14.6684 0 13.9583 0H2.80302Z" fill="#B5B5B5"/>
<path d="M24.3647 0L23.1023 12.9973H35.4138C36.4517 12.9973 37.0374 12.4179 37.1314 11.415C37.1709 11.0078 37.3074 9.63044 37.4167 8.49632C37.4527 8.30473 37.4293 8.1079 37.3489 7.92755C37.2686 7.74719 37.1345 7.59033 36.9615 7.47425L35.5049 6.50956C35.5049 6.50956 36.8978 5.68972 37.2619 5.47929C37.6261 5.26887 37.7535 5.00378 37.799 4.50368C37.8992 3.36956 38.0327 2.07694 38.0631 1.71894C38.145 0.781585 37.5593 0 36.306 0H24.3647ZM31.8269 2.70275L31.5902 5.16229H30.0182L30.2549 2.71642L31.8269 2.70275ZM29.7542 7.85138H31.3262L31.0895 10.3109H29.5175L29.7542 7.85138Z" fill="#B5B5B5"/>
<path d="M67.4221 0H55.2653L54.0181 13H60.1723L60.5638 8.9773H62.1266L61.7352 12.9973H67.8894C67.8894 12.9973 68.1595 10.1387 68.2081 9.71789C68.2511 9.50274 68.2281 9.28109 68.1414 9.07688C68.0548 8.87266 67.9078 8.69365 67.7164 8.55918L66.3114 7.62729C66.3114 7.62729 67.5617 6.90036 67.9562 6.65987C68.3507 6.41938 68.5631 6.15976 68.6268 5.4219C68.6906 4.68404 68.9576 2.04688 68.9971 1.55224C69.0102 1.3565 68.9795 1.16039 68.9068 0.975531C68.8342 0.790671 68.7211 0.620826 68.5742 0.476065C68.4273 0.331305 68.2497 0.214576 68.0518 0.1328C67.8539 0.0510232 67.6397 0.00586426 67.4221 0ZM60.8096 6.28547L61.1131 3.06075H62.6789L62.3755 6.28547H60.8096Z" fill="#B5B5B5"/>
</svg>
