<svg width="84" height="20" viewBox="0 0 84 20" fill="none" xmlns="http://www.w3.org/2000/svg">
<path d="M0.761719 15.1537V0.749023H19.9679L12.9869 8.6561H6.58487L0.761719 15.1537Z" fill="#ABABAB"/>
<path d="M19.9679 5.84766V19.9522H0.761719L7.74269 12.2251H14.1447L19.9679 5.84766Z" fill="#ABABAB"/>
<path d="M78.7773 13.8911V7.44629H83.9403V8.97962H80.2148L80.6341 8.57233V13.8911H78.7773Z" fill="#ABABAB"/>
<path d="M74.2586 13.9909C73.7155 13.9909 73.2404 13.8711 72.8331 13.6316C72.4258 13.392 72.1063 13.0286 71.8747 12.5415C71.6511 12.0463 71.5393 11.4234 71.5393 10.6727C71.5393 9.91403 71.6471 9.29112 71.8628 8.80397C72.0784 8.31682 72.3898 7.95345 72.7971 7.71387C73.2044 7.47428 73.6916 7.35449 74.2586 7.35449C74.8655 7.35449 75.4086 7.49425 75.8877 7.77376C76.3749 8.04529 76.7582 8.42862 77.0377 8.92376C77.3252 9.41889 77.469 10.0019 77.469 10.6727C77.469 11.3515 77.3252 11.9385 77.0377 12.4336C76.7582 12.9288 76.3749 13.3121 75.8877 13.5836C75.4086 13.8552 74.8655 13.9909 74.2586 13.9909ZM70.4492 16.219V7.45032H72.2341V8.76803L72.1982 10.6847L72.318 12.5894V16.219H70.4492ZM73.9351 12.4576C74.2466 12.4576 74.5221 12.3857 74.7617 12.242C75.0093 12.0982 75.2049 11.8946 75.3487 11.631C75.5004 11.3595 75.5763 11.0401 75.5763 10.6727C75.5763 10.2974 75.5004 9.97792 75.3487 9.71438C75.2049 9.45084 75.0093 9.24719 74.7617 9.10344C74.5221 8.95969 74.2466 8.88782 73.9351 8.88782C73.6237 8.88782 73.3442 8.95969 73.0966 9.10344C72.849 9.24719 72.6534 9.45084 72.5096 9.71438C72.3659 9.97792 72.294 10.2974 72.294 10.6727C72.294 11.0401 72.3659 11.3595 72.5096 11.631C72.6534 11.8946 72.849 12.0982 73.0966 12.242C73.3442 12.3857 73.6237 12.4576 73.9351 12.4576Z" fill="#ABABAB"/>
<path d="M65.6396 13.9909C64.9528 13.9909 64.3418 13.8472 63.8068 13.5597C63.2797 13.2722 62.8604 12.8809 62.549 12.3857C62.2455 11.8826 62.0938 11.3116 62.0938 10.6727C62.0938 10.0258 62.2455 9.45483 62.549 8.95969C62.8604 8.45657 63.2797 8.06525 63.8068 7.78574C64.3418 7.49824 64.9528 7.35449 65.6396 7.35449C66.3184 7.35449 66.9253 7.49824 67.4604 7.78574C67.9955 8.06525 68.4147 8.45258 68.7182 8.94772C69.0217 9.44285 69.1734 10.0179 69.1734 10.6727C69.1734 11.3116 69.0217 11.8826 68.7182 12.3857C68.4147 12.8809 67.9955 13.2722 67.4604 13.5597C66.9253 13.8472 66.3184 13.9909 65.6396 13.9909ZM65.6396 12.4576C65.951 12.4576 66.2305 12.3857 66.4781 12.242C66.7257 12.0982 66.9213 11.8946 67.0651 11.631C67.2088 11.3595 67.2807 11.0401 67.2807 10.6727C67.2807 10.2974 67.2088 9.97792 67.0651 9.71438C66.9213 9.45084 66.7257 9.24719 66.4781 9.10344C66.2305 8.95969 65.951 8.88782 65.6396 8.88782C65.3281 8.88782 65.0486 8.95969 64.801 9.10344C64.5535 9.24719 64.3538 9.45084 64.2021 9.71438C64.0583 9.97792 63.9865 10.2974 63.9865 10.6727C63.9865 11.0401 64.0583 11.3595 64.2021 11.631C64.3538 11.8946 64.5535 12.0982 64.801 12.242C65.0486 12.3857 65.3281 12.4576 65.6396 12.4576Z" fill="#ABABAB"/>
<path d="M57.603 13.8903V6.6429L58.0462 7.08613H54.9316V5.50488H62.203V7.08613H59.0884L59.5196 6.6429V13.8903H57.603Z" fill="#ABABAB"/>
<path d="M51.1914 11.2679V9.77051H54.5815V11.2679H51.1914Z" fill="#ABABAB"/>
<path d="M48.4857 13.8903L45.8742 9.8533L47.4435 8.90695L50.6898 13.8903H48.4857ZM43.0352 13.8903V5.50488H44.9638V13.8903H43.0352ZM44.4008 10.5122V8.89497H47.3237V10.5122H44.4008ZM47.6232 9.9132L45.8383 9.69758L48.5575 5.50488H50.606L47.6232 9.9132Z" fill="#ABABAB"/>
<path d="M36.0892 10.3955V8.91008H40.234V10.3955H36.0892ZM37.1913 5.36426C37.8222 5.36426 38.4012 5.47207 38.9282 5.68769C39.4553 5.89533 39.9145 6.19481 40.3058 6.58613C40.6972 6.97745 41.0006 7.43665 41.2162 7.96373C41.4319 8.49081 41.5397 9.0698 41.5397 9.7007C41.5397 10.3316 41.4319 10.9106 41.2162 11.4377C41.0006 11.9648 40.6972 12.424 40.3058 12.8153C39.9145 13.2066 39.4553 13.5101 38.9282 13.7257C38.4012 13.9333 37.8222 14.0371 37.1913 14.0371C36.4486 14.0371 35.7777 13.9094 35.1788 13.6538C34.5878 13.3983 34.0927 13.0269 33.6934 12.5398L34.9272 11.3898C35.2227 11.7252 35.5501 11.9767 35.9095 12.1444C36.2689 12.3042 36.6642 12.384 37.0954 12.384C37.4548 12.384 37.7862 12.3201 38.0897 12.1924C38.4012 12.0566 38.6647 11.8729 38.8803 11.6413C39.1039 11.4017 39.2716 11.1182 39.3834 10.7908C39.5032 10.4634 39.5631 10.1 39.5631 9.7007C39.5631 9.3014 39.5032 8.93803 39.3834 8.6106C39.2716 8.28317 39.1039 8.00366 38.8803 7.77206C38.6647 7.53248 38.4012 7.3488 38.0897 7.22102C37.7862 7.08526 37.4548 7.01738 37.0954 7.01738C36.6642 7.01738 36.2689 7.10123 35.9095 7.26894C35.5501 7.42866 35.2227 7.67623 34.9272 8.01164L33.6934 6.86165C34.0927 6.3745 34.5878 6.00314 35.1788 5.74759C35.7777 5.49204 36.4486 5.36426 37.1913 5.36426Z" fill="#ABABAB"/>
<path d="M28.2143 13.8903V6.6429L28.6575 7.08613H25.543V5.50488H32.8143V7.08613H29.6997L30.131 6.6429V13.8903H28.2143Z" fill="#ABABAB"/>
</svg>
