<svg width="12" height="11" viewBox="0 0 12 11" fill="none" xmlns="http://www.w3.org/2000/svg">
<path fill-rule="evenodd" clip-rule="evenodd" d="M10.5102 0.0700154C11.1448 -0.197192 11.8252 0.339434 11.7131 1.01884L10.3896 9.04358C10.262 9.81732 9.41216 10.2613 8.7023 9.87571C8.10829 9.55307 7.22699 9.05648 6.43273 8.53748C6.03612 8.27831 4.82168 7.44729 4.97095 6.85573C5.09858 6.34993 7.14019 4.44948 8.30686 3.31928C8.76513 2.87532 8.55641 2.61884 8.01519 3.02761C6.67259 4.04162 4.51707 5.58331 3.80426 6.01719C3.17535 6.39998 2.84698 6.46531 2.4553 6.39998C1.74006 6.2808 1.07694 6.09623 0.535564 5.87183C-0.196152 5.56849 -0.16051 4.56294 0.535069 4.27011L10.5102 0.0700154Z" fill="currentColor"/>
</svg>
