<svg width="99" height="13" viewBox="0 0 99 13" fill="none" xmlns="http://www.w3.org/2000/svg">
<path d="M51.9087 2.19141V8.10258C51.8535 8.93994 51.6216 9.75817 50.5801 9.75817V11.9261C54.1205 11.9261 54.2346 10.5191 54.2346 8.10258V4.35935H58.5553V11.9261H60.9622V2.19141H51.9087Z" fill="#ABABAB"/>
<path d="M38.7142 5.29611C38.7142 2.22964 36.0864 2.22964 33.9003 2.19141H28.873V11.9261H31.28V8.40464H33.8967C36.0827 8.36641 38.7105 8.36258 38.7105 5.29994L38.7142 5.29611ZM33.812 6.53494H31.2836V4.06111H33.812C35.5712 4.06111 36.2888 4.06111 36.2888 5.29994C36.2888 6.53876 35.5712 6.53876 33.812 6.53876V6.53494Z" fill="#ABABAB"/>
<path d="M22.5535 6.77199L19.8963 2.19141H16.8711L21.1439 9.25729L19.6828 11.9261H22.5682L28.0224 2.19141H25.137L22.5535 6.77199Z" fill="#ABABAB"/>
<path d="M42.1521 2.19141L37.8535 11.9261H40.4665L41.2615 10.0564H46.2262L47.0543 11.9261H49.8292L45.3503 2.19141H42.1521ZM42.0564 8.1867L43.6941 4.33258L45.4018 8.1867H42.0564Z" fill="#ABABAB"/>
<path d="M95.2395 2.19141L92.3542 9.93788L89.4725 2.19141H85.6523V11.9261H88.0593V4.87552L90.8011 11.9261H93.8594L96.6454 4.75699V11.9261H99.056V2.19141H95.2395Z" fill="#ABABAB"/>
<path d="M76.3522 8.92464V2.19141H73.9453V11.9261H76.5951L81.5782 5.29611V11.9261H83.9852V2.19141H81.3022L76.3522 8.92464Z" fill="#ABABAB"/>
<path d="M70.0191 2.19141L67.5643 5.19288L65.1942 2.19141H62.0586L65.9928 7.11611L62.0586 11.9261H64.7599L67.3214 8.85582L69.7467 11.9261H72.8823L68.9113 6.9517L72.8823 2.19141H70.0191Z" fill="#ABABAB"/>
<path d="M10.5855 9.7207C9.59918 9.7207 8.79688 10.5542 8.79688 11.5789C8.79688 12.6036 9.59918 13.4372 10.5855 13.4372C11.5718 13.4372 12.3741 12.6036 12.3741 11.5789C12.3741 10.5542 11.5718 9.7207 10.5855 9.7207Z" fill="#ABABAB"/>
<path d="M7.83513 3.13611C8.21315 2.18796 7.77976 1.10095 6.86713 0.70821C5.95449 0.315472 4.90821 0.765725 4.53018 1.71388C4.15215 2.66203 4.58554 3.74904 5.49818 4.14178C6.41081 4.53452 7.4571 4.08426 7.83513 3.13611Z" fill="#B5B5B5" fill-opacity="0.8"/>
<path d="M3.42888 7.70838C3.8069 6.76022 3.37351 5.67321 2.46088 5.28048C1.54824 4.88774 0.501956 5.33799 0.12393 6.28614C-0.254096 7.2343 0.17929 8.32131 1.09193 8.71405C2.00456 9.10678 3.05085 8.65653 3.42888 7.70838Z" fill="#B5B5B5" fill-opacity="0.8"/>
<path d="M10.5855 5.14355C9.59918 5.14355 8.79688 5.97708 8.79688 7.00179C8.79688 8.02649 9.59918 8.86002 10.5855 8.86002C11.5718 8.86002 12.3741 8.02649 12.3741 7.00179C12.3741 5.97708 11.5718 5.14355 10.5855 5.14355Z" fill="#B5B5B5" fill-opacity="0.8"/>
<path d="M6.18316 9.7207C5.19684 9.7207 4.39453 10.5542 4.39453 11.5789C4.39453 12.6036 5.19684 13.4372 6.18316 13.4372C7.16948 13.4372 7.9681 12.6036 7.9681 11.5789C7.9681 10.5542 7.16579 9.7207 6.18316 9.7207Z" fill="#B5B5B5" fill-opacity="0.8"/>
<path d="M3.56905 11.4989C3.62793 10.9521 3.69418 10.3289 4.33823 9.66356C4.89395 9.0862 5.47544 8.99444 6.04221 8.90267C6.55009 8.82238 7.02853 8.74591 7.4444 8.31385C7.86027 7.88179 7.93388 7.38091 8.01116 6.85709C8.09581 6.27209 8.18782 5.66415 8.74354 5.08679C9.3876 4.41768 9.9838 4.34885 10.5101 4.28768C10.9775 4.23415 11.4191 4.18444 11.8497 3.73709C12.2435 3.32797 12.4275 2.76209 12.3576 2.18474C12.3098 1.78326 12.1294 1.40474 11.8497 1.11415C11.57 0.823559 11.202 0.636206 10.8192 0.5865C10.2635 0.513853 9.71514 0.70503 9.32135 1.11415C8.89076 1.5615 8.84291 2.02032 8.79139 2.50591C8.7325 3.05268 8.66626 3.67591 8.02221 4.34121C7.46648 4.91856 6.70098 5.2015 5.91708 5.12503C5.32455 5.06385 4.76514 4.78473 4.33823 4.34121C3.69418 3.67209 3.62793 3.05268 3.56905 2.50591C3.51752 2.02032 3.466 1.5615 3.03908 1.11415C2.7005 0.758559 2.24782 0.567383 1.77306 0.567383C1.69578 0.567383 1.61849 0.571206 1.5412 0.582677C1.15845 0.632383 0.790423 0.819736 0.510721 1.11032C0.231018 1.40091 0.0506837 1.78326 0.0028398 2.18091C-0.0670858 2.75826 0.116929 3.32797 0.510721 3.73326C0.941315 4.18062 1.38295 4.23032 1.85035 4.28385C2.37663 4.34503 2.97284 4.41385 3.61689 5.08297C4.04381 5.5265 4.31247 6.10768 4.37135 6.72326C4.44864 7.53768 4.17262 8.33297 3.61689 8.91032C2.97284 9.57944 2.37663 9.64826 1.85035 9.70944C1.38295 9.76297 0.941315 9.81268 0.510721 10.26C0.116929 10.673 -0.0670858 11.2389 0.0028398 11.82C0.0506837 12.2215 0.231018 12.6 0.510721 12.8906C0.790423 13.1812 1.15477 13.3686 1.5412 13.4183C2.10061 13.4909 2.64529 13.2997 3.0354 12.8906C3.466 12.4433 3.51384 11.9844 3.56537 11.4989H3.56905Z" fill="#ABABAB"/>
</svg>
