<svg width="33" height="34" viewBox="0 0 33 34" fill="none" xmlns="http://www.w3.org/2000/svg">
<path fill-rule="evenodd" clip-rule="evenodd" d="M2.32557 2.39294C0.00585938 4.78295 0.00585938 8.62961 0.00585938 16.3229V17.6829C0.00585938 25.3763 0.00585938 29.2229 2.32557 31.6129C4.64529 34.0029 8.37881 34.0029 15.8459 34.0029H17.1659C24.6329 34.0029 28.3664 34.0029 30.6861 31.6129C33.0059 29.2229 33.0059 25.3763 33.0059 17.683V17.6829V16.3229V16.3229C33.0059 8.62959 33.0059 4.78294 30.6861 2.39294C28.3664 0.00292969 24.6329 0.00292969 17.1659 0.00292969H15.8459C8.37881 0.00292969 4.64529 0.00292969 2.32557 2.39294ZM5.57434 10.3445C5.75309 19.1845 10.0431 24.497 17.5643 24.497H17.9906V19.4394C20.7544 19.7228 22.8442 21.8053 23.683 24.497H27.5881C26.5156 20.4736 23.6967 18.2494 21.9367 17.3994C23.6967 16.3511 26.1717 13.8011 26.763 10.3445H23.2154C22.4454 13.1495 20.1631 15.6994 17.9906 15.9403V10.3445H14.443V20.1478C12.243 19.5811 9.46558 16.8328 9.34183 10.3445H5.57434Z" fill="#B5B5B5"/>
</svg>
