<svg viewBox="0 0 154 24" fill="none" xmlns="http://www.w3.org/2000/svg"><path d="M10.52 18.28c-1.96 0-3.63-.31-5.02-.93a7.2 7.2 0 0 1-3.16-2.56 6.7 6.7 0 0 1-1.04-3.68 6.6 6.6 0 0 1 1.04-3.67 7.03 7.03 0 0 1 3.16-2.56 12.1 12.1 0 0 1 5.02-.94c1.95 0 3.63.31 5.02.94a6.9 6.9 0 0 1 3.13 2.56 6.51 6.51 0 0 1 1.07 3.67 6.6 6.6 0 0 1-1.07 3.68 7.07 7.07 0 0 1-3.13 2.56c-1.4.62-3.07.93-5.02.93Zm0-2.23c1.34 0 2.48-.22 3.43-.65a4.9 4.9 0 0 0 2.16-1.77c.5-.75.75-1.6.75-2.52a4.4 4.4 0 0 0-.75-2.52 4.9 4.9 0 0 0-2.16-1.78 8.18 8.18 0 0 0-3.43-.65 8.4 8.4 0 0 0-3.45.65 4.53 4.53 0 0 0-2.9 4.3 4.53 4.53 0 0 0 2.9 4.29c.96.43 2.1.65 3.45.65Zm11.51 1.95v-11h2.76v1.86h.14c.33-.52.88-1 1.65-1.44a5.4 5.4 0 0 1 2.68-.65c1.47 0 2.6.38 3.4 1.15a4.2 4.2 0 0 1 1.21 3.19v6.89h-2.76v-6.44a2.6 2.6 0 0 0-.75-1.99c-.5-.47-1.21-.7-2.14-.7a3.79 3.79 0 0 0-3.43 2.1v7.03h-2.76Zm17.09 0h-2.76v-14.18h2.76v14.18Zm6.91 3.74h-2.85l2.38-4.94-5.45-9.8h2.99l3.76 6.92h.14l3.27-6.91h2.9l-7.14 14.73Z" fill="currentColor"/><g clip-path="url(#a)"><path d="m69 2 2.05 4.36 4.38-2.02-1.23 4.66 4.65 1.26-3.94 2.78 2.75 3.96-4.8-.4-.44 4.8-3.42-3.4-3.42 3.4-.44-4.8-4.8.4 2.75-3.96-3.94-2.78 4.65-1.26-1.23-4.66 4.38 2.02 2.05-4.36Z" fill="currentColor"/></g><path d="M90.8 18.24a6.3 6.3 0 0 1-3.04-.71 5.2 5.2 0 0 1-2.03-2.03 6.15 6.15 0 0 1-.7-3c0-1.12.23-2.12.7-2.99a5.06 5.06 0 0 1 2.03-2 6.06 6.06 0 0 1 3.02-.74 6.24 6.24 0 0 1 4.49 1.83h.13v-4.78h2.76v14.18h-2.76v-1.6h-.13c-.4.46-1 .88-1.82 1.27-.8.38-1.68.57-2.65.57Zm1.02-2.13c.77 0 1.48-.17 2.13-.51a4.27 4.27 0 0 0 1.45-1.18v-3.83a4.1 4.1 0 0 0-1.45-1.16 4.37 4.37 0 0 0-2.15-.53 4.1 4.1 0 0 0-2.9.99 3.43 3.43 0 0 0-1.04 2.61c0 1.1.35 1.97 1.04 2.62.71.66 1.69.99 2.92.99Zm10.28-9.93c-.56 0-1-.14-1.34-.41a1.37 1.37 0 0 1-.47-1.08c0-.45.16-.8.47-1.07.33-.27.78-.41 1.34-.41.57 0 1 .14 1.32.41.33.26.5.62.5 1.07 0 .44-.17.8-.5 1.08-.31.27-.75.41-1.32.41Zm1.38 11.82h-2.76v-11h2.76v11Zm8.52 3.98a12.74 12.74 0 0 1-5.13-1.05v-2.36a9.85 9.85 0 0 0 4.75 1.16c1.44 0 2.55-.33 3.31-1a3.3 3.3 0 0 0 1.16-2.66v-.51h-.14a6.2 6.2 0 0 1-4.47 1.83 6.53 6.53 0 0 1-3.03-.67 4.98 4.98 0 0 1-2.7-4.65c0-1.02.23-1.94.7-2.74a4.85 4.85 0 0 1 2-1.87 6.33 6.33 0 0 1 3.01-.69c1.01 0 1.92.2 2.72.57.81.38 1.4.8 1.77 1.26h.14v-1.6h2.76v9.07a5.9 5.9 0 0 1-.79 3.11c-.52.9-1.3 1.58-2.32 2.07a8.68 8.68 0 0 1-3.74.73Zm.37-6.64c.81 0 1.55-.18 2.22-.53a4.38 4.38 0 0 0 1.5-1.2v-3.06a4.77 4.77 0 0 0-3.76-1.73c-1.2 0-2.13.29-2.78.87a3.04 3.04 0 0 0-.96 2.38c0 1.01.32 1.81.96 2.4.66.58 1.6.87 2.82.87Zm10.44-9.16c-.57 0-1.01-.14-1.34-.41a1.37 1.37 0 0 1-.47-1.08c0-.45.16-.8.47-1.07.33-.27.77-.41 1.34-.41.56 0 1 .14 1.32.41.33.26.5.62.5 1.07 0 .44-.17.8-.5 1.08-.32.27-.76.41-1.32.41Zm1.38 11.82h-2.76v-11h2.76v11Zm7.15.24c-1.23 0-2.2-.35-2.9-1.05-.69-.7-1.04-1.7-1.04-3.01v-5.89h-2v-1.28h1.06c.34 0 .58-.07.73-.22.14-.15.21-.42.21-.8v-1.56h2.76v2.58h3.33v1.28h-3.33v5.73c0 .62.16 1.1.5 1.42.32.33.76.5 1.31.5.5 0 1-.09 1.52-.24v2.22a6.8 6.8 0 0 1-2.15.32Zm9.53-11.47c2.03 0 3.52.34 4.47 1.03a3.2 3.2 0 0 1 1.44 2.75v7.45h-2.76v-1.81a5.9 5.9 0 0 1-2.09 1.42c-.96.42-2.02.63-3.19.63-1.37 0-2.4-.29-3.11-.85a2.75 2.75 0 0 1-1.05-2.25c0-2.16 1.84-3.28 5.52-3.34l.2-.02c1.05-.02 1.83-.08 2.36-.18.54-.1.9-.24 1.08-.41a.9.9 0 0 0 .28-.7c0-.43-.26-.78-.79-1.06a5.89 5.89 0 0 0-2.6-.41 11.8 11.8 0 0 0-5.32 1.26v-2.33c.5-.3 1.26-.57 2.27-.8 1-.25 2.1-.38 3.29-.38Zm-.99 9.5a6 6 0 0 0 2.5-.5c.74-.32 1.28-.7 1.64-1.1v-2.42c-.13.17-.48.33-1.05.47-.55.15-1.29.22-2.22.24l-.18.02a4.82 4.82 0 0 0-2.42.49c-.49.31-.73.73-.73 1.24 0 .49.2.87.6 1.14.4.28 1.02.42 1.86.42Zm12.1 1.73h-2.75v-14.18h2.76v14.18Z" fill="currentColor"/><defs><clipPath id="a"><path fill="#fff" transform="translate(59 2)" d="M0 0h20v20h-20z"/></clipPath></defs></svg>