<svg width="52" height="17" viewBox="0 0 52 17" fill="none" xmlns="http://www.w3.org/2000/svg">
<path d="M44.5414 16.4254H40.6458L42.7945 11.866L37.8682 3.21875H41.921L44.5588 8.02276H44.7161L46.9172 3.21875H50.8477L44.5414 16.4254Z" fill="#0E0E0E"/>
<path d="M36.9434 13.109H33.1875V0.53125H36.9434V13.109Z" fill="#0E0E0E"/>
<path d="M19.6113 13.1087V3.22113H23.3672V4.75841H23.5244C23.8156 4.30422 24.3047 3.8966 24.9918 3.53557C25.6906 3.1629 26.5 2.97656 27.42 2.97656C28.6662 2.97656 29.6328 3.30848 30.3199 3.9723C31.007 4.63613 31.3506 5.562 31.3506 6.7499V13.1087H27.5947V7.60588C27.5947 6.977 27.42 6.49368 27.0707 6.15595C26.7329 5.81821 26.2554 5.64934 25.6382 5.64934C25.1374 5.64934 24.6774 5.78327 24.2581 6.05113C23.8505 6.31899 23.5535 6.62179 23.3672 6.95953V13.1087H19.6113Z" fill="#0E0E0E"/>
<path d="M9.15775 13.4198C7.27108 13.4198 5.67557 13.1403 4.3712 12.5813C3.07849 12.0223 2.10604 11.2594 1.45386 10.2928C0.801677 9.31454 0.475586 8.21398 0.475586 6.99115C0.475586 5.76831 0.801677 4.67357 1.45386 3.70695C2.10604 2.72867 3.07849 1.96003 4.3712 1.40102C5.67557 0.842006 7.27108 0.5625 9.15775 0.5625C11.0328 0.5625 12.6225 0.842006 13.9268 1.40102C15.2312 1.96003 16.2036 2.72867 16.8442 3.70695C17.4964 4.67357 17.8224 5.76831 17.8224 6.99115C17.8224 8.21398 17.4964 9.31454 16.8442 10.2928C16.2036 11.2594 15.2312 12.0223 13.9268 12.5813C12.6225 13.1403 11.0328 13.4198 9.15775 13.4198ZM9.15775 10.5374C10.1826 10.5374 11.0502 10.3802 11.7607 10.0657C12.4827 9.75127 13.0184 9.32619 13.3678 8.79047C13.7288 8.25475 13.9094 7.65497 13.9094 6.99115C13.9094 6.32732 13.7288 5.72754 13.3678 5.19182C13.0184 4.6561 12.4827 4.23102 11.7607 3.91658C11.0502 3.60213 10.1826 3.44491 9.15775 3.44491C8.13289 3.44491 7.25944 3.60213 6.53738 3.91658C5.82697 4.23102 5.29125 4.6561 4.93022 5.19182C4.56919 5.72754 4.38867 6.32732 4.38867 6.99115C4.38867 7.65497 4.56919 8.25475 4.93022 8.79047C5.29125 9.32619 5.82697 9.75127 6.53738 10.0657C7.25944 10.3802 8.13289 10.5374 9.15775 10.5374Z" fill="#0E0E0E"/>
</svg>
