<svg xmlns="http://www.w3.org/2000/svg" fill="none" viewBox="0 0 65 65"><path fill="#04306A" d="M0 0h65v65h-65z"/><path fill="#fff" d="M10.94 38.43c-2.15 0-3.31-1.58-3.31-3.55 0-2 1.37-3.63 3.62-3.63.6 0 1.12.08 1.57.32v1.29a3 3 0 0 0-1.52-.43c-1.53 0-2.1 1.14-2.1 2.35 0 1.35.72 2.41 1.96 2.41a3 3 0 0 0 1.52-.44l.38 1.04c-.8.5-1.47.64-2.12.64m24.12 0c-1.58 0-2.4-1.19-2.4-2.6 0-1.59 1.08-2.64 2.52-2.64.64 0 .97.13 1.23.3v1.13a1.6 1.6 0 0 0-1.02-.35c-.82 0-1.34.61-1.34 1.49 0 .78.4 1.55 1.32 1.55q.4 0 .95-.3l.34.94c-.41.28-1.1.48-1.6.48m4.42-4v3.9h-1.41v-3.9h-1.37v-1.14h4.33l-.31 1.14zm6.82-.55c0 1.76-.07 2.67-.38 3.1q-.25.31-.66.38l.4 1.07a1.8 1.8 0 0 0 1.16-.5c.45-.45.6-1.02.66-1.62.06-.5.1-1.1.1-1.63v-.25h1.1v3.9h1.42v-5.04h-3.8zm-16-.69c-.54 0-.97.27-1.33.56l-.15-.46h-1.19v7.5l1.41-.45v-2.12a2 2 0 0 0 .95.2c1.46 0 2.34-1.26 2.34-2.75 0-1.6-.89-2.48-2.03-2.48m-.65 4.2q-.38-.02-.6-.2v-2.38c.16-.26.6-.57.97-.57.57 0 .9.37.9 1.4 0 .87-.31 1.75-1.27 1.75m13.4-4.2c-.66 0-1.3.11-1.99.56l.43.86c.33-.19.76-.33 1.26-.33s.93.22.93.75v.08l-.86.03c-1.24.05-2.09.6-2.09 1.66 0 1 .7 1.63 1.65 1.63a2 2 0 0 0 1.4-.54l.21.44h1.1v-3.27c0-1.33-.72-1.87-2.04-1.87m.63 3.9c-.14.1-.42.23-.8.23-.47 0-.74-.25-.74-.63q0-.58.9-.61l.64-.02zm9.16-2.16h-.73v-1.85l-1.41.38v4.87h1.8c1.32 0 2.54-.36 2.54-1.75 0-1.17-.99-1.65-2.2-1.65m-.24 2.4h-.49v-1.4h.47c.5 0 1.05.08 1.05.68 0 .59-.47.73-1.03.73m-31.3-1.74v-.04c.45-.1.84-.41.84-1.07 0-.78-.65-1.07-1.29-1.16-.2-.02-.62-.03-.86-.03h-2.02v5.04h2.38c.9-.05 2-.38 2-1.55 0-.71-.4-1.07-1.06-1.2m-1.89-1.34h.58c.58 0 .8.18.8.5 0 .38-.36.5-.95.5h-.43zm.55 3.12h-.58v-1.23h.51c.68 0 1.04.16 1.04.6 0 .48-.48.63-.97.63m-2.45-1.6c0-1.56-.94-2.58-2.3-2.58-1.47 0-2.3 1.22-2.3 2.64 0 1.32.72 2.6 2.48 2.6.6 0 1.27-.14 1.95-.58l-.31-.9c-.56.26-.92.35-1.4.35-.66 0-1.29-.42-1.32-1.1h3.2zm-3.22-.55c0-.46.32-.98.89-.98.6 0 .86.5.89.98zm12.94.55c0-1.56-.94-2.58-2.3-2.58-1.48 0-2.3 1.22-2.3 2.64 0 1.32.72 2.6 2.48 2.6.6 0 1.26-.14 1.95-.58l-.31-.9c-.56.26-.92.35-1.4.35-.66 0-1.29-.42-1.32-1.1h3.2zm-3.23-.55c0-.46.33-.98.9-.98.6 0 .86.5.89.98zm33.56-5.48-.25.13c-.28.09-.62 0-.93-.12q-.33-.15-.7-.37a9 9 0 0 0 .6-2.7 5 5 0 0 0-.03-.82c-.05-.33-.15-.68-.37-.88a1 1 0 0 0-.24-.16q.66-.07 1.18-.02c.36.03.73.12.95.34.22.21.31.59.35.96q.05.53 0 1.2-.07.67-.27 1.49-.14.51-.29.95m-5.33-.28q-.01-.16.01-.28c.06-.3.3-.56.57-.76q.28-.23.66-.43a8 8 0 0 0 2 1.87q.38.24.71.38c.31.12.65.2.93.12a1 1 0 0 0 .26-.14q-.27.62-.57 1.05c-.2.31-.47.6-.76.67-.3.09-.66-.02-1-.17a6 6 0 0 1-1.01-.6 9 9 0 0 1-1.8-1.71m2.9-4.56.23.15c.21.2.32.55.36.88q.04.36.04.8a8 8 0 0 0-2.6.83q-.39.21-.67.44c-.27.2-.51.46-.57.76q-.03.13-.02.3-.39-.56-.6-1.04c-.16-.33-.27-.7-.2-1s.35-.57.65-.8q.42-.3 1.02-.59a9 9 0 0 1 2.35-.73"/></svg>