<svg xmlns="http://www.w3.org/2000/svg" xmlns:xlink="http://www.w3.org/1999/xlink"><symbol id="sprite-awards-1" fill="none" viewBox="0 0 28 28"><g clip-path="url(#a)"><path fill="#0E0E0E" stroke="#0E0E0E" stroke-width=".8" d="M17.53 21.58h-2.92l-2.72-10.17-.39-1.45-.38 1.45-2.72 10.22h-2.93l-4.92-15.37h3.18l2.83 10.8.77-.01 2.67-10.79h3.06l2.67 10.79h.77l2.83-10.79 3.13-.04z"/><path fill="#0E0E0E" d="M25.3 16.8c1.56 0 2.7 1.14 2.7 2.7a2.6 2.6 0 0 1-2.7 2.69 2.6 2.6 0 0 1-2.7-2.7 2.66 2.66 0 0 1 2.7-2.7"/><path stroke="#0E0E0E" stroke-opacity=".8" stroke-width=".8" d="M25.3 17.2c1.34 0 2.3.96 2.3 2.3s-.96 2.29-2.3 2.29-2.29-.96-2.29-2.3c0-1.32 1-2.3 2.3-2.3Z"/></g><defs><clipPath id="a"><path fill="#fff" d="M0 0h28v28h-28z"/></clipPath></defs></symbol><use xlink:href="#sprite-awards-1" width="28" height="28"/><view id="sprite-awards-1-view" viewBox="0 0 28 28"/><symbol id="sprite-awards-2" fill="none" viewBox="0 0 41 12"><path fill="#fff" d="M37.7 5.15h-2.41v-2.48a.9.9 0 0 0-.46-.78 1 1 0 0 0-.42-.1h-8.08q-.32 0-.56.2-.16.1-.3.29l-2.73 5.09-2.48-4.86a1 1 0 0 0-.31-.49.9.9 0 0 0-.97-.14.9.9 0 0 0-.49.69l-2.59 4.8-2.57-5.07a1 1 0 0 0-.43-.42 1 1 0 0 0-.4-.1h-6.54a1 1 0 0 0-.42.11.9.9 0 0 0-.45.78v2.48h-2.42a.87.87 0 0 0-.88.88c0 .48.39.87.88.87h2.4v2.41c0 .49.4.87.88.87a.87.87 0 0 0 .87-.87v-2.41h4.17a.87.87 0 0 0 .88-.87.87.87 0 0 0-.88-.88h-4.17v-1.61h5.16l3.08 6.05.08.15a.87.87 0 0 0 1.14.35 1 1 0 0 0 .47-.62l2.61-4.84 2.52 4.96.08.15a.87.87 0 0 0 1.14.35 1 1 0 0 0 .48-.62l3.2-5.94h6.73v1.61h-5.84a.9.9 0 0 0-.88.84v3.28c0 .48.4.87.88.87h6.44c.1.03.2 0 .3 0a.87.87 0 0 0 .87-.87v-2.37h2.4a.87.87 0 0 0 .88-.87.86.86 0 0 0-.86-.87m-4.17 3.24h-5v-1.48h5z"/><path fill="#0E0E0E" d="M34.4 1.8q.24-.01.42.1a.9.9 0 0 1 .46.78v2.48h2.4c.5 0 .88.4.88.88a.87.87 0 0 1-.87.87h-2.41v2.37a.87.87 0 0 1-.88.87h-6.7a.87.87 0 0 1-.88-.87v-3.29a.9.9 0 0 1 .87-.84h5.84v-1.61h-6.74l-3.2 5.94a.9.9 0 0 1-.84.7.9.9 0 0 1-.75-.43l-.08-.15-2.52-4.96-2.56 4.85q-.14.4-.53.62a.86.86 0 0 1-1.13-.35l-.07-.15-3.09-6.05h-5.15v1.62h4.17c.48 0 .87.38.87.87a.87.87 0 0 1-.87.87h-4.17v2.41a.87.87 0 0 1-.88.88.87.87 0 0 1-.87-.88v-2.4h-2.45a.87.87 0 0 1-.88-.88c0-.49.39-.87.88-.87h2.4v-2.5a.9.9 0 0 1 .46-.77 1 1 0 0 1 .42-.1h6.54a1 1 0 0 1 .4.1.8.8 0 0 1 .43.41l2.58 5.08 2.59-4.84c.13-.27.2-.51.49-.65a1 1 0 0 1 .37-.08q.34 0 .59.23c.15.12.23.2.34.42l2.44 4.92 2.75-5.09a1 1 0 0 1 .28-.3 1 1 0 0 1 .57-.2zm-5.87 6.58h5v-1.48h-5zm5.87-8.39h-8.08q-.9.01-1.63.55-.48.35-.77.85l-.01.03-.01.02-1.12 2.08s-1.3-2.55-1.68-2.85a2.7 2.7 0 0 0-2.9-.4c-.7.34-1.1.96-1.41 1.68l-.84 1.57-1.03-2.01a2.7 2.7 0 0 0-1.27-1.24 3 3 0 0 0-1.16-.27h-6.54q-.67 0-1.27.32a2.7 2.7 0 0 0-1.4 2.35v.7h-.61a2.67 2.67 0 0 0 0 5.32h.62v.62a2.67 2.67 0 0 0 5.33 0v-.62h2.36q.78 0 1.4-.4l1.06 2.06a2.7 2.7 0 0 0 2.45 1.63q.61 0 1.16-.27a3 3 0 0 0 1.5-1.51l.77-1.7.95 1.86a2.7 2.7 0 0 0 2.46 1.63q.61 0 1.16-.27a2.7 2.7 0 0 0 1.32-1.43 2.7 2.7 0 0 0 2.48 1.66h6.71a2.63 2.63 0 0 0 2.67-2.62v-.62h.62a2.67 2.67 0 0 0 2.66-2.67 2.67 2.67 0 0 0-2.66-2.66h-.62v-.7c0-.99-.53-1.88-1.4-2.35a2.5 2.5 0 0 0-1.27-.34"/></symbol><use xlink:href="#sprite-awards-2" width="41" height="12" y="28"/><view id="sprite-awards-2-view" viewBox="0 28 41 12"/><symbol id="sprite-awards-3" fill="none" viewBox="0 0 26 25"><path fill="#0E0E0E" stroke="#0E0E0E" stroke-width=".827" d="m14.6 2.07-7.09 7-.3.3.3.3 7.5 7.41-3.3 3.24-3.62-3.53-3.9-3.81-3.6-3.61 7.38-7.3z"/><path fill="#0E0E0E" stroke="#0E0E0E" stroke-width=".827" d="m16.96 9.66 3.9 3.9 3.6 3.53-3.6 3.6-3.78 3.7h-6.62l7.08-7.01.3-.3-7.72-7.71 3.23-3.23z"/></symbol><use xlink:href="#sprite-awards-3" width="26" height="25" y="40"/><view id="sprite-awards-3-view" viewBox="0 40 26 25"/><symbol id="sprite-awards-4" fill="none" viewBox="0 0 23 29"><path fill="#141414" fill-rule="evenodd" d="m7.95 0 .26.03c.15.02.75.06 1.32.08.95.04 1.1.07 2.25.57l-.1.66.55.27c.55.25.55.26.55.58 0 .18-.05.76-.11 1.29l-.41 3.49c-.02.15.03.18.62.22.5.04.77.11 1.17.31.52.27.53.27.48.92l1.2.06c1.15.07 1.26.08 2.32.6l-.05.67.62.04c.5.03.74.1 1.74.6l-.09.64.55.26c.55.27.55.27.55.62s0 .34 1.09.87l-.05.55-.16 1.53-.24 2.04-.51 4.2h-.61c-.43 0-.6.03-.6.1l-.17 1.44-.2 1.84-1.17-.06-.11.68-.23 1.78-.25 2.12h-.36c-.19 0-.97-.03-1.75-.08l-3.8-.2c-1.33-.07-3.1-.17-3.93-.2-.82-.06-1.73-.1-2.02-.13a3 3 0 0 1-1.04-.3l-.55-.26s.05-.67.14-1.48l.15-1.47-.53-.27c-.3-.14-.54-.28-.55-.32s0-.42.07-.87c.05-.45.08-.84.06-.88a3 3 0 0 0-.54-.31l-.54-.27c-.01 0 .02-.4.08-.9.1-.85.1-.89-.07-.98l-.56-.3c-.4-.2-.41-.2-.36-.52.02-.18.07-.58.15-1.46l-.55-.27c-.54-.26-.55-.27-.57-.61s-.04-.35-1.09-.92l.05-.45.18-1.58c.07-.63.15-1.27.23-1.71l.84.06 1.52.1 1.17.09c.27.02.64.11.81.2.17.08.33.15.35.13.03 0 .13-.62.21-1.36l.3-2.4.41-3.59.38-3.3.12-.94c.03-.14.1-.16 1.25-.1zm1.13 2.88c-.03.27-.12 1.11-.22 1.87l-.36 3.18-.39 3.22-.25 2.16-.2 1.83-.46 3.98c0 .13-.06.13-.77.07a3 3 0 0 1-1.17-.27l-.44-.2c-.02 0-.05.17-.06.36l-.02.37 1.14.54q-.11.75-.15 1.22l-.06.57 1.15.54-.17 1.46-.05.36c1.15.52 1.18.55 1.14.76-.03.12-.08.52-.11.89l-.06.68c.52.05 1.48.11 2.46.16l2.67.13 2.99.16.14-1.02c.07-.56.15-1.27.17-1.6.03-.3.09-.62.13-.69.05-.09.2-.11.62-.1.45.02.55 0 .58-.12.02-.08.07-.54.12-1.04l.18-1.48.07-.68c0-.05.25-.07.62-.05l.62.01.5-4.53.3-2.66-1.12-.55.09-.7c-1.1 0-1.24-.02-1.76-.3-.56-.3-.58-.31-.58-.6 0-.26-.03-.32-.18-.35-.1-.02-.3-.05-.45-.05h-.25l-.35 3.1-.06.35c-1.42-.07-1.56-.11-2.06-.37-.43-.23-.56-.34-.53-.44l.09-.68.21-1.83c.1-.72.16-1.33.16-1.36s-.2-.06-.47-.05l-.49.02-.53 4.5c0 .02-.34 0-.74-.03-.6-.04-.83-.1-1.29-.32-.3-.16-.57-.3-.57-.32l.47-4.09.62-5.4c.12-1.02.13-1.36.06-1.4a1 1 0 0 0-.45-.07c-.3 0-.36.03-.4.19zm-6.28 12.24c-.05.4-.06.72-.03.74l.55.28c.5.26.5.27.48.59 0 .32 0 .33.45.55l.45.22q.08-.8.15-1.3l.05-.64c-1.1-.53-1.12-.55-1.12-.84v-.31h-.9z" clip-rule="evenodd"/></symbol><use xlink:href="#sprite-awards-4" width="23" height="29" y="65"/><view id="sprite-awards-4-view" viewBox="0 65 23 29"/><symbol id="sprite-awards-5" fill="none" viewBox="0 0 29 33"><path fill="#191919" fill-rule="evenodd" d="M11.08 1.54a.83.83 0 1 0-.45.13 1.5 1.5 0 0 0-.55.42q-.66 1.36.68 2.03-.52.43-.68 1.1-.34 1.39.63 2.4l.1 2.18a8 8 0 0 0 1.62 4.23q-.92.24-1.78.62-3.52 2.14-5.21 5.9-1.89.54-1.98 2.5-2-.56-1.88 1.56.36.85 1.3.94.92-.15 1.1-1.04.48.2.94.47l.78.15q2.61-.37 2.3-3.02.5-.82.93-1.67a12 12 0 0 1 3.29-3.08q1.62-.68 2.24 1a11.4 11.4 0 0 1-.68 6.57q-.52.4-.88.94-.77 2.67 1.93 3.39-.63 1.87 1.35 2.08l-.02.03-.01.01a.83.83 0 1 0 .85-.14l-.03-.02h-.06l-.1-.03-.21-.06a2 2 0 0 0 .47-.68q.26-1.14-.68-1.77.27-.29.47-.62a4.4 4.4 0 0 0-.05-2.45q.52-1.77.78-3.6.45-3.12-.89-5.95 3.3-.63 5.53-3.13 2.42-.11 2.71-2.5.28.12.58.2 1.57-.37 1.25-1.88a.83.83 0 1 0-.24-.36l-.44-.3q-1.37-.46-1.83.88a1.6 1.6 0 0 0-.78-.57q-3-.5-3.07 2.55a9 9 0 0 1-2.87 2.03q-1.3.56-2.5-.2-1.47-1.36-1.62-3.4-.31-1.3.62-2.18 1.15-2.9-1.82-3.65.56-1.74-1.14-2.01m6.33 5.9a2.4 2.4 0 0 0-1.9.16q-.83.5-1.21 1.53-.34 1.33.32 2.33c.32.47.81.8 1.36.95q1.68.48 2.71-.86a2.7 2.7 0 0 0 .54-1.86q-.15-1.74-1.82-2.26m-16.58 18.44a.83.83 0 1 0 0-1.67.83.83 0 0 0 0 1.67" clip-rule="evenodd"/></symbol><use xlink:href="#sprite-awards-5" width="29" height="33" y="94"/><view id="sprite-awards-5-view" viewBox="0 94 29 33"/><symbol id="sprite-banner-arrow" fill="none" viewBox="0 0 36 29"><path fill="#04251A" d="M21.95 26.41c2.76-8.14-2.94-18.83 8.16-22.26a58 58 0 0 0-4.03-1.77c-.65-.66 1.44-2.04 2-2.34 1.5-.32 4.5 1.66 5.96 2.42 3.4 2.04 1.86 3.2-.64 5.04-1.71.98-3.32 2.2-5.05 3.1q-.38.08-.27-.31c.67-2.1 2.55-3.46 4.33-4.51-1.62.51-4.97.2-5.92 1.82-1.4 4.16-.58 8.68-.9 12.99 0 3.54-2.12 8.06-5.87 8.41-1.76-.68-2.7-6-3.2-7.87-.73-4.1-1.53-8.21-3.39-11.93-2.02 4.14-5.68 8.39-10.36 8.97-1.1.05-1.94-.64-2.72-1.34-.36-.84 1.34-1.87 1.97-2.28 1.25-.73 1.9 1.98 4.32.94 2.3-.94 3.7-3.45 4.39-5.78.45-1.35.06-3 .87-4.19.65-.65 2.14-2.43 2.91-1.22 4.66 6.52 3.78 15.21 7.44 22.12z"/></symbol><use xlink:href="#sprite-banner-arrow" width="36" height="29" y="127"/><view id="sprite-banner-arrow-view" viewBox="0 127 36 29"/><symbol id="sprite-banner-burger" fill="none" viewBox="0 0 26 30"><path fill="#777" d="M4.19 24h-.62l-2.18-2.26v2.26h-.47v-4.67h.47v2.13l2.12-2.13h.61l-2.24 2.27zm3.1-3.33h.44v3.33h-.44v-.66q-.46.74-1.35.74-.71 0-1.22-.5a1.7 1.7 0 0 1-.5-1.25q0-.73.5-1.24a1.7 1.7 0 0 1 1.22-.5q.89 0 1.35.73zm-2.25 2.6q.38.38.93.38t.94-.38.38-.94q0-.55-.38-.93a1.3 1.3 0 0 0-.94-.39q-.55 0-.93.39a1.3 1.3 0 0 0-.38.93q0 .56.38.94m6.02-2.6v.42h-1.18v2.9h-.44v-2.9h-1.18v-.43zm3.27 0h.44v3.33h-.44v-.66q-.46.74-1.34.74-.72 0-1.22-.51a1.7 1.7 0 0 1-.5-1.24q0-.73.5-1.24a1.7 1.7 0 0 1 1.22-.5q.88 0 1.34.73zm-2.24 2.6q.38.38.93.38t.93-.38.38-.94q0-.55-.38-.93a1.3 1.3 0 0 0-.93-.39q-.55 0-.93.39a1.3 1.3 0 0 0-.38.93q0 .56.37.94m6.36-2.6v3.33h-.44v-2.91h-1.51v1.49q0 .83-.32 1.14-.31.32-.87.28v-.42q.38.04.56-.18t.19-.82v-1.92zm3.72 2.9q-.5.5-1.24.5a1.7 1.7 0 0 1-1.75-1.74q0-.74.5-1.24a1.7 1.7 0 0 1 1.25-.5q.73 0 1.24.5t.51 1.24-.5 1.25m-2.18-.31q.38.38.93.38t.93-.38a1.3 1.3 0 0 0 .38-.94q0-.55-.38-.93a1.3 1.3 0 0 0-.93-.39q-.55 0-.93.39-.38.38-.38.93 0 .56.38.94m5.56-2.6v.42h-1.7v2.9h-.44v-3.33z"/><path fill="#202020" d="M12.23 8q.26.75.79 1.33h-6.36v-1.33zm.79-4a4 4 0 0 0-.8 1.33h-5.56v-1.33zm5.64-2.67h-12v-1.33h12z"/><path stroke="#202020" stroke-width="1.2" d="M15.87 8.4a1.87 1.87 0 1 0 0-3.73 1.87 1.87 0 0 0 0 3.73Z"/><path stroke="#202020" stroke-linecap="square" stroke-width="1.2" d="m17.5 8.17 1.17 1.16"/></symbol><use xlink:href="#sprite-banner-burger" width="26" height="30" y="156"/><view id="sprite-banner-burger-view" viewBox="0 156 26 30"/><symbol id="sprite-banner-label" fill="none" viewBox="0 0 38 31"><path stroke="#000" stroke-linecap="round" stroke-width=".747" d="m32.58 19.3-9.07 8.89m9.07-8.9 4.02-16.45-21.5-2.43-5.1 16.23m22.58 2.65-22.59-2.65m22.6 2.65v1.94l-9.08 8.78m0-1.82-23.14-3.81m23.14 3.8v1.83m-23.14-5.63 9.62-7.74m-9.62 7.74v1.6l23.14 4.03m-13.67-5.88 7.34 1.21m-2.57-2.12-4.2-.7m4.2.7 4.64.69m-4.64-.7 3.9-3.86m-8.1 3.18-4.14-.64 2.7-2.54m1.43 3.18 3.77-3.8m5.08 5.18 4.98.8 2.82-2.7m-7.8 1.9 4.2-3.93m-9.28-1.24-3.68-.5-1.53 1.11m5.21-.61 4.34.61m0 0 4.95.63m0 0 5.17.7-1.58 1.32m0 0-18.09-2.65m25.33-15.19-3.47 13.26-18.63-2.38 4.01-12.92z"/></symbol><use xlink:href="#sprite-banner-label" width="38" height="31" y="186"/><view id="sprite-banner-label-view" viewBox="0 186 38 31"/><symbol id="sprite-banner-world" fill="none" viewBox="0 0 22 22"><path fill="#04251A" d="M15.78 13.19q.15-1.08.16-2.2-.01-1.12-.16-2.2h3.72a9 9 0 0 1 .28 2.2 9 9 0 0 1-.28 2.2m-5.66 6.1a17 17 0 0 0 1.51-3.9h3.25a8.8 8.8 0 0 1-4.76 3.9m-.28-6.1h-5.14a15 15 0 0 1 0-4.4h5.14a16 16 0 0 1 .18 2.2q-.02 1.12-.18 2.2m-2.57 6.55a15 15 0 0 1-2.1-4.35h4.2a15 15 0 0 1-2.1 4.35m-4.4-13.15h-3.2a8.7 8.7 0 0 1 4.74-3.9 19 19 0 0 0-1.54 3.9m-3.2 8.8h3.2q.57 2.07 1.54 3.9a8.8 8.8 0 0 1-4.75-3.9m-.9-2.2a9 9 0 0 1-.28-2.2q0-1.14.28-2.2h3.72a18 18 0 0 0-.16 2.2q.01 1.12.16 2.2m4.79-10.96c.91 1.32 1.65 2.8 2.1 4.36h-4.2a15 15 0 0 1 2.1-4.36m7.6 4.36h-3.24a17 17 0 0 0-1.51-3.9 8.8 8.8 0 0 1 4.75 3.9m-7.6-6.59a11 11 0 0 0-10.99 10.99 10.99 10.99 0 1 0 10.99-10.99"/></symbol><use xlink:href="#sprite-banner-world" width="22" height="22" y="217"/><view id="sprite-banner-world-view" viewBox="0 217 22 22"/><symbol id="sprite-coldy" fill="none" viewBox="0 0 72 12"><path fill="#ABABAB" d="M3.3 5.5q0 .58.14 1 .13.4.47.78.34.36 1 .54.66.2 1.64.2h4.87v2.98h-4.88q-3.34 0-4.94-1.53t-1.6-3.97 1.6-3.98 4.94-1.52h4.88v2.99h-4.87q-1.87 0-2.56.66t-.69 1.85m18.66 6h-1.22q-1.8 0-3.13-.45-1.34-.45-2.14-1.24a5 5 0 0 1-1.18-1.82q-.39-1.01-.39-2.24t.39-2.24a5 5 0 0 1 1.18-1.82q.8-.8 2.14-1.24 1.34-.45 3.13-.45h1.22q1.8 0 3.13.45 1.34.44 2.14 1.24a5 5 0 0 1 1.18 1.82q.39 1.01.39 2.24t-.38 2.24a5 5 0 0 1-1.19 1.82q-.8.8-2.14 1.24-1.33.45-3.13.45m-1.2-3.03h1.19q1.98 0 2.73-.72.75-.7.75-2t-.76-2-2.72-.71h-1.18q-1.05 0-1.75.2-.72.2-1.1.59-.37.39-.52.85a4 4 0 0 0-.15 1.07q0 1.3.76 2 .76.72 2.75.72m13.15-8.47v8.01h7.3v2.99h-10.42v-11zm28.59 11v-3.32l-6.39-7.68h4.58l3.38 5.02 3.35-5.02h4.58l-6.4 7.68v3.32zm-8.47-9.48q-1.58-1.52-4.88-1.52h-4.96v2.97h1.46v.02h3.49q1.83 0 2.5.66.69.65.69 1.85 0 .58-.13 1a2 2 0 0 1-.47.78q-.34.36-.99.54-.65.2-1.6.2h-3.49 2.83-4.29v2.98h4.96q3.3 0 4.88-1.53 1.58-1.52 1.58-3.97t-1.58-3.98"/></symbol><use xlink:href="#sprite-coldy" width="72" height="12" y="239"/><view id="sprite-coldy-view" viewBox="0 239 72 12"/><symbol id="sprite-farmstandart" fill="none" viewBox="0 0 86 20"><path fill="#ABABAB" d="M1.76 4.24a10 10 0 0 0-1.76 5.62c0 2.4.86 4.6 2.3 6.3v-8.66c0-.6 0-1.16-.12-1.65a8 8 0 0 0-.42-1.6m5.84 1.82c-.5 0-1.07.06-1.75.27q-.34.15-.79.39v6.26q.92.99 2.26.99c1.13 0 2.03-.33 2.6-.99.62-.72.96-1.65.96-2.91s-.34-2.26-.9-2.97-1.42-1.04-2.38-1.04m68.53 13.11h-39.28c-4.46-.59-7.92-4.52-7.92-9.28s3.45-8.69 7.92-9.27v-.01h39.28c4.96 0 9 4.16 9 9.28s-4.04 9.28-9 9.28m-71.07-13.05 1.87-1.82.33-.16q.6-.24 1.53-.23 1.28.01 2.25.56v-1.27a9 9 0 0 0-.56-3.21h-.63a9.8 9.8 0 0 0-8.02 4.15h3.23zm70.79-6.13h-61.78q-.12.45-.2.96a28 28 0 0 0-.12 2.58v2.59l2.09-1.98a7 7 0 0 1 1.75-.22c1.24 0 2.15.27 2.82.93a4 4 0 0 1 .96 2.86v4.5l.01.55q.68.68 1.43 1.05c.51.22 1.07.38 1.58.38a2 2 0 0 0 1.36-.44q.5-.33.5-.99c0-.27-.1-.6-.39-.93q-.43-.4-1.64-1.16a9 9 0 0 1-2.09-1.81q-.6-.73-.62-1.7c0-.94.45-1.7 1.36-2.37a6 6 0 0 1 3.33-.88q.77-.02 1.3.06c.34.1.8.22 1.24.38v2.2a8 8 0 0 0-1.18-.82q-.6-.24-1.36-.22-.76 0-1.35.33c-.34.22-.51.55-.51.88 0 .38.11.66.34.93q.33.48 1.35 1.1 1.7 1.06 2.38 1.87.61.84.62 1.76 0 1.48-1.19 2.47-1.26.92-3.1.94c-.68 0-1.25 0-1.75-.12a10 10 0 0 1-1.16-.21q.02.06.06.1h-3.84c.22-.38.39-.76.45-1.26q.16-.75.16-2.09v-4.23a2 2 0 0 0-.56-1.48c-.4-.33-.96-.44-1.7-.44-.5 0-1.18.1-2.03.44l-.62.27v5.44c0 .88.06 1.6.11 2.04q.2.73.45 1.32h-3.9l.01-.01q-.76.22-1.68.22a6 6 0 0 1-3.68-1.15v1.21c0 .6 0 1.15.12 1.65q.07.53.27 1.17a10 10 0 0 0 4.4 1.04h66a9.87 9.87 0 0 0 0-19.71"/><path fill="#ABABAB" d="M57.23 9.05q.38.09.93.3l.14-.47.13-.48h-3.21l-.17.5-.17.5q.45-.24 1.12-.33l.24-.03v2.4q0 .48-.04.75-.04.28-.16.5h1.26a2 2 0 0 1-.16-.5 5 5 0 0 1-.04-.76v-2.4zm8.03 2.38v-1.77q0-.5.04-.78a1 1 0 0 1 .14-.48h-1.22q.1.21.14.49.04.27.05.77v.5h-1.5v-.5q-.01-.35.04-.62.04-.27.14-.63h-1.22q.1.35.14.63t.04.62v1.77q0 .5-.04.78-.04.27-.14.47h1.22a2 2 0 0 1-.14-.48 6 6 0 0 1-.04-.77v-.67h1.5v.67q0 .5-.04.78-.04.27-.14.47h1.22a2 2 0 0 1-.15-.48 6 6 0 0 1-.04-.77m3.19.66h-1.46q.1-.32.17-.78.17-1.01.2-2.32h1.09zm1.38 0h-.53v-2.44q0-.34.04-.61l.14-.64h-3.1q.1.37.13.64.03.28 0 .61a14 14 0 0 1-.2 1.64q-.1.48-.2.8h-.5q.03.09.06.3.04.3.02.66-.01.36-.08.57h1.06a2 2 0 0 1-.08-.57v-.37h2.26v.37a3 3 0 0 1-.08.57h1.06a2 2 0 0 1-.08-.57q-.02-.36.02-.67zm7.95-3.68-.17.5-.17.5q.45-.24 1.13-.34l.24-.02v2.39q0 .48-.05.76-.04.27-.15.5h1.26a2 2 0 0 1-.16-.5 5 5 0 0 1-.05-.76v-2.4l.14.02q.38.09.93.3l.14-.47.13-.48zm-37 3.7h-.56a.7.7 0 0 1 0-1.41h.56zm.86-.67v-1.68q0-.72-.35-1.08t-1.04-.36q-.24 0-.48.04a3 3 0 0 0-.49.16l-.23.82q.26-.18.48-.26t.46-.09q.36 0 .58.21t.22.56v.39l-1.26.52a1.6 1.6 0 0 0-.64.46 1 1 0 0 0-.24.62q0 .5.33.76.34.27.97.27h.18l.66-.5v.4h1a1 1 0 0 1-.11-.44 7 7 0 0 1-.04-.8m3.09.28a1 1 0 0 1-.82.38q-.43 0-.72-.38v-2.35q.13-.08.26-.13.3-.12.54-.12.47 0 .75.4.27.41.27 1.11t-.28 1.09m-.36-3.4q-.29 0-.49.1l-.1.04-.59.7v-.75h-1.03q.1.35.14.63t.04.62v3.13q0 .35-.04.63a5 5 0 0 1-.14.62h1.22l-.15-.63a4 4 0 0 1-.04-.62v-.44q.5.43 1.16.43.74 0 1.14-.57t.4-1.61-.42-1.65q-.42-.63-1.1-.63m6.64.6q.06-.28.22-.5h-1.12q0 .1-.11.3t-.28.4l-1.02 1.25-1.15-1.39a1 1 0 0 1-.18-.29 1 1 0 0 1-.08-.28h-1.14l.29.35v2.68q0 .35-.04.62a4 4 0 0 1-.14.63h1.22a5 5 0 0 1-.15-.63l-.04-.62v-1.65l1.4 1.7 1.4-1.7v1.65q0 .35-.03.63a4 4 0 0 1-.14.62h1.22a5 5 0 0 1-.15-.63 4 4 0 0 1-.04-.62v-1.77q0-.48.06-.76m2.66 3.2q-.6 0-.95-.43-.35-.44-.35-1.18t.33-1.16.9-.42q.28 0 .51.11.24.12.47.37l.05-.99-.52-.07-.44-.02q-.94 0-1.57.67-.62.67-.62 1.7 0 .9.56 1.5t1.42.6q.24 0 .42-.03t.47-.1l.34-.82q-.38.16-.6.22a2 2 0 0 1-.42.06m6.7-.01h-.57a.7.7 0 0 1-.7-.7c0-.4.31-.71.7-.71h.56zm.85-.67v-1.68q0-.72-.35-1.08t-1.04-.36q-.25 0-.48.05-.24.04-.49.15l-.23.82a2 2 0 0 1 .48-.26q.22-.08.45-.08.37 0 .59.2t.21.56v.39l-1.26.52q-.4.16-.64.46a1 1 0 0 0-.24.62q0 .5.34.76.34.27.97.27h.17l.66-.5v.4h1.01a1 1 0 0 1-.11-.43 7 7 0 0 1-.04-.81m10.95.67h-.56a.7.7 0 1 1 0-1.41h.56zm.86-.67v-1.68q0-.72-.35-1.08t-1.04-.36q-.24 0-.48.05-.24.04-.49.15l-.23.82q.26-.18.48-.26t.45-.08q.37 0 .59.2t.21.56v.39l-1.26.52a1.6 1.6 0 0 0-.64.46 1 1 0 0 0-.24.62q0 .5.34.76.34.27.97.27h.17l.66-.5v.4h1.01a1 1 0 0 1-.12-.43 8 8 0 0 1-.03-.81m3.1.28q-.3.39-.82.39a.9.9 0 0 1-.72-.38v-2.36l.26-.13q.3-.12.53-.12.48 0 .75.4.28.42.28 1.11t-.28 1.1m-.36-3.41q-.29 0-.49.1l-.1.05-.59.69v-.75h-1.03q.1.36.14.63.04.28.04.62v3.13q0 .35-.04.63a5 5 0 0 1-.14.63h1.22a5 5 0 0 1-.15-.64 4 4 0 0 1-.04-.61v-.44q.5.42 1.16.43.74 0 1.14-.57t.4-1.62q0-1.03-.42-1.64-.42-.64-1.1-.64m-38.74 2.6q-.48.43-1.28.48v-3.58q.8.06 1.27.47.55.48.55 1.33 0 .84-.54 1.31m-2.22-.02-.02.49q-.79-.06-1.26-.47-.55-.48-.55-1.32t.55-1.32q.48-.4 1.27-.47v.5zm2.96-3.11q-.72-.59-1.95-.65.04-.3.14-.62h-1.37q.09.32.14.62-1.22.07-1.95.64a2.2 2.2 0 0 0-.82 1.82q0 1.16.82 1.82.72.57 1.95.64-.05.3-.14.62h1.36a4 4 0 0 1-.14-.62q1.23-.06 1.96-.64.81-.66.81-1.82a2.2 2.2 0 0 0-.8-1.81"/></symbol><use xlink:href="#sprite-farmstandart" width="86" height="20" y="251"/><view id="sprite-farmstandart-view" viewBox="0 251 86 20"/><symbol id="sprite-g8" fill="none" viewBox="0 0 71 45"><path fill="#0E0E0E" fill-rule="evenodd" d="M49.94 42.3h-.04c-5.95 0-11.02-2-14.68-5.74-3.52-3.6-5.45-8.7-5.44-14.33 0-6.33 2.32-11.58 6.7-15.17 3.73-3.07 8.73-4.75 14.08-4.75h.03c10.95.01 15.53 7.05 17.3 11.24l.16.41-2.4 1.48c-2.2 1.35-3.99 2.44-6.3 3.82l10.72.02v.9c.24 6.97-1.69 12.74-5.56 16.68-3.5 3.56-8.55 5.45-14.58 5.45zm.62-38.95c-5.1 0-9.87 1.6-13.41 4.5-4.12 3.4-6.3 8.36-6.32 14.38 0 5.36 1.82 10.2 5.15 13.6 3.45 3.54 8.26 5.42 13.92 5.43h.04c5.82 0 10.46-1.73 13.81-5.13 3.65-3.72 5.48-9.18 5.27-15.82l-20.2-.03-.01 6.96 9.4.01-.07.58c-.43 3.53-3.28 5.55-7.82 5.55h-.03c-6.12-.01-9.77-4.07-9.76-10.85 0-4.73 1.8-7.4 3.3-8.82a9 9 0 0 1 6.08-2.48h.01c4.51 0 8.05 3.65 8.78 7.2 2.36-1.4 4.15-2.51 6.38-3.87l1.65-1.01c-1.78-3.99-6.15-10.18-16.14-10.2zm-.64 8.92a8 8 0 0 0-5.35 2.2c-1.95 1.82-2.98 4.62-2.98 8.06 0 6.14 3.25 9.8 8.7 9.81h.03c3.73 0 6.07-1.43 6.67-4.05l-9.24-.01.01-9.04 10 .01a8.15 8.15 0 0 0-7.83-6.98z" clip-rule="evenodd"/><path fill="#00FFA9" fill-rule="evenodd" d="M50.56 3.35c-5.1 0-9.86 1.6-13.4 4.5-4.13 3.4-6.31 8.36-6.32 14.38-.01 5.36 1.81 10.2 5.14 13.6 3.46 3.54 8.27 5.42 13.92 5.43h.04c5.82 0 10.47-1.73 13.82-5.13 3.65-3.72 5.47-9.18 5.27-15.82l-20.2-.03-.01 6.96 9.4.01-.08.58c-.43 3.53-3.28 5.55-7.82 5.55h-.02c-6.12-.01-9.77-4.07-9.77-10.85.01-4.73 1.8-7.4 3.3-8.82a9 9 0 0 1 6.09-2.48c4.52 0 8.05 3.65 8.78 7.2 2.36-1.4 4.16-2.51 6.39-3.87l1.64-1.01c-1.77-4-6.15-10.18-16.14-10.2z" clip-rule="evenodd"/><path fill="#0E0E0E" fill-rule="evenodd" d="M45.68 42.3h-.04c-5.94 0-11.02-2-14.67-5.74-3.52-3.6-5.45-8.7-5.45-14.33.01-6.33 2.33-11.58 6.7-15.17 3.73-3.07 8.73-4.75 14.08-4.75h.04c10.95.01 15.53 7.05 17.29 11.24l.17.41-2.41 1.48c-2.2 1.35-3.98 2.44-6.3 3.82l10.73.02v.9c.23 6.97-1.7 12.74-5.57 16.68-3.5 3.56-8.54 5.45-14.57 5.45zm.62-38.95c-5.1 0-9.86 1.6-13.4 4.5-4.13 3.4-6.31 8.36-6.32 14.38-.01 5.36 1.82 10.2 5.15 13.6 3.45 3.54 8.26 5.42 13.91 5.43h.05c5.82 0 10.46-1.73 13.81-5.13 3.65-3.72 5.47-9.18 5.27-15.82l-20.2-.03-.01 6.96 9.4.01-.08.58c-.43 3.53-3.28 5.55-7.82 5.55h-.02c-6.12-.01-9.77-4.07-9.77-10.85.01-4.73 1.8-7.4 3.31-8.82a9 9 0 0 1 6.08-2.48h.01c4.51 0 8.05 3.65 8.77 7.2 2.36-1.4 4.16-2.51 6.39-3.87l1.64-1.01c-1.77-3.99-6.15-10.18-16.14-10.2zm-.64 8.92c-1.89 0-3.88.82-5.34 2.2-1.95 1.82-2.98 4.62-2.98 8.06-.01 6.14 3.24 9.8 8.7 9.81h.02c3.74 0 6.08-1.43 6.67-4.05l-9.23-.01.01-9.04 10 .01a8.15 8.15 0 0 0-7.84-6.98z" clip-rule="evenodd"/><path fill="#00FFA9" fill-rule="evenodd" d="M46.3 3.35c-5.1 0-9.86 1.6-13.4 4.5-4.13 3.4-6.31 8.36-6.32 14.38-.01 5.36 1.82 10.2 5.14 13.6 3.46 3.54 8.27 5.42 13.92 5.43h.05c5.82 0 10.46-1.73 13.81-5.13 3.65-3.72 5.47-9.18 5.27-15.82l-20.2-.03-.01 6.96 9.4.01-.08.58c-.43 3.53-3.28 5.55-7.82 5.55h-.02c-6.12-.01-9.77-4.07-9.77-10.85.01-4.73 1.8-7.4 3.31-8.82a9 9 0 0 1 6.08-2.48h.01c4.51 0 8.05 3.65 8.77 7.2 2.36-1.4 4.16-2.51 6.39-3.87l1.65-1.01c-1.78-4-6.15-10.18-16.15-10.2z" clip-rule="evenodd"/><path fill="#0E0E0E" fill-rule="evenodd" d="M41.43 42.3h-.04c-5.94 0-11.02-2-14.68-5.74-3.52-3.6-5.45-8.7-5.44-14.33 0-6.33 2.32-11.58 6.7-15.17 3.73-3.07 8.73-4.75 14.08-4.75h.03c10.95.01 15.54 7.05 17.3 11.24l.17.41-2.41 1.48c-2.2 1.35-3.99 2.44-6.3 3.82l10.72.02v.9c.24 6.97-1.69 12.74-5.56 16.68-3.5 3.56-8.55 5.45-14.58 5.45zm.62-38.95c-5.1 0-9.87 1.6-13.41 4.5-4.12 3.4-6.3 8.36-6.32 14.38 0 5.36 1.82 10.2 5.15 13.6 3.45 3.54 8.27 5.42 13.92 5.43h.04c5.82 0 10.47-1.73 13.82-5.13 3.65-3.72 5.47-9.18 5.27-15.82l-20.2-.03-.02 6.96 9.4.01-.07.58c-.43 3.53-3.28 5.55-7.82 5.55h-.02c-6.13-.01-9.78-4.07-9.77-10.85 0-4.73 1.8-7.4 3.3-8.82a9 9 0 0 1 6.08-2.48h.02c4.5 0 8.04 3.65 8.77 7.2 2.36-1.4 4.16-2.51 6.38-3.87l1.65-1.01c-1.78-3.99-6.15-10.18-16.14-10.2zm-.64 8.92a8 8 0 0 0-5.35 2.2c-1.94 1.82-2.97 4.62-2.98 8.06 0 6.14 3.25 9.8 8.71 9.81h.02c3.74 0 6.08-1.43 6.67-4.05l-9.24-.01.02-9.04 10 .01a8.15 8.15 0 0 0-7.84-6.98z" clip-rule="evenodd"/><path fill="#00FFA9" fill-rule="evenodd" d="M42.05 3.35c-5.1 0-9.86 1.6-13.4 4.5-4.13 3.4-6.31 8.36-6.33 14.38 0 5.36 1.82 10.2 5.15 13.6 3.45 3.54 8.27 5.42 13.92 5.43h.04c5.82 0 10.47-1.73 13.82-5.13 3.65-3.72 5.47-9.18 5.27-15.82l-20.2-.03-.02 6.96 9.4.01-.07.58c-.43 3.53-3.28 5.55-7.82 5.55h-.02c-6.12-.01-9.78-4.07-9.77-10.85.01-4.73 1.8-7.4 3.3-8.82a9 9 0 0 1 6.08-2.48h.02c4.5 0 8.04 3.65 8.77 7.2 2.36-1.4 4.16-2.51 6.38-3.87l1.65-1.01c-1.78-4-6.15-10.19-16.14-10.2z" clip-rule="evenodd"/><path fill="#0E0E0E" fill-rule="evenodd" d="M37.17 42.3h-.04c-5.94 0-11.01-2-14.67-5.74-3.52-3.6-5.45-8.7-5.44-14.33 0-6.33 2.32-11.58 6.69-15.17 3.74-3.07 8.74-4.75 14.09-4.75h.03c10.95.01 15.53 7.05 17.29 11.24l.17.41-2.4 1.48c-2.2 1.35-3.99 2.44-6.3 3.82l10.72.02v.9c.23 6.97-1.7 12.74-5.57 16.68-3.5 3.56-8.54 5.45-14.57 5.45zm.62-38.95c-5.1 0-9.86 1.6-13.4 4.5-4.12 3.4-6.3 8.36-6.32 14.38 0 5.36 1.82 10.2 5.15 13.6 3.45 3.54 8.26 5.42 13.91 5.43h.05c5.82 0 10.46-1.73 13.81-5.13 3.65-3.72 5.47-9.18 5.27-15.82l-20.2-.03-.01 6.96 9.4.01-.07.58c-.43 3.53-3.29 5.55-7.82 5.55h-.03c-6.12-.01-9.77-4.07-9.76-10.85 0-4.73 1.8-7.4 3.3-8.82a9 9 0 0 1 6.08-2.48h.01c4.51 0 8.05 3.65 8.78 7.2 2.36-1.4 4.15-2.51 6.38-3.87l1.65-1.01c-1.78-3.99-6.15-10.18-16.14-10.2zm-.64 8.92c-1.89 0-3.88.82-5.34 2.2-1.95 1.82-2.98 4.62-2.98 8.06 0 6.14 3.24 9.8 8.7 9.81h.03c3.73 0 6.07-1.43 6.67-4.05l-9.24-.01.01-9.04 10 .01a8.15 8.15 0 0 0-7.83-6.98z" clip-rule="evenodd"/><path fill="#00FFA9" fill-rule="evenodd" d="M37.8 3.35c-5.1 0-9.87 1.6-13.41 4.5-4.12 3.4-6.3 8.36-6.32 14.38 0 5.36 1.82 10.2 5.15 13.6 3.45 3.54 8.26 5.42 13.92 5.43h.04c5.82 0 10.46-1.73 13.81-5.13 3.65-3.72 5.48-9.18 5.27-15.82l-20.2-.03-.01 6.96 9.4.01-.07.58c-.43 3.53-3.29 5.55-7.82 5.55h-.03c-6.12-.01-9.77-4.07-9.76-10.85 0-4.73 1.8-7.4 3.3-8.82a9 9 0 0 1 6.08-2.48h.01c4.51 0 8.05 3.65 8.78 7.2 2.36-1.4 4.15-2.51 6.38-3.87l1.65-1.01c-1.78-4-6.15-10.19-16.14-10.2z" clip-rule="evenodd"/><path fill="#0E0E0E" fill-rule="evenodd" d="M32.92 42.3h-.04c-5.94 0-11.01-2-14.67-5.74-3.52-3.6-5.45-8.7-5.44-14.33 0-6.33 2.32-11.58 6.69-15.17 3.74-3.07 8.74-4.75 14.09-4.75h.03c10.95.01 15.53 7.05 17.29 11.24l.17.41-2.4 1.48c-2.2 1.35-3.99 2.44-6.3 3.82l10.72.02v.9c.23 6.97-1.7 12.74-5.57 16.68-3.5 3.56-8.54 5.45-14.57 5.45zm.62-38.95c-5.1 0-9.86 1.6-13.4 4.5-4.12 3.4-6.3 8.36-6.32 14.38 0 5.36 1.82 10.2 5.15 13.6 3.45 3.54 8.26 5.42 13.91 5.43h.05c5.82 0 10.46-1.73 13.81-5.13 3.65-3.72 5.47-9.18 5.27-15.82l-20.2-.03-.01 6.96 9.4.01-.07.58c-.43 3.53-3.29 5.55-7.82 5.55h-.03c-6.12-.01-9.77-4.07-9.76-10.85 0-4.73 1.8-7.4 3.3-8.82a9 9 0 0 1 6.08-2.48h.01c4.51 0 8.05 3.65 8.78 7.2 2.36-1.4 4.15-2.51 6.38-3.87l1.65-1.01c-1.78-3.99-6.15-10.18-16.14-10.2zm-.64 8.92c-1.89 0-3.88.82-5.34 2.2-1.95 1.82-2.98 4.62-2.98 8.06 0 6.14 3.24 9.8 8.7 9.81h.03c3.73 0 6.07-1.43 6.67-4.05l-9.24-.01.01-9.04 10 .01a8.15 8.15 0 0 0-7.83-6.98z" clip-rule="evenodd"/><path fill="#00FFA9" fill-rule="evenodd" d="M33.54 3.35c-5.1 0-9.86 1.6-13.4 4.5-4.13 3.4-6.31 8.36-6.32 14.38-.01 5.36 1.81 10.2 5.14 13.6 3.46 3.54 8.27 5.42 13.92 5.43h.04c5.82 0 10.47-1.73 13.82-5.13 3.65-3.72 5.47-9.18 5.27-15.82l-20.2-.03-.02 6.96 9.4.01-.07.58c-.43 3.53-3.28 5.55-7.82 5.55h-.02c-6.12-.01-9.77-4.07-9.77-10.85.01-4.73 1.8-7.4 3.3-8.82a9 9 0 0 1 6.09-2.48c4.52 0 8.06 3.65 8.78 7.2 2.36-1.4 4.16-2.51 6.39-3.87l1.64-1.01c-1.77-4-6.15-10.18-16.14-10.2z" clip-rule="evenodd"/><path fill="#0E0E0E" fill-rule="evenodd" d="M28.67 42.3h-.04c-5.95 0-11.02-2-14.68-5.74-3.52-3.6-5.45-8.7-5.44-14.33 0-6.33 2.32-11.58 6.7-15.17 3.73-3.07 8.73-4.75 14.08-4.75h.03c10.95.01 15.54 7.05 17.3 11.24l.16.41-2.4 1.48c-2.2 1.35-3.99 2.44-6.3 3.82l10.72.02v.9c.23 6.97-1.69 12.74-5.56 16.68-3.5 3.56-8.55 5.45-14.58 5.45zm.62-38.95c-5.1 0-9.87 1.6-13.41 4.5-4.12 3.4-6.3 8.36-6.32 14.38 0 5.36 1.82 10.2 5.15 13.6 3.45 3.54 8.26 5.42 13.92 5.43h.04c5.82 0 10.47-1.73 13.81-5.13 3.66-3.72 5.48-9.18 5.27-15.82l-20.2-.03v6.96l9.39.01-.07.58c-.43 3.53-3.28 5.55-7.82 5.55h-.03c-6.12-.01-9.77-4.07-9.76-10.85 0-4.73 1.8-7.4 3.3-8.82a9 9 0 0 1 6.08-2.48h.01c4.51 0 8.05 3.65 8.78 7.2 2.36-1.4 4.16-2.51 6.38-3.87l1.65-1.01c-1.78-3.99-6.15-10.18-16.14-10.2zm-.64 8.92a8 8 0 0 0-5.35 2.2c-1.94 1.82-2.97 4.62-2.98 8.06 0 6.14 3.25 9.8 8.7 9.81h.03c3.73 0 6.08-1.43 6.67-4.05l-9.24-.01.01-9.04 10 .01a8.15 8.15 0 0 0-7.83-6.98z" clip-rule="evenodd"/><path fill="#00FFA9" fill-rule="evenodd" d="M29.3 3.35c-5.11 0-9.87 1.6-13.42 4.5-4.12 3.4-6.3 8.36-6.31 14.38-.01 5.36 1.81 10.2 5.14 13.6 3.46 3.54 8.27 5.42 13.92 5.43h.05c5.81 0 10.46-1.73 13.8-5.13 3.66-3.72 5.48-9.18 5.28-15.82l-20.2-.03-.02 6.96 9.4.01-.07.58c-.43 3.53-3.28 5.55-7.82 5.55h-.02c-6.12-.01-9.77-4.07-9.77-10.85.01-4.73 1.8-7.4 3.3-8.82a9 9 0 0 1 6.09-2.48c4.52 0 8.05 3.65 8.78 7.2 2.36-1.4 4.16-2.51 6.39-3.87l1.64-1.01c-1.77-4-6.15-10.18-16.14-10.2z" clip-rule="evenodd"/><path fill="#0E0E0E" fill-rule="evenodd" d="M24.42 42.3h-.04c-5.95 0-11.02-2-14.68-5.74-3.52-3.6-5.45-8.7-5.44-14.33 0-6.33 2.32-11.58 6.7-15.17 3.73-3.07 8.73-4.75 14.08-4.75h.03c10.95.01 15.54 7.05 17.3 11.24l.16.41-2.4 1.48c-2.2 1.35-3.99 2.44-6.3 3.82l10.72.02v.9c.23 6.97-1.69 12.74-5.56 16.68-3.5 3.56-8.55 5.45-14.58 5.45zm.62-38.95c-5.1 0-9.87 1.6-13.41 4.5-4.12 3.4-6.3 8.36-6.32 14.38 0 5.36 1.82 10.2 5.15 13.6 3.45 3.54 8.26 5.42 13.92 5.43h.04c5.82 0 10.47-1.73 13.81-5.13 3.66-3.72 5.48-9.18 5.27-15.82l-20.2-.03v6.96l9.39.01-.07.58c-.43 3.53-3.28 5.55-7.82 5.55h-.03c-6.12-.01-9.77-4.07-9.76-10.85 0-4.73 1.8-7.4 3.3-8.82a9 9 0 0 1 6.08-2.48h.01c4.51 0 8.05 3.65 8.78 7.2 2.36-1.4 4.16-2.51 6.38-3.87l1.65-1.01c-1.78-3.99-6.15-10.18-16.14-10.2zm-.64 8.92a8 8 0 0 0-5.35 2.2c-1.94 1.82-2.97 4.62-2.98 8.06 0 6.14 3.25 9.8 8.7 9.81h.03c3.73 0 6.08-1.43 6.67-4.05l-9.24-.01.01-9.04 10 .01a8.15 8.15 0 0 0-7.83-6.98z" clip-rule="evenodd"/><path fill="#00FFA9" fill-rule="evenodd" d="M25.03 3.35c-5.1 0-9.86 1.6-13.4 4.5-4.12 3.4-6.3 8.36-6.32 14.38 0 5.36 1.82 10.2 5.15 13.6 3.45 3.54 8.26 5.42 13.91 5.43h.05c5.82 0 10.46-1.73 13.81-5.13 3.65-3.72 5.47-9.18 5.27-15.82l-20.2-.03-.01 6.96 9.4.01-.07.58c-.43 3.53-3.29 5.55-7.82 5.55h-.03c-6.12-.01-9.77-4.07-9.76-10.85 0-4.73 1.8-7.4 3.3-8.82a9 9 0 0 1 6.08-2.49h.01c4.51.01 8.05 3.66 8.78 7.2 2.36-1.4 4.15-2.5 6.38-3.87l1.65-1c-1.78-4-6.15-10.19-16.14-10.2z" clip-rule="evenodd"/><path fill="#0E0E0E" fill-rule="evenodd" d="M20.16 42.3h-.04c-5.94 0-11.02-2-14.68-5.74-3.52-3.6-5.45-8.7-5.44-14.33 0-6.33 2.32-11.58 6.7-15.17 3.73-3.06 8.73-4.75 14.08-4.75h.04c10.95.02 15.53 7.05 17.29 11.24l.17.41-2.41 1.48c-2.2 1.35-3.98 2.44-6.3 3.82l10.72.02v.9c.24 6.97-1.69 12.74-5.56 16.68-3.5 3.56-8.54 5.45-14.57 5.45zm.62-38.95c-5.1 0-9.86 1.6-13.4 4.5-4.13 3.4-6.31 8.36-6.33 14.38 0 5.36 1.82 10.2 5.15 13.6 3.45 3.54 8.27 5.42 13.92 5.43h.04c5.82 0 10.47-1.73 13.82-5.13 3.65-3.72 5.47-9.18 5.27-15.82l-20.2-.03-.02 6.96 9.4.01-.07.58c-.43 3.53-3.28 5.55-7.82 5.55h-.02c-6.13-.01-9.78-4.07-9.77-10.85 0-4.73 1.8-7.4 3.3-8.82a9 9 0 0 1 6.08-2.48h.02c4.5 0 8.04 3.65 8.77 7.2 2.36-1.4 4.16-2.51 6.38-3.87l1.65-1.01c-1.78-3.99-6.15-10.18-16.14-10.2zm-.64 8.92a8 8 0 0 0-5.35 2.2c-1.94 1.82-2.97 4.62-2.98 8.06 0 6.14 3.25 9.8 8.71 9.81h.02c3.74 0 6.08-1.43 6.67-4.05l-9.23-.01v-9.04l10 .01a8.15 8.15 0 0 0-7.83-6.98z" clip-rule="evenodd"/><path fill="#00FFA9" fill-rule="evenodd" d="M20.78 3.35c-5.1 0-9.86 1.6-13.4 4.5-4.12 3.4-6.3 8.36-6.32 14.38 0 5.36 1.82 10.2 5.15 13.6 3.45 3.54 8.26 5.42 13.91 5.43h.05c5.82 0 10.46-1.73 13.81-5.13 3.65-3.72 5.47-9.18 5.27-15.82l-20.2-.03-.01 6.96 9.4.01-.07.58c-.43 3.53-3.29 5.55-7.82 5.55h-.03c-6.12-.01-9.77-4.07-9.76-10.85 0-4.73 1.8-7.4 3.3-8.82a9 9 0 0 1 6.08-2.48h.01c4.51 0 8.05 3.65 8.78 7.2 2.36-1.4 4.15-2.51 6.38-3.87l1.65-1.01c-1.78-4-6.15-10.18-16.14-10.2z" clip-rule="evenodd"/></symbol><use xlink:href="#sprite-g8" width="71" height="45" y="271"/><view id="sprite-g8-view" viewBox="0 271 71 45"/><symbol id="sprite-glavstroy" fill="none" viewBox="0 0 107 13"><path fill="#ABABAB" d="M7.11 12.73h-7.1v-2.68l7.1-4.8zm.96-10.39 4.96 3.35v-5.51h-13.03v7.6zm.97 2.92v7.47h3.99v-4.77zm95.16-5.26h-3.44v1.33h3.44zm-81.46 4.37v6.9h-2.07v-8.7h6.96v1.8zm5.76 6.62q.78-1.34.78-4.18v-4.24h7.6v8.7h-2.07v-6.9h-3.47v2.25q0 3.32-.74 4.65h-2.1zm13.26-8.42h2.96l3.55 8.7h-2.26l-.7-1.8h-4.14l-.7 1.8h-2.25zm2.86 5.1-1.38-3.56-1.38 3.55zm4.99-5.1h4.64c1.75 0 2.9.88 2.9 2.24q0 1.41-1.49 1.98c1.14.32 1.8 1.02 1.8 2.05 0 1.54-1.2 2.43-3.15 2.43h-4.7zm4.57 3.35c.63 0 .97-.3.97-.8 0-.45-.35-.75-.97-.75h-2.5v1.56zm.26 3.54c.63 0 1.03-.33 1.03-.87s-.4-.87-1.03-.87h-2.77v1.74zm9.04.13c1.54 0 2.45-.95 2.75-2.4l1.89.73c-.53 2.14-2.18 3.47-4.65 3.47-2.87 0-4.73-1.92-4.73-4.47a4.5 4.5 0 0 1 4.73-4.47c2.38 0 3.89 1.26 4.28 2.89l-1.9.82c-.25-1.2-1.17-1.92-2.42-1.92a2.57 2.57 0 0 0-2.63 2.67 2.6 2.6 0 0 0 2.68 2.68m13.47-5.22h-3.09v6.9h-2.06v-6.9h-3.1v-1.8h8.25zm3.5 6.9h-2.06v-8.7h4.32c2 0 3.02 1.26 3.02 2.72 0 1.42-1.04 2.75-3.02 2.75h-2.26zm2.13-5.03c.67 0 1.1-.34 1.1-.94s-.43-.93-1.1-.93h-2.13v1.87zm13.97.68c.06 2.42-2.17 4.53-4.76 4.47-2.6.06-4.82-2.05-4.77-4.47-.05-2.43 2.18-4.52 4.77-4.47 2.59-.05 4.81 2.05 4.76 4.47m-2.06 0c0-1.6-1.2-2.61-2.7-2.61s-2.7 1.02-2.7 2.6 1.19 2.61 2.7 2.61 2.7-1.01 2.7-2.6m7.13 4.35h-3.53v-8.7h2.06v7.37l3.3-7.37h3.53v8.7h-2.06v-7.37z"/></symbol><use xlink:href="#sprite-glavstroy" width="107" height="13" y="316"/><view id="sprite-glavstroy-view" viewBox="0 316 107 13"/><symbol id="sprite-mixxrussia" fill="none" viewBox="0 0 73 22"><path fill="#0E0E0E" d="M27.51 3.54q-.59-.54-.98-.97c-1.97-2.14-4.25-.23-4.65 1.95l-.04.08q-.05.05-.04-.03.62-3.08 3.26-4.16a5.3 5.3 0 0 1 5.67 1l4.37 4.32q.02.02-.01.02h-.05q-1.15-1-2.62-1c-.73 0-1.52.36-2.29.33-1.34-.06-1.74-.73-2.62-1.54"/><path fill="#0E0E0E" d="M53.24 19.49a.14.14 0 0 0-.17-.04l-.05.04a8 8 0 0 1-1.97 1.66c-3.12 1.66-5.43.6-7.6-1.79q-.06-.06-.12 0c-1.16 1.26-2.18 2.19-3.89 2.52-2.44.48-4.1-.93-5.7-2.52a.1.1 0 0 0-.13-.03l-.05.03c-.64.67-1.3 1.39-2.08 1.84-3.12 1.78-5.27.3-7.46-1.9a.1.1 0 0 0-.15 0q-1.23 1.26-1.6 1.55-2.76 2.13-5.86.3c-.69-.41-1.47-1.26-2.13-1.92l-10.92-10.8c-1.19-1.17-1.92-1.27-3.17-.15q-.35.31-.05-.05 1.61-1.94 4.03-2.05c2.13-.1 3.67 1.21 5.03 2.7a.1.1 0 0 0 .16-.02 5.34 5.34 0 0 1 7.78-1.64q.57.41 1.78 1.68.08.08.14-.01c1.52-2.44 4.32-3.43 6.97-2.16.96.47 1.86 1.39 2.65 2.2q.06.06.13 0c.66-.58 1.35-1.36 1.97-1.8 2.9-2.05 5.4-.5 7.48 1.72a.2.2 0 0 0 .29-.01 7.2 7.2 0 0 1 4.17-2.6c2.26-.32 3.72 1.08 5.25 2.66a.1.1 0 0 0 .14 0c.91-.88 1.65-1.76 2.92-2.29 2.77-1.15 4.71.26 6.5 2.18a.16.16 0 0 0 .23 0q.6-.6 1.26-1.23c2.07-1.95 5.23-2.25 7.34-.16q2.24 2.21 4.46 4.44.03.02 0 .03h-.05q-1.24-.96-2.53-.93c-.7.01-1.7.38-2.42.36-1.14-.04-1.77-.8-2.58-1.68q-.07-.07-.14 0l-2.32 2.24q-.06.06 0 .12a608 608 0 0 0 7.65 7.57c2 1.94 4.15.01 4.5-2.14q.02-.06.05 0 .03.03.02.08a5.4 5.4 0 0 1-8.3 3.61q-.51-.32-1.96-1.84l-.08-.03-.07.03q-1.37 1.52-2.14 1.96c-2.84 1.65-5.19.4-7.21-1.73m7.2-8.01 2.26-2.22q.06-.05 0-.1c-1.42-1.66-3.2-1.79-4.6.02q-.05.06.01.12l2.15 2.18a.13.13 0 0 0 .18 0m-26.94-1.9c-1.29-1.64-2.98-2.14-4.58-.56q-.07.07 0 .14l2.48 2.47q.07.07.15 0l1.95-1.93q.05-.06 0-.12m9.35-.36c-1.22-1.45-2.93-1.56-4.22-.1a.1.1 0 0 0 0 .13l2.3 2.3a.2.2 0 0 0 .28 0l1.9-1.88q.08-.06.03-.15c-.08-.12-.23-.23-.3-.3m9.92.18c-1.27-1.5-2.93-1.87-4.38-.3a.1.1 0 0 0-.04.1q0 .05.04.1l2.27 2.25q.07.07.15 0l1.94-1.88q.14-.13.02-.27m-17.1 2.31v-.06l-1.97-1.93h-.06l-2.05 2.05-.01.04.01.03 1.96 1.93h.07zm7.8-1.91a.1.1 0 0 0-.1-.02l-.03.02-2.01 1.99a.1.1 0 0 0 0 .13l1.8 1.8a.1.1 0 0 0 .1.03l.04-.02 2.01-2a.1.1 0 0 0 0-.13zm11.43 1.85a.1.1 0 0 0 0-.14l-1.68-1.67a.1.1 0 0 0-.14 0l-2 2a.1.1 0 0 0 0 .13l1.68 1.67a.1.1 0 0 0 .13 0zm-35.72 6.94 1.94-1.93a.16.16 0 0 0 0-.22l-5.95-5.92a2 2 0 0 0-.54-.38 2 2 0 0 0-.63-.16 2 2 0 0 0-.62.1 1.4 1.4 0 0 0-.82.81q-.1.3-.1.61.03.33.17.63t.38.55l5.95 5.91a.16.16 0 0 0 .22 0m4.82-4.8 2-2a.1.1 0 0 0 0-.16l-1.15-1.15a1.7 1.7 0 0 0-1.14-.5 1.5 1.5 0 0 0-1.1.43l-.02.01a1.4 1.4 0 0 0-.32.5 2 2 0 0 0-.1.6 1.7 1.7 0 0 0 .51 1.13l1.16 1.14.08.03zm4.74.62.01-.03v-.02h-.01l-2.55-2.53h-.06l-2.09 2.1a.04.04 0 0 0 0 .06l2.55 2.51h.06zm9.6 0a.1.1 0 0 0 0-.1l-2.42-2.4a.1.1 0 0 0-.1 0l-2.02 2a.1.1 0 0 0 0 .1l2.42 2.41a.1.1 0 0 0 .1 0zm9.66-.06.01-.05v-.01l-2.37-2.34h-.06l-2.07 2.07-.01.02.01.04 2.36 2.34.03.01.03-.01zm9.6-.05a.1.1 0 0 0 0-.15l-2.18-2.16a.1.1 0 0 0-.15 0l-2 2.01a.1.1 0 0 0-.03.12l.02.04 2.19 2.15a.1.1 0 0 0 .15 0zm-26.77 2.22.02-.05-.02-.05-1.9-1.9a.1.1 0 0 0-.1 0l-2.08 2.07-.02.08.02.02 1.9 1.9.05.02.06-.02zm7.79-1.95a.1.1 0 0 0-.1 0l-2.05 2a.1.1 0 0 0 0 .1l1.85 1.86a.1.1 0 0 0 .1 0l2.04-2a.1.1 0 0 0 0-.1zm11.45 1.89a.1.1 0 0 0 0-.15l-1.7-1.66-.07-.03-.07.03-2 2.02-.03.07.03.07 1.7 1.66a.1.1 0 0 0 .14 0zm9.14 3.6c1.42 1.39 2.35.07 3.31-.84a.1.1 0 0 0 .03-.13l-.03-.04-4.42-4.4-.07-.03-.07.03-2.02 2-.03.07q0 .04.03.07a211 211 0 0 0 3.27 3.26m-37.8-3.32q-.1-.1-.2 0l-1.97 1.96q-.06.07 0 .13c.85.92 2.07 2.44 3.24 1.61q.55-.38 1.32-1.24a.1.1 0 0 0 0-.13zm7.55 2.14c.67.75 2.15 2.5 3.23 1.52q.54-.5 1.23-1.22.07-.07 0-.14l-2.28-2.32a.1.1 0 0 0-.16 0l-2.02 2.03q-.06.07 0 .13m11.89-2.1-.06-.03-.07.03-2.01 2q-.06.06 0 .13.64.75 1.42 1.38c1.22 1 2.16-.42 2.95-1.13a.1.1 0 0 0 0-.16zm8.74 3.33c1.33 1.24 2.3-.17 3.12-.95q.08-.08 0-.16l-2.13-2.17q-.07-.08-.15 0l-2.02 2q-.07.08 0 .15.34.35 1.18 1.13"/></symbol><use xlink:href="#sprite-mixxrussia" width="73" height="22" y="329"/><view id="sprite-mixxrussia-view" viewBox="0 329 73 22"/><symbol id="sprite-mr-group" fill="none" viewBox="0 0 84 19"><path fill="#ABABAB" d="m30.62 18.48-3.9-7.04h-2.43a6.6 6.6 0 0 0 3.66-1.54q1.97-1.65 1.99-4.1c.02-2.45-.69-3.02-1.99-4.1a7 7 0 0 0-4.89-1.7h-8.55l-5.04 13.3-5.2-13.3h-4.27v18.48h1.07v-16.47l6.41 16.47h1.23l6.1-16.4v16.4h3.98v-6.96h3.59l3.81 6.96zm-11.83-17.55h2.98c2.13 0 3.59 1.93 3.59 4.87s-1.46 4.87-3.6 4.87h-2.97zm34.29 12.99-1.91-3.56h-1.22a4 4 0 0 0 1.83-.77 2.5 2.5 0 0 0 1-2.09c0-.85-.31-1.47-1-2.01s-1.45-.85-2.45-.85h-4.12v9.28h1.99v-3.48h1.83l1.9 3.48zm-5.88-3.95v-4.87h1.45c1.07 0 1.75.93 1.75 2.4s-.68 2.4-1.75 2.4h-1.45zm11.83 3.95a5 5 0 0 1-3.43-1.32q-1.38-1.36-1.38-3.32c0-1.96.46-2.48 1.38-3.33.91-.92 2.06-1.31 3.43-1.31s2.52.46 3.44 1.31a4.5 4.5 0 0 1 1.38 3.33 4.4 4.4 0 0 1-1.38 3.32 4.6 4.6 0 0 1-3.44 1.32m0-.31c.84 0 1.45-.39 1.99-1.16.53-.77.76-1.86.76-3.17s-.23-2.32-.76-3.17q-.71-1.17-1.99-1.16c-1.28 0-1.45.38-1.98 1.16a6 6 0 0 0-.77 3.17c0 1.31.23 2.32.77 3.17a2.2 2.2 0 0 0 1.98 1.16m13.37-8.97v7.58q-.7 1.06-2.22 1.08c-1.68 0-2.75-1.08-2.75-2.94v-5.72h-1.98v5.49c0 1.08.38 2.01 1.15 2.7s1.75 1.01 2.97 1.01c1.15 0 1.99-.3 2.68-.93q.24-.22.38-.46l1.45 1.47h.3v-9.28zm8.1 0c.99 0 1.75.3 2.44.85s.99 1.24.99 2.01c0 .85-.3 1.47-1 2.09-.68.54-1.44.85-2.44.85h-2.13v3.48h-2v-9.28zm-.62 5.34c1.07 0 1.76-.93 1.76-2.4s-.69-2.4-1.76-2.4h-1.45v4.8zm-38.64 0v2.31c-.23.85-1 1.4-2.06 1.4-.92 0-1.53-.4-2.06-1.16a5.3 5.3 0 0 1-.77-3.1c0-2.78 1.3-4.4 3.44-4.4.76 0 1.37.15 1.83.54q.79.55.77 1.47h.38c0-.7-.39-1.4-1-1.86-.6-.46-1.45-.62-2.44-.62-1.45 0-2.6.47-3.59 1.32-.92.92-1.37 2.08-1.37 3.4s.45 2.47 1.37 3.4 2.14 1.32 3.44 1.32c1.22 0 2.21-.4 2.67-1.09l1.07 1h.3v-3.94z"/></symbol><use xlink:href="#sprite-mr-group" width="84" height="19" y="351"/><view id="sprite-mr-group-view" viewBox="0 351 84 19"/><symbol id="sprite-nlmk" fill="none" viewBox="0 0 70 32"><path fill="#B5B5B5" d="M9.92 10.67h3.6v3.8h3.6v-3.8h3.61v10.28h-3.6v-4.19h-3.6v4.2h-3.61zm22.98 0v10.28h-3.15v-8h-2.26v3.05c0 1.3-.42 2.91-1.35 3.81-.93 1-2.53 1.44-4.5 1.14v-2.66c1.85.3 2.25-.3 2.25-2.29v-5.33zm3.16 0h3.15l2.26 6.1 1.8-6.1h3.6l1.36 10.28h-3.16l-.9-5.71-1.8 5.71h-2.26l-1.8-5.71-.9 5.71h-3.16zm13.52 0h3.6v4.19l3.16-4.2h4.06l-4.51 4.96 4.5 5.33h-4.05l-3.15-4.19v4.2h-3.61zm-14.87-10.67c-20.9 0-34.71 6.46-34.71 16 0 9.44 13.81 16 34.7 16 21.02 0 34.71-6.56 34.71-16 0-9.54-13.7-16-34.7-16m0 30.48c-19.62 0-32.9-5.83-32.9-14.48-.01-8.74 13.28-14.48 32.9-14.48 19.73 0 32.9 5.73 32.9 14.48 0 8.65-13.17 14.48-32.9 14.48m0-27.43c-18.46 0-30.65 5.1-30.65 12.95s12.19 12.95 30.65 12.95 30.65-5.1 30.65-12.95-12.2-12.95-30.65-12.95m0 25.9c-18.23 0-30.2-5.3-30.2-12.95s11.97-12.95 30.2-12.95 30.2 5.3 30.2 12.95-11.98 12.95-30.2 12.95"/></symbol><use xlink:href="#sprite-nlmk" width="70" height="32" y="370"/><view id="sprite-nlmk-view" viewBox="0 370 70 32"/><symbol id="sprite-order" fill="none" viewBox="0 0 69 9"><path fill="#202020" d="M5.54 5.55q-.95.94-2.3.94-1.36 0-2.3-.94t-.94-2.3.94-2.3q.94-.95 2.3-.95t2.3.95.94 2.3-.94 2.3m-3.74-.83q.58.57 1.44.57.85 0 1.43-.57.58-.58.58-1.47t-.58-1.48-1.43-.58-1.44.58-.58 1.48.58 1.47m10.2-2.1q.59.63.59 1.52a2.2 2.2 0 0 1-.59 1.52q-.59.63-1.61.78v1.7h-1.13v-1.7q-1.02-.15-1.61-.78a2.2 2.2 0 0 1-.59-1.52q0-.9.59-1.53t1.61-.78v-1.7h1.13v1.7q1.02.15 1.61.78m-3.8 1.53q0 .44.27.76.28.32.8.44v-2.4q-.53.1-.8.43a1 1 0 0 0-.28.77m2.2 1.2q.51-.12.78-.44.28-.32.28-.76 0-.46-.28-.77-.27-.32-.78-.44zm6.8.47a2.3 2.3 0 0 1-1.67.68q-1 0-1.68-.68a2.3 2.3 0 0 1-.68-1.67q0-1 .68-1.67a2.3 2.3 0 0 1 1.68-.69q.99 0 1.68.69t.68 1.67a2.3 2.3 0 0 1-.68 1.67m-2.55-.8q.35.36.87.36t.86-.35.35-.88-.35-.89a1.2 1.2 0 0 0-.86-.34q-.52 0-.87.34t-.34.89.34.88m6.63-3.24q.9 0 1.54.69t.64 1.67q0 .99-.64 1.67t-1.54.68q-.93 0-1.44-.65v2.3h-1.15v-6.23h1.15v.52q.5-.65 1.44-.65m-1.1 3.27q.36.34.9.34t.87-.34.36-.91-.36-.9a1.2 1.2 0 0 0-.88-.36q-.53 0-.88.36-.35.34-.35.9t.35.9m8.72-3.13v4.46h-1.12v-2.6l-1.13 1.78h-.14l-1.14-1.8v2.62h-1.1v-4.46h1.12l1.19 1.87 1.19-1.87zm4.27 0h.85v4.46h-1.12v-2.54l-2.1 2.54h-.85v-4.46h1.12v2.53zm5.42 0v1.1h-1.4v3.36h-1.14v-3.36h-1.41v-1.1zm2.63 1.43q.76 0 1.22.41t.46 1.1-.46 1.1-1.22.42h-2.02v-4.46h1.15v1.42zm0 2.01a.6.6 0 0 0 .4-.13.5.5 0 0 0 .16-.37.5.5 0 0 0-.16-.36.6.6 0 0 0-.4-.15h-.87v1.01zm7.25-1.26q.68.33.68 1.06 0 .58-.48.96t-1.33.38q-1.35 0-1.84-1.07l.94-.55q.21.6.91.6.32 0 .5-.12a.4.4 0 0 0 .17-.34q0-.41-.52-.41h-.64v-.98h.48q.52 0 .52-.41 0-.2-.15-.31a.6.6 0 0 0-.4-.12q-.58 0-.83.56l-.93-.53q.51-1.03 1.74-1.03.77 0 1.21.4.46.38.46.93 0 .65-.5.98m4.8-2.18h1.15v4.45h-1.15v-.52q-.52.65-1.45.65-.9 0-1.54-.68-.63-.68-.63-1.67t.63-1.67q.64-.69 1.54-.69.93 0 1.45.65zm-2.12 3.13q.34.35.88.35t.88-.35q.36-.35.36-.9 0-.56-.36-.9a1.2 1.2 0 0 0-.88-.36q-.53 0-.88.36-.35.34-.35.9t.35.9m8.42 1.33h-1.33l-1.63-2.03v2.02h-1.15v-4.45h1.15v1.96l1.53-1.96h1.38l-1.8 2.2zm3.64-4.46h1.15v4.45h-1.15v-.52q-.51.65-1.45.65-.9 0-1.53-.68-.64-.68-.64-1.67t.64-1.67q.64-.69 1.53-.69.94 0 1.45.65zm-2.12 3.14q.35.34.88.34.54 0 .89-.34.35-.36.35-.91t-.35-.9a1.2 1.2 0 0 0-.89-.36q-.53 0-.88.36-.35.34-.35.9t.35.9m6.93-.95q.68.33.68 1.06 0 .57-.48.96t-1.32.38q-1.36 0-1.85-1.07l.94-.55q.21.6.91.6.33 0 .5-.12a.4.4 0 0 0 .17-.34q0-.41-.52-.41h-.64v-.98h.49q.51 0 .51-.41 0-.2-.15-.31a.6.6 0 0 0-.4-.12q-.58 0-.83.56l-.93-.53q.51-1.03 1.74-1.03.77 0 1.21.4.46.38.46.93 0 .65-.5.98"/></symbol><use xlink:href="#sprite-order" width="69" height="9" y="402"/><view id="sprite-order-view" viewBox="0 402 69 9"/><symbol id="sprite-otkritie" fill="none" viewBox="0 0 98 19"><path fill="#ABABAB" d="M9.8 0c-5.41 0-9.8 4.25-9.8 9.5s4.39 9.5 9.8 9.5 9.8-4.25 9.8-9.5-4.42-9.5-9.8-9.5m-1.4 13.53-.72 2.05a6.5 6.5 0 0 1-4.51-6.17 6.5 6.5 0 0 1 4.56-6.17l.72 2.06a4.3 4.3 0 0 0-2.98 4.07 4.2 4.2 0 0 0 2.94 4.16m3.38 2.1-.67-2.1a4.26 4.26 0 0 0 .04-8.19l.72-2.1a6.5 6.5 0 0 1 4.61 6.17 6.6 6.6 0 0 1-4.7 6.22m84.84-4.43 1.05 1.25a5 5 0 0 1-3.55 1.42 6 6 0 0 1-2.45-.47c-1.4-.69-2.1-2.07-2.1-3.75 0-2.53 1.75-4.43 4.34-4.43 2.88 0 4.28 2.11 4.07 4.86h-6.57a2.2 2.2 0 0 0 1 1.68c.49.3 1.06.43 1.8.43.83.05 1.67-.25 2.4-.99m-5.11-2.58h4.64c-.13-.99-.97-1.85-2.28-1.85-1.4 0-2.23.95-2.36 1.85m-44.1 5.04h2.36l-3.72-4.26 3.67-4h-2.31l-2.8 3.18h-.84v-3.18h-1.79v8.21h1.8v-3.27h.83zm7.74-6.76c-1.53 0-2.54 1.16-2.54 2.63s1 2.62 2.54 2.62c1.53 0 2.5-1.12 2.5-2.62 0-1.42-.92-2.63-2.5-2.63m.3-1.68c2.37 0 4.12 1.81 4.12 4.3 0 2.46-1.7 4.35-4.11 4.35a3.6 3.6 0 0 1-2.72-1.07v4.3h-1.83v-11.66h1.79v.99c.7-.82 1.58-1.2 2.76-1.2m23.8.2h-7.48v1.64h2.84v6.59h1.84v-6.59h2.84v-1.63zm-38.55 0h-7.48v1.64h2.84v6.59h1.8v-6.59h2.84zm-9.71 4.14c0-1.55-1.1-2.67-2.63-2.67a2.6 2.6 0 0 0-2.62 2.67c0 1.55 1.1 2.67 2.62 2.67a2.6 2.6 0 0 0 2.63-2.67m-7.09 0c0-2.45 1.93-4.3 4.5-4.3s4.51 1.85 4.51 4.3-1.92 4.34-4.5 4.34-4.51-1.89-4.51-4.34m64.23-4.13v8.22h-1.8v-5.3l-4.37 5.3h-1.44v-8.22h1.8v5.3l4.37-5.3zm-17.59 8.22h-1.8v-8.22h1.8zm-4.68-2.8a1.2 1.2 0 0 0-1.23-1.25h-1.83v2.54h1.84c.7 0 1.22-.56 1.22-1.29m1.84 0c0 1.64-1.23 2.8-2.98 2.8h-3.67v-8.22h1.8v2.67h2.05c1.7 0 2.8 1.07 2.8 2.75"/></symbol><use xlink:href="#sprite-otkritie" width="98" height="19" y="411"/><view id="sprite-otkritie-view" viewBox="0 411 98 19"/><symbol id="sprite-phone" fill="none" viewBox="0 0 20 25"><path stroke="#04251A" stroke-width=".453" d="m7.07 2.05-5.8 16.55a2.72 2.72 0 0 0 2.57 3.62h7.7a2.7 2.7 0 0 0 2.62-1.99l4.6-16.55a2.72 2.72 0 0 0-2.62-3.45h-6.5a2.7 2.7 0 0 0-2.57 1.82Z"/><path fill="#04251A" fill-rule="evenodd" d="M7 2.2a2.95 2.95 0 0 1 2.77-1.97h6.51a2.95 2.95 0 0 1 2.84 3.73l-4.6 16.56a2.95 2.95 0 0 1-2.85 2.15h-7.7a2.95 2.95 0 0 1-2.78-3.92zm.03.75c.41-1.18 1.24-2.5 2.5-2.5h7.25c1.95 0 2.86 3.45 2.34 5.33l-4.15 16.55a2.95 2.95 0 0 1-2.84 2.16h-8.16c-2.03 0-3.57-3.22-2.9-5.14z" clip-rule="evenodd"/><path stroke="#04251A" stroke-linecap="round" stroke-width=".453" d="M5.44 21.09h4.08"/><path fill="#04251A" d="M14.34 1.13h-3.4a.5.5 0 0 0-.4.25l-.23.46a.45.45 0 0 0 .4.65h3.47a.45.45 0 0 0 .43-.3l.16-.46a.45.45 0 0 0-.43-.6"/><path stroke="#04251A" stroke-linecap="round" stroke-width=".453" d="m13.15 18.82 4.3-14.96"/><path fill="#04251A" d="M7.7 3.93a.23.23 0 1 0-.43-.15l.21.08zm-5.43 14.66.21.08 5.22-14.74-.22-.07-.21-.08-5.22 14.74zm9.18.23h-7.37c.3-.38 1.59-1.13 1.59-1.13l1.58-3.18.39 1.27c.11.38.62.44.82.1l1.74-2.96v1.6c0 .5.66.64.87.2l4.8-10.18-3.99 13.95a.45.45 0 0 1-.43.33"/><path stroke="#04251A" stroke-linecap="round" stroke-width=".453" d="M6.35 12.02h4.99m-3.63-3.18h4.99m-3.63-4.08h5.67"/></symbol><use xlink:href="#sprite-phone" width="20" height="25" y="430"/><view id="sprite-phone-view" viewBox="0 430 20 25"/><symbol id="sprite-rosatom" fill="none" viewBox="0 0 76 34"><path fill="#ABABAB" d="M20.07 16.64a3.4 3.4 0 0 1-3.44 3.42 3.44 3.44 0 0 1-3.43-3.43 3.4 3.4 0 0 1 3.43-3.43 3.44 3.44 0 0 1 3.44 3.44m-3.26-16.64a17 17 0 0 0-7.3 1.64c2.95-.3 6 .99 8.27 3.3a16 16 0 0 1 2.97 4.38c4.8.87 8.06-1.55 9.34-2.99a17.1 17.1 0 0 0-13.28-6.33"/><path fill="#ABABAB" d="M6.94 3.22a17 17 0 0 0-5.36 6.77c1.41.34 5.64 1.71 7.58 6.9.58-.18 1.84-.9 2.71-3.72 1.07-3.43 3.02-6.75 5.55-8.23-2.8-2.68-7.02-3.86-10.48-1.72m24.67 22.3a17 17 0 0 0 2.18-7.04 10.1 10.1 0 0 1-6.74 5.46q-2.24.62-5.06.41a10.2 10.2 0 0 0-2.06 9.44c4.76-.83 9.1-3.7 11.68-8.27"/><path fill="#ABABAB" d="M33.79 14.98a17 17 0 0 0-3.25-8.12 10.9 10.9 0 0 1-9.9 3.1c-.14.61-.12 2.07 1.9 4.26 2.5 2.68 4.44 6.06 4.45 9.01 3.77-1.06 6.93-4.16 6.8-8.25m-31.44 10.68a17 17 0 0 0 5.15 5.5c-1.77-2.4-2.2-5.68-1.35-8.77q.62-2.31 2.3-4.7a10.3 10.3 0 0 0-7.35-6.6 16.8 16.8 0 0 0 1.25 14.57"/><path fill="#ABABAB" d="M10.37 32.47a17 17 0 0 0 8.53 1.21 10.5 10.5 0 0 1 2.22-9.86c-.45-.4-1.71-1.1-4.57-.47-3.5.8-7.36.78-9.89-.64-.95 3.7.14 7.88 3.7 9.76m27.92-18.21h1.6c1.2 0 1.86.5 1.86 1.38 0 .81-.5 1.26-1.13 1.4.5.18.76 1.34 1.36 2.5h-.79c-.98-1.94-.74-2.35-1.68-2.35h-.52v2.35h-.69zm.68 2.3h.95c.65 0 1.07-.23 1.07-.86 0-.52-.34-.81-1.16-.81h-.87zm4.34.34c0-1.64.96-2.64 2.35-2.64 1.56 0 2.4 1.09 2.4 2.64 0 1.74-1.01 2.64-2.38 2.64-1.46 0-2.37-1.02-2.37-2.64m4.03 0c0-1.4-.64-2.03-1.68-2.03-.92 0-1.63.65-1.63 2.03 0 1.34.68 2.03 1.72 2.03.98 0 1.6-.7 1.6-2.03m2.46 1.64a2 2 0 0 0 1.22.37q1.04-.02 1.04-.85c0-.59-.29-.75-1.01-1.02l-.19-.06c-.77-.28-1.13-.63-1.13-1.41 0-.84.64-1.31 1.69-1.31.64 0 1.13.19 1.24.28l-.17.57c-.38-.18-.8-.23-1.12-.23-.58 0-.92.24-.92.7 0 .4.17.64 1 .94l.2.07c.92.34 1.15.78 1.15 1.45 0 .96-.7 1.5-1.7 1.5-.56 0-1.1-.15-1.47-.39zm7.58-.41h-2.3l-.52 1.4h-.7l2.05-5.27h.69l2.01 5.28h-.72zm-2.07-.62h1.86l-.9-2.49h-.04zm6 2.03h-.65v-4.65h-1.52v-.63h3.7v.63h-1.53zm2.58-2.64c0-1.64.96-2.64 2.35-2.64 1.56 0 2.4 1.09 2.4 2.64 0 1.74-1 2.64-2.38 2.64-1.45 0-2.37-1.02-2.37-2.64m4.03 0c0-1.4-.64-2.03-1.68-2.03-.91 0-1.63.65-1.63 2.03 0 1.34.69 2.02 1.73 2.02.99 0 1.59-.7 1.59-2.02m7.57 2.64h-.66l-.31-4.13-1.31 4.13h-.7l-1.3-4.12-.33 4.12h-.67l.44-5.28h.83l1.38 4.54 1.37-4.54h.83z"/></symbol><use xlink:href="#sprite-rosatom" width="76" height="34" y="455"/><view id="sprite-rosatom-view" viewBox="0 455 76 34"/><symbol id="sprite-rostech" fill="none" viewBox="0 0 80 25"><path fill="#ABABAB" fill-rule="evenodd" d="M3.17 3.21h8.29l-3.18-3.2h-8.28v8.38l3.17 3.2zm10 0h8.28v8.39l3.17-3.21v-8.39h-8.29zm8.28 10.12v8.38h-8.28l3.16 3.21h8.29v-8.39zm-10 8.38h-8.28v-8.38l-3.17 3.2v8.39h8.29z" clip-rule="evenodd"/><path fill="#000" fill-rule="evenodd" d="M44.78 19c1.06 0 1.92.97 1.92 2.17s-.86 2.17-1.92 2.17-1.91-.97-1.91-2.17.85-2.18 1.91-2.18m0-1.66a3.83 3.83 0 0 1 3.82 3.84 3.83 3.83 0 0 1-3.82 3.83 3.82 3.82 0 0 1 0-7.66m8.93 1.65c.65 0 1.26.3 1.61.87l1.25-1.22a3.8 3.8 0 0 0-2.86-1.3 3.83 3.83 0 0 0-3.82 3.83c0 2.11 1.7 3.83 3.82 3.83a3.8 3.8 0 0 0 2.91-1.36l-1.3-1.13c-.35.55-.97.83-1.61.83-1.06 0-1.92-.97-1.92-2.17s.86-2.18 1.92-2.18m12.6 2.68h5.49q.03-.25.03-.5c0-2.12-1.65-3.84-3.68-3.84s-3.68 1.72-3.68 3.84 1.65 3.83 3.68 3.83c1.16 0 2.5-.2 3.17-1.07l-.84-1.23c-.42.61-1.53.78-2.24.78-.94 0-1.73-.77-1.92-1.8m.04-1.2c.25-.94 1-1.63 1.88-1.63s1.62.69 1.87 1.63zm-8.63-2.97h5.9v1.64h-2.04v5.67h-1.82v-5.67h-2.04zm17.11 3.54-2.48-3.54h2.2l1.48 2.26 1.49-2.26h2.2l-2.5 3.54 2.6 3.77h-2.12l-1.67-2.44-1.67 2.45h-2.12zm1.2-.93v.01h.01zm-39.5-3.57c.79 0 1.43.65 1.43 1.45s-.64 1.45-1.43 1.45h-2.42v-2.9zm-4.42-1.72h4.83a3.15 3.15 0 0 1 3.13 3.17c0 1.75-1.4 3.17-3.13 3.17h-2.83v3.65h-2z" clip-rule="evenodd"/><path fill="#ABABAB" fill-rule="evenodd" d="M44.78 19c1.06 0 1.92.97 1.92 2.17s-.86 2.17-1.92 2.17-1.91-.97-1.91-2.17.85-2.18 1.91-2.18m0-1.66a3.83 3.83 0 0 1 3.82 3.84 3.83 3.83 0 0 1-3.82 3.83 3.82 3.82 0 0 1 0-7.66m8.93 1.65c.65 0 1.26.3 1.61.87l1.25-1.22a3.8 3.8 0 0 0-2.86-1.3 3.83 3.83 0 0 0-3.82 3.83c0 2.11 1.7 3.83 3.82 3.83a3.8 3.8 0 0 0 2.91-1.36l-1.3-1.13c-.35.55-.97.83-1.61.83-1.06 0-1.92-.97-1.92-2.17s.86-2.18 1.92-2.18m12.6 2.68h5.49q.03-.25.03-.5c0-2.12-1.65-3.84-3.68-3.84s-3.68 1.72-3.68 3.84 1.65 3.83 3.68 3.83c1.16 0 2.5-.2 3.17-1.07l-.84-1.23c-.42.61-1.53.78-2.24.78-.94 0-1.73-.77-1.92-1.8m.04-1.2c.25-.94 1-1.63 1.88-1.63s1.62.69 1.87 1.63zm-8.63-2.97h5.9v1.64h-2.04v5.67h-1.82v-5.67h-2.04zm17.11 3.54-2.48-3.54h2.2l1.48 2.26 1.49-2.26h2.2l-2.5 3.54 2.6 3.77h-2.12l-1.67-2.44-1.67 2.45h-2.12zm1.2-.93v.01h.01zm-39.5-3.57c.79 0 1.43.65 1.43 1.45s-.64 1.45-1.43 1.45h-2.42v-2.9zm-4.42-1.72h4.83a3.15 3.15 0 0 1 3.13 3.17c0 1.75-1.4 3.17-3.13 3.17h-2.83v3.65h-2z" clip-rule="evenodd"/></symbol><use xlink:href="#sprite-rostech" width="80" height="25" y="489"/><view id="sprite-rostech-view" viewBox="0 489 80 25"/><symbol id="sprite-sber" fill="none" viewBox="0 0 77 21"><path fill="#ABABAB" d="m60.5 6.05 2.76-2.05h-9.22v12.3h9.22v-2.06h-6.59v-3.14h5.63v-2.05h-5.63v-3zm-13.3 2.74h-3.27v-2.74h5.24l2.82-2.05h-10.76v12.3h5.63c3.15 0 4.97-1.42 4.97-3.87 0-2.35-1.64-3.64-4.62-3.64m-.45 5.45h-2.83v-3.4h2.83c1.71 0 2.51.56 2.51 1.71q-.02 1.71-2.51 1.7m24.6-10.25h-5.03v12.3h2.64v-3.49h2.4c3.2 0 5.2-1.69 5.2-4.4s-2-4.41-5.22-4.41m-.06 6.76h-2.34v-4.7h2.34c1.7 0 2.62.84 2.62 2.35s-.92 2.35-2.62 2.35m-34.93 3.18a5 5 0 0 1-2.3.6 4 4 0 0 1-4.13-4.13 4 4 0 0 1 4.13-4.12 4 4 0 0 1 2.42.77l1.91-1.43-.12-.12a6.3 6.3 0 0 0-4.3-1.51 6.8 6.8 0 0 0-4.7 1.78 6.2 6.2 0 0 0-1.86 4.55 6.5 6.5 0 0 0 1.85 4.64 6.6 6.6 0 0 0 4.7 1.83c1.91 0 3.59-.67 4.71-1.9l-1.7-1.28zm-17.37-9.94q.73.92 1.24 1.99l-9.38 6.72-3.94-2.4v-2.88l3.92 2.38z"/><path fill="#ABABAB" fill-rule="evenodd" d="M18.44 10.5a7.94 7.94 0 1 1-3.7-6.72l2.21-1.56a10.5 10.5 0 0 0-6.45-2.22 10.5 10.5 0 1 0 10.27 8.28l-2.35 1.66z" clip-rule="evenodd"/></symbol><use xlink:href="#sprite-sber" width="77" height="21" y="514"/><view id="sprite-sber-view" viewBox="0 514 77 21"/><symbol id="sprite-schlumberger" fill="none" viewBox="0 0 131 30"><path fill="#B5B5B5" d="M37.73 0h-4.12v24.31h4.12zm-27.86 13.33c-1.66-1.88-2.85-2.91-4.48-4.47-.52-.54-.75-.9-.75-1.78v-2.7a.73.73 0 0 1 .9-.7h.01a.7.7 0 0 1 .54.7v4.39h4.57v-4.34c0-3.22-2.56-4.36-5.36-4.36-2.79 0-5.3 1.2-5.3 4.39v3.39c0 1.13.25 1.73.65 2.43 1.22 1.93 3.7 3.67 4.78 4.96.6.67.65 1.22.65 1.78v3.43l-.04.24a1 1 0 0 1-.24.36l-.23.12a.73.73 0 0 1-.94-.55l-.01-.14v-.02l-.01-.49v-4.73h-4.57v5.13c0 3.22 2.56 4.4 5.36 4.4s5.36-1.18 5.36-4.56v-3.94c0-1.59-.3-2.28-.89-2.94m11.68-1.66v-2.6c0-2.91-2.26-4.37-4.84-4.37-2.57 0-4.8 1.46-4.8 4.37v11.1c0 2.92 2.2 4.38 4.8 4.38s4.84-1.46 4.84-4.38v-3.53h-4.11v4.02a.7.7 0 0 1-.62.69h-.1a.6.6 0 0 1-.41-.16.7.7 0 0 1-.26-.54v-.06l-.02-.25v-11.44l.01-.14v-.19a.7.7 0 0 1 1.4 0v.1l.01.23v2.77h4.12zm8.03-6.96c-1.1 0-2.5.75-2.65 1.94h-.16v-6.65h-4.11v24.31h4.11v-15.37c0-.3.19-.55.45-.65l.03-.01h.05l.17-.03a.7.7 0 0 1 .7.7v15.37h4.12v-15.36c0-2.23-.1-4.24-2.72-4.24m15 .22v15.38a.7.7 0 0 1-1 .63.7.7 0 0 1-.4-.63v-15.38h-4.12v16.14c0 2.04.74 3.47 2.88 3.47 1.23 0 2.63-1.1 2.63-2.41h.06l-.04 2.17h4.11v-19.37zm17.88-.23c-1.65 0-2.11.71-2.83 2-.5-1.56-1.2-2-2.66-2-1.65 0-2.11.68-2.77 1.97h-.06v-1.73h-4.12v19.37h4.12v-15.35c0-.4.33-.73.73-.73.41 0 .74.32.74.73v15.34h4.11v-15.34c0-.4.33-.73.74-.73s.73.32.73.73v15.35h4.11v-16c0-1.47-.26-3.6-2.85-3.6m10.87-.01a2.7 2.7 0 0 0-2.59 1.94h-.06v-6.65h-4.11v24.3h4.11v-2.03h.06c.35 1.36 1.36 2.27 2.59 2.27 2.55 0 2.88-2.17 2.88-4.34v-11.25c0-2.17-.33-4.24-2.88-4.24m-1.23 5.92v9.68a.7.7 0 0 1-.71.7h-.03a.6.6 0 0 1-.33-.1.7.7 0 0 1-.35-.6v-11.37a.7.7 0 1 1 1.41 0zm15-1.56c0-2.9-2.26-4.37-4.83-4.37s-4.81 1.46-4.81 4.37v11.1c0 2.92 2.2 4.38 4.81 4.38s4.83-1.45 4.83-4.38v-3.53h-4.11v4.03a.7.7 0 0 1-.7.7.7.7 0 0 1-.71-.7v-5.4h5.53zm-4.11 3.32h-1.42v-3.8c0-.38.32-.7.7-.7s.7.32.7.7v3.8zm12.47-7.68c-1.42 0-2.31.71-2.9 1.9h-.07v-1.66h-4.11v19.36h4.11v-15.37a.7.7 0 0 1 .44-.65l.12-.04h.03l.12-.02c.39 0 .7.32.7.7v6.45h4.11v-7.28c0-2.1-.51-3.4-2.56-3.4m24.04 4.38c0-2.91-2.26-4.37-4.83-4.37s-4.81 1.46-4.81 4.37v11.1c0 2.91 2.2 4.37 4.81 4.37s4.83-1.45 4.83-4.37v-3.54h-4.1v4.02a.71.71 0 0 1-1.43 0v-5.38h5.53zm-4.1 1.2v2.1h-1.43v-3.78c0-.4.32-.71.71-.71s.71.31.71.7zm12.32-5.57c-1.43 0-2.31.71-2.91 1.9h-.07v-1.66h-4.11v19.36h4.11v-15.37a.7.7 0 0 1 .7-.7.7.7 0 0 1 .71.7v6.45h4.12v-7.28c0-2.1-.52-3.4-2.56-3.4m-23.08.24v1.8h-.15c-.47-1.09-1.55-2.04-2.78-2.04-1.88 0-2.6 1.6-2.6 3.47v11.67c0 1.86.72 3.27 2.6 3.27 1.23 0 2.3-.78 2.78-1.86h.16v4.66a.7.7 0 0 1-.7.7.7.7 0 0 1-.71-.7v-1.76h-4.11v1.07c0 3.18 1.97 4.37 4.83 4.37s4.81-1.19 4.81-4.37v-20.28zm0 14.1a.7.7 0 0 1-.7.7.7.7 0 0 1-.71-.7v-10.11a.7.7 0 0 1 1.4 0z"/></symbol><use xlink:href="#sprite-schlumberger" width="131" height="30" y="535"/><view id="sprite-schlumberger-view" viewBox="0 535 131 30"/><symbol id="sprite-severstal" fill="none" viewBox="0 0 91 29"><path fill="#AEAFB0" d="M5.9 24.65c-3.82 0-5.9-2.85-5.9-6.41 0-3.6 2.45-6.56 6.46-6.56 1.07 0 2 .15 2.8.58v2.32a5 5 0 0 0-2.71-.77c-2.72 0-3.73 2.07-3.73 4.25 0 2.43 1.27 4.35 3.48 4.35a5.3 5.3 0 0 0 2.71-.8l.68 1.88a6.6 6.6 0 0 1-3.79 1.16m43.02 0c-2.83 0-4.28-2.15-4.28-4.7 0-2.86 1.92-4.75 4.49-4.75 1.13 0 1.73.23 2.2.52v2.05a2.8 2.8 0 0 0-1.83-.63c-1.45 0-2.39 1.1-2.39 2.68 0 1.42.73 2.81 2.35 2.81.45 0 1.06-.2 1.7-.54l.6 1.7c-.73.5-1.95.86-2.84.86m7.87-7.22v7.04h-2.51v-7.04h-2.45v-2.06h7.72l-.54 2.06zm12.16-1c0 3.18-.12 4.83-.68 5.59a1.8 1.8 0 0 1-1.17.7l.7 1.93a3.2 3.2 0 0 0 2.08-.9 4.7 4.7 0 0 0 1.19-2.92c.1-.92.17-2 .17-2.95v-.45h1.97v7.04h2.51v-9.1h-6.77zm-28.51-1.23c-.98 0-1.73.48-2.38 1l-.28-.82h-2.11v13.51l2.51-.79v-3.83q.7.38 1.7.38c2.6 0 4.17-2.29 4.17-4.99 0-2.88-1.59-4.46-3.61-4.46m-1.17 7.58c-.46 0-.8-.17-1.09-.37v-4.3c.3-.47 1.09-1.02 1.75-1.02 1.01 0 1.6.66 1.6 2.53 0 1.55-.55 3.15-2.26 3.15m23.9-7.58a6 6 0 0 0-3.55 1l.76 1.57a4.5 4.5 0 0 1 2.25-.61c.87 0 1.65.4 1.65 1.35v.16l-1.52.06c-2.23.07-3.73 1.07-3.73 2.98a2.8 2.8 0 0 0 2.93 2.95 3.5 3.5 0 0 0 2.49-.98l.39.8h1.97v-5.9c0-2.4-1.3-3.38-3.64-3.38m1.11 7.03c-.24.19-.74.42-1.41.42-.86 0-1.34-.44-1.34-1.13q-.01-1.04 1.6-1.11l1.15-.04zm16.33-3.9h-1.3v-3.34l-2.51.7v8.79h3.21c2.34 0 4.53-.65 4.53-3.15 0-2.13-1.77-3-3.93-3m-.42 4.35h-.88v-2.53h.84c.9 0 1.87.14 1.87 1.22 0 1.06-.84 1.31-1.83 1.31m-55.82-3.15v-.08c.82-.18 1.5-.73 1.5-1.92 0-1.42-1.16-1.94-2.29-2.1-.35-.04-1.11-.04-1.54-.04h-3.59v9.09h3.02l1.22-.01c1.59-.08 3.55-.67 3.55-2.78 0-1.3-.68-1.95-1.87-2.16m-3.36-2.41h1.03c1.03 0 1.42.32 1.42.88 0 .7-.63.92-1.68.92h-.77zm.98 5.63h-1.03v-2.23h.9c1.21 0 1.86.29 1.86 1.1 0 .86-.85 1.13-1.73 1.13m-4.37-2.9c0-2.8-1.68-4.64-4.09-4.64-2.63 0-4.12 2.2-4.12 4.75 0 2.4 1.3 4.7 4.44 4.7 1.06 0 2.25-.25 3.47-1.05l-.56-1.64c-.99.5-1.64.65-2.5.65-1.16 0-2.28-.75-2.33-1.98h5.7zm-5.75-.99c0-.83.58-1.76 1.6-1.76 1.06 0 1.53.9 1.58 1.76zm23.08 1c0-2.82-1.68-4.65-4.09-4.65-2.64 0-4.12 2.2-4.12 4.75 0 2.4 1.3 4.7 4.44 4.7 1.06 0 2.25-.25 3.47-1.05l-.56-1.64c-1 .5-1.64.65-2.5.65-1.17 0-2.28-.75-2.34-1.98h5.7zm-5.75-1c0-.83.58-1.76 1.59-1.76 1.07 0 1.54.9 1.59 1.76zm59.82-9.9a2 2 0 0 1-.44.24c-.5.16-1.12 0-1.67-.23a9 9 0 0 1-1.23-.66 15 15 0 0 0 1.05-4.88 9 9 0 0 0-.06-1.46c-.08-.61-.26-1.23-.65-1.6a2 2 0 0 0-.43-.28 11 11 0 0 1 2.1-.05c.65.06 1.31.22 1.7.61s.55 1.07.62 1.74a12 12 0 0 1 0 2.17 18 18 0 0 1-.48 2.69 21 21 0 0 1-.51 1.71m-9.51-.5a2 2 0 0 1 .02-.51c.11-.53.55-1 1.02-1.38a9 9 0 0 1 1.17-.77 15 15 0 0 0 3.58 3.39q.66.42 1.26.67c.55.23 1.16.38 1.66.22q.23-.08.46-.25-.49 1.12-1.01 1.9c-.38.56-.84 1.07-1.36 1.21s-1.18-.03-1.77-.3a11 11 0 0 1-1.83-1.1 17 17 0 0 1-2.02-1.77 19 19 0 0 1-1.18-1.31m5.16-8.24q.24.11.42.28c.38.36.56.98.64 1.6q.09.64.07 1.43a14 14 0 0 0-4.64 1.5q-.68.37-1.2.79c-.46.37-.9.84-1.01 1.37q-.05.25-.02.53a12 12 0 0 1-1.1-1.85c-.27-.61-.46-1.28-.33-1.82s.62-1.03 1.15-1.43a11 11 0 0 1 1.83-1.08q1.06-.5 2.5-.92a18 18 0 0 1 1.7-.4"/></symbol><use xlink:href="#sprite-severstal" width="91" height="29" y="565"/><view id="sprite-severstal-view" viewBox="0 565 91 29"/><symbol id="sprite-sibur" fill="none" viewBox="0 0 69 13"><path fill="#B5B5B5" d="M15.38 13h4.52c1.46 0 1.71-.86 1.8-1.64l1.1-11.36h-4.49c-1.28 0-1.72.66-1.82 1.74zm31.18-3.05h-1.57l.97-9.95h-6.16l-1.11 11.55q.01.6.47 1.02c.46.42.7.43 1.13.43h10.66c.4 0 .79-.14 1.08-.38s.48-.57.52-.93l1.13-11.69h-6.15zm-43.77-9.95c-1.1 0-1.7.51-1.82 1.72l-.48 5.07c-.05.57.18 1.06.96 1.06h6.68l-.24 2.44h-1.59l.11-1.12h-6.15s-.18 1.94-.26 2.62.16 1.21 1.12 1.21h10.93c1.73 0 1.82-1.14 1.92-2.01.1-.8.45-4.59.5-5.06a1 1 0 0 0-.04-.3 1 1 0 0 0-.17-.27 1 1 0 0 0-.28-.17 1 1 0 0 0-.33-.04h-6.85l.24-2.45h1.6l-.12 1.13h6.16s.18-2.19.26-2.8-.28-1.03-1-1.03zm21.57 0-1.27 13h12.31c1.04 0 1.63-.58 1.72-1.59l.29-2.91a1 1 0 0 0-.07-.57 1 1 0 0 0-.39-.46l-1.46-.96 1.76-1.03c.36-.21.5-.48.54-.98l.26-2.78c.09-.94-.5-1.72-1.75-1.72zm7.46 2.7-.24 2.46h-1.57l.24-2.44zm-2.08 5.15h1.58l-.24 2.46h-1.57zm37.67-7.85h-12.15l-1.25 13h6.15l.4-4.02h1.56l-.4 4.02h6.16l.32-3.28q.06-.33-.07-.64a1.2 1.2 0 0 0-.42-.52l-1.4-.93 1.64-.97c.4-.24.6-.5.67-1.24.06-.74.33-3.37.37-3.87a1.3 1.3 0 0 0-.1-.57 1.4 1.4 0 0 0-.33-.5 2 2 0 0 0-.52-.35 2 2 0 0 0-.63-.13m-6.61 6.29.3-3.23h1.57l-.3 3.23z"/></symbol><use xlink:href="#sprite-sibur" width="69" height="13" y="594"/><view id="sprite-sibur-view" viewBox="0 594 69 13"/><symbol id="sprite-slider-arrow-left" fill="none" viewBox="0 0 16 16"><path stroke-linecap="square" stroke-linejoin="round" stroke-width="1.143" d="m10 12.67-4.66-4.67 4.66-4.67"/></symbol><use xlink:href="#sprite-slider-arrow-left" width="16" height="16" y="607"/><view id="sprite-slider-arrow-left-view" viewBox="0 607 16 16"/><symbol id="sprite-slider-arrow-right" fill="none" viewBox="0 0 16 16"><path stroke-linecap="square" stroke-linejoin="round" stroke-width="1.143" d="m6 3.33 4.67 4.67-4.67 4.67"/></symbol><use xlink:href="#sprite-slider-arrow-right" width="16" height="16" y="623"/><view id="sprite-slider-arrow-right-view" viewBox="0 623 16 16"/><symbol id="sprite-sreda" fill="none" viewBox="0 0 42 42"><path fill="#0E0E0E" d="M31.62 22.34c-7.94-2.63-20.94-2.55-20.94-7.04 0-2.95 4.61-5.33 10.32-5.33s10.33 2.38 10.33 5.33v4.46c5.6-1.88 9.34-5.24 9.34-9.08 0-5.9-8.81-10.68-19.67-10.68s-19.66 4.78-19.66 10.68c0 3.77 3.6 7.07 9.05 8.99 10.6 3.75 20.94 2.67 20.94 7.03 0 2.95-4.63 5.34-10.33 5.34s-10.33-2.39-10.33-5.34v-4.46c-5.6 1.88-9.34 5.25-9.34 9.08 0 5.9 8.8 10.68 19.66 10.68s19.68-4.78 19.68-10.68c0-3.77-3.58-7.18-9.05-8.98"/></symbol><use xlink:href="#sprite-sreda" width="42" height="42" y="639"/><view id="sprite-sreda-view" viewBox="0 639 42 42"/><symbol id="sprite-star" viewBox="0 0 22 21"><path d="m10.63 0 2.22 4.71 4.73-2.18-1.33 5.03 5.02 1.36-4.26 3 2.98 4.28-5.2-.44-.46 5.19-3.7-3.67-3.69 3.67-.47-5.19-5.19.44 2.97-4.28-4.25-3 5.02-1.36-1.33-5.03 4.73 2.18z"/></symbol><use xlink:href="#sprite-star" width="22" height="21" y="681"/><view id="sprite-star-view" viewBox="0 681 22 21"/><symbol id="sprite-tek-torg" fill="none" viewBox="0 0 84 20"><path fill="#ABABAB" d="M.76 15.15v-14.4h19.2l-6.97 7.9h-6.4zm19.2-9.3v14.1h-19.2l6.98-7.73h6.4zm58.82 8.04v-6.44h5.16v1.53h-3.72l.42-.4v5.31zm-4.52.1q-.82 0-1.43-.36-.6-.36-.95-1.09t-.34-1.87q0-1.13.32-1.87.33-.73.94-1.09t1.46-.36q.9 0 1.63.42.73.41 1.15 1.15.43.75.43 1.75 0 1.02-.43 1.76-.42.75-1.15 1.15a3 3 0 0 1-1.63.41m-3.81 2.23v-8.77h1.78v1.32l-.03 1.91.12 1.9v3.64zm3.48-3.76q.47 0 .83-.22.37-.21.59-.6.23-.41.23-.97t-.23-.96a1.6 1.6 0 0 0-.59-.6 1.6 1.6 0 0 0-.83-.22q-.46 0-.83.21a1.6 1.6 0 0 0-.6.62q-.2.4-.2.95 0 .56.2.96.22.4.6.61.37.22.83.22m-8.29 1.53q-1.03 0-1.83-.43a3.4 3.4 0 0 1-1.26-1.17 3.3 3.3 0 0 1-.46-1.72q0-.97.46-1.71.47-.75 1.26-1.17.8-.44 1.83-.44 1.02 0 1.82.44.8.42 1.26 1.16t.45 1.72a3.3 3.3 0 0 1-.45 1.72 3 3 0 0 1-1.26 1.17q-.8.43-1.82.43m0-1.53q.47 0 .84-.22.37-.21.58-.6a2 2 0 0 0 .22-.97q0-.56-.22-.96a1.6 1.6 0 0 0-.58-.6 1.6 1.6 0 0 0-.84-.22 1.6 1.6 0 0 0-.84.21 1.6 1.6 0 0 0-.6.61q-.21.4-.21.96t.21.96q.23.4.6.61.37.22.84.22m-8.04 1.43v-7.25l.45.45h-3.12v-1.58h7.27v1.58h-3.11l.43-.45v7.25zm-6.4-2.62v-1.5h3.38v1.5zm-2.71 2.62-2.62-4.04 1.57-.94 3.25 4.98zm-5.45 0v-8.39h1.92v8.39zm1.36-3.38v-1.62h2.92v1.62zm3.22-.6-1.78-.21 2.72-4.2h2.05zm-11.53.49v-1.49h4.14v1.49zm1.1-5.04q.95 0 1.74.33.79.3 1.38.9.58.58.9 1.37t.33 1.74-.32 1.74a4 4 0 0 1-.91 1.38q-.6.58-1.38.9a5 5 0 0 1-1.74.32q-1.11 0-2.01-.39a4 4 0 0 1-1.49-1.11l1.24-1.15q.44.5.98.75.54.24 1.19.24.54 0 .99-.19.47-.2.79-.55.34-.36.5-.85.18-.5.18-1.09t-.18-1.09a2 2 0 0 0-.5-.84 2 2 0 0 0-.79-.55 2.4 2.4 0 0 0-1-.2 3 3 0 0 0-1.18.25 3 3 0 0 0-.98.74l-1.24-1.15q.6-.73 1.49-1.11.9-.39 2.01-.39m-8.98 8.53v-7.25l.45.45h-3.12v-1.58h7.27v1.58h-3.11l.43-.45v7.25z"/></symbol><use xlink:href="#sprite-tek-torg" width="84" height="20" y="702"/><view id="sprite-tek-torg-view" viewBox="0 702 84 20"/><symbol id="sprite-telegram-hero" fill="none" viewBox="0 0 12 11"><path fill="currentColor" fill-rule="evenodd" d="M10.51.07a.88.88 0 0 1 1.2.95l-1.32 8.02a1.15 1.15 0 0 1-1.69.84 34 34 0 0 1-2.27-1.34c-.4-.26-1.6-1.1-1.46-1.68.13-.51 2.17-2.41 3.34-3.54.45-.44.25-.7-.3-.3a82 82 0 0 1-4.2 3c-.63.38-.96.45-1.35.38a9 9 0 0 1-1.92-.53c-.74-.3-.7-1.3 0-1.6z" clip-rule="evenodd"/></symbol><use xlink:href="#sprite-telegram-hero" width="12" height="11" y="722"/><view id="sprite-telegram-hero-view" viewBox="0 722 12 11"/><symbol id="sprite-uralhim" fill="none" viewBox="0 0 99 13"><path fill="#ABABAB" d="M51.9 2.2v5.9c-.05.84-.28 1.66-1.32 1.66v2.17c3.54 0 3.66-1.41 3.66-3.83v-3.74h4.31v7.57h2.41v-9.74zm-13.19 3.1c0-3.07-2.62-3.07-4.81-3.1h-5.03v9.73h2.41v-3.53h2.62c2.18-.03 4.81-.04 4.81-3.1m-4.9 1.24h-2.53v-2.48h2.53c1.76 0 2.48 0 2.48 1.24s-.72 1.24-2.48 1.24m-11.26.23-2.65-4.58h-3.03l4.27 7.07-1.46 2.67h2.89l5.45-9.74h-2.88zm19.6-4.58-4.3 9.74h2.62l.8-1.87h4.96l.82 1.87h2.78l-4.48-9.74zm-.1 6 1.64-3.86 1.71 3.86zm53.19-6-2.89 7.75-2.88-7.75h-3.82v9.74h2.4v-7.05l2.75 7.05h3.06l2.79-7.17v7.17h2.4v-9.74zm-18.89 6.74v-6.74h-2.4v9.74h2.65l4.98-6.64v6.63h2.4v-9.73h-2.68zm-6.33-6.74-2.46 3-2.37-3h-3.13l3.93 4.93-3.93 4.8h2.7l2.56-3.06 2.43 3.07h3.13l-3.97-4.98 3.97-4.76zm-59.43 7.53c-1 0-1.8.83-1.8 1.86s.8 1.86 1.8 1.86c.98 0 1.78-.84 1.78-1.86s-.8-1.86-1.79-1.86"/><path fill="#B5B5B5" fill-opacity=".8" d="M7.84 3.14c.37-.95-.06-2.04-.97-2.43s-1.96.06-2.34 1 .06 2.04.97 2.43 1.96-.06 2.34-1m-4.41 4.57c.38-.95-.06-2.04-.97-2.43s-1.96.06-2.34 1 .06 2.04.97 2.43 1.96-.05 2.34-1m7.16-2.57c-1 0-1.8.84-1.8 1.86 0 1.03.8 1.86 1.8 1.86.98 0 1.78-.83 1.78-1.86s-.8-1.86-1.79-1.86m-4.4 4.58c-.98 0-1.78.83-1.78 1.86s.8 1.86 1.78 1.86 1.79-.84 1.79-1.86-.8-1.86-1.79-1.86"/><path fill="#ABABAB" d="M3.57 11.5c.06-.55.12-1.17.77-1.84.55-.57 1.14-.67 1.7-.76.51-.08.99-.15 1.4-.59.42-.43.5-.93.57-1.45.09-.59.18-1.2.73-1.77a2.5 2.5 0 0 1 1.77-.8c.47-.06.91-.1 1.34-.55.4-.41.58-.98.5-1.55a2 2 0 0 0-.5-1.07 1.8 1.8 0 0 0-1.03-.53 1.8 1.8 0 0 0-1.5.52c-.43.45-.48.91-.53 1.4-.06.54-.12 1.17-.77 1.83a2.6 2.6 0 0 1-2.1.79 2.6 2.6 0 0 1-1.58-.79c-.65-.67-.71-1.29-.77-1.83-.05-.49-.1-.95-.53-1.4a1.74 1.74 0 0 0-2.53 0q-.43.45-.5 1.07a1.9 1.9 0 0 0 .5 1.55c.43.45.87.5 1.34.55.53.07 1.12.13 1.77.8a2.77 2.77 0 0 1 0 3.83c-.65.67-1.24.74-1.77.8-.47.05-.9.1-1.34.55a2 2 0 0 0-.5 1.56q.07.62.5 1.07c.43.45.65.48 1.03.53a1.7 1.7 0 0 0 1.5-.53c.43-.45.47-.9.53-1.4z"/></symbol><use xlink:href="#sprite-uralhim" width="99" height="13" y="733"/><view id="sprite-uralhim-view" viewBox="0 733 99 13"/><symbol id="sprite-vk" fill="none" viewBox="0 0 33 34"><path fill="#B5B5B5" fill-rule="evenodd" d="M2.33 2.4c-2.32 2.38-2.32 6.23-2.32 13.92v1.36c0 7.7 0 11.54 2.32 13.93s6.05 2.4 13.52 2.4h1.32c7.46 0 11.2 0 13.52-2.4s2.32-6.23 2.32-13.93v-1.36c0-7.69 0-11.54-2.32-13.93s-6.06-2.39-13.52-2.39h-1.32c-7.47 0-11.2 0-13.52 2.4m3.24 7.95c.18 8.84 4.47 14.15 12 14.15h.42v-5.06c2.76.28 4.85 2.36 5.7 5.06h3.9a11 11 0 0 0-5.65-7.1 10.8 10.8 0 0 0 4.82-7.06h-3.54c-.77 2.81-3.06 5.36-5.23 5.6v-5.6h-3.55v9.8c-2.2-.56-4.97-3.3-5.1-9.8z" clip-rule="evenodd"/></symbol><use xlink:href="#sprite-vk" width="33" height="34" y="746"/><view id="sprite-vk-view" viewBox="0 746 33 34"/></svg>