<svg width="64" height="64" viewBox="0 0 64 64" fill="none" xmlns="http://www.w3.org/2000/svg">
<rect width="64" height="64" fill="url(#paint0_linear_19402_4759)"/>
<rect width="64" height="64" fill="url(#paint1_linear_19402_4759)"/>
<path d="M43.4069 33.8372H41.2689C42.5199 33.6763 43.592 33.2238 44.4911 32.4856C45.6576 31.5242 46.2288 30.3375 46.2288 28.9195C46.2288 27.5015 45.6576 26.3129 44.4911 25.3776C43.3486 24.4162 41.9306 23.9375 40.217 23.9375H35.5166H32.0188H31.7132L26.5984 35.4824L21.3509 23.9375H18.6758H17.1895V39.9375H18.1287H18.6738V26.8479L24.6212 39.9375H25.8401H26.2665L32.0169 26.9605V39.9375H35.5145V33.8372H39.5855L42.9805 39.9375H46.8423L43.4069 33.8372ZM39.0504 32.3508H35.5166V25.4882H39.0504C40.9351 25.4882 42.1841 26.8398 42.1841 28.9195C42.1841 30.9992 40.9351 32.3508 39.0504 32.3508Z" fill="white"/>
<defs>
<linearGradient id="paint0_linear_19402_4759" x1="32" y1="0" x2="32" y2="226.389" gradientUnits="userSpaceOnUse">
<stop stop-color="#016B6A"/>
<stop offset="1" stop-color="#02D1CF"/>
</linearGradient>
<linearGradient id="paint1_linear_19402_4759" x1="47.8983" y1="19.2325" x2="-10.6996" y2="26.2817" gradientUnits="userSpaceOnUse">
<stop stop-color="#754BE9"/>
<stop offset="1" stop-color="#422A83"/>
</linearGradient>
</defs>
</svg>
