<svg width="65" height="65" viewBox="0 0 65 65" fill="none" xmlns="http://www.w3.org/2000/svg">
<rect width="65" height="65" fill="#04306A"/>
<path d="M10.936 38.4282C8.79039 38.4282 7.625 36.8532 7.625 34.8798C7.625 32.8863 8.99675 31.2509 11.2491 31.2509C11.847 31.2509 12.3657 31.3307 12.8166 31.5702V32.8561C12.2187 32.4972 11.7395 32.4267 11.2985 32.4267C9.77061 32.4267 9.20664 33.5738 9.20664 34.7798C9.20664 36.1254 9.9169 37.1919 11.1607 37.1919C11.7099 37.1919 12.1516 37.0373 12.6802 36.7482L13.0611 37.7903C12.2689 38.2987 11.5918 38.4282 10.936 38.4282ZM35.0628 38.4282C33.4755 38.4282 32.6628 37.2423 32.6628 35.8269C32.6628 34.2419 33.7405 33.1948 35.1801 33.1948C35.8169 33.1948 36.1497 33.3243 36.414 33.4839V34.6209C36.0614 34.3613 35.7773 34.2714 35.3858 34.2714C34.573 34.2714 34.0494 34.8798 34.0494 35.7572C34.0494 36.5447 34.455 37.312 35.366 37.312C35.6204 37.312 35.9575 37.1998 36.3193 37.0107L36.6586 37.9499C36.248 38.2289 35.5624 38.4282 35.0628 38.4282ZM39.4777 34.431V38.3289H38.0671V34.431H36.696V33.2948H41.0261L40.7201 34.431H39.4777ZM46.299 33.883C46.299 35.6371 46.2304 36.5547 45.9173 36.9733C45.7605 37.1826 45.5159 37.3228 45.2608 37.3616L45.6523 38.4282C45.9753 38.4181 46.4757 38.2786 46.8184 37.9298C47.2693 37.481 47.4156 36.9129 47.4841 36.3145C47.5428 35.8061 47.5824 35.2085 47.5824 34.6799V34.4303H48.6856V38.3282H50.0962V33.2941H46.299V33.883ZM30.3044 33.1948C29.756 33.1948 29.3348 33.4645 28.9723 33.7536L28.8154 33.2948H27.6302V40.7812L29.0408 40.3426V38.2189C29.2959 38.3584 29.6288 38.4282 29.9914 38.4282C31.4507 38.4282 32.332 37.1624 32.332 35.6673C32.332 34.0722 31.4408 33.1948 30.3044 33.1948ZM29.6486 37.3918C29.3935 37.3918 29.1977 37.3019 29.0408 37.1926V34.81C29.2076 34.5511 29.6486 34.2419 30.0203 34.2419C30.5885 34.2419 30.9214 34.6108 30.9214 35.6479C30.9214 36.5051 30.6083 37.3918 29.6486 37.3918ZM43.053 33.1948C42.3866 33.1948 41.7413 33.2998 41.0643 33.7457L41.4918 34.6144C41.824 34.4239 42.2516 34.2757 42.7519 34.2757C43.241 34.2757 43.6784 34.4958 43.6784 35.0251V35.1107L42.8233 35.1437C41.5752 35.1862 40.7321 35.737 40.7321 36.7964C40.7321 37.7931 41.4388 38.4282 42.376 38.4282C43.012 38.4282 43.4488 38.1851 43.771 37.8881L43.9901 38.3289H45.094V35.0596C45.094 33.7349 44.3654 33.1948 43.053 33.1948ZM43.6784 37.0826C43.5435 37.1883 43.2615 37.3156 42.8869 37.3156C42.4071 37.3156 42.1371 37.0718 42.1371 36.6914C42.1371 36.3095 42.4283 36.0981 43.0325 36.0765L43.6784 36.0556V37.0826ZM52.8362 34.9294H52.1111V33.0754L50.7004 33.4602V38.3289H52.5033C53.8157 38.3289 55.0404 37.9693 55.0404 36.5842C55.0404 35.4084 54.051 34.9294 52.8362 34.9294ZM52.6008 37.3357H52.1111V35.9305H52.5817C53.0807 35.9305 53.6298 36.0103 53.6298 36.608C53.6298 37.1962 53.1591 37.3357 52.6008 37.3357ZM21.293 35.5875V35.5472C21.7531 35.4479 22.1354 35.1387 22.1354 34.4807C22.1354 33.6953 21.4874 33.4091 20.8506 33.3221C20.6555 33.2955 20.228 33.2948 19.9898 33.2948H17.9735V38.3289H19.6668C19.8541 38.3289 20.1333 38.3282 20.351 38.3217C21.2414 38.2786 22.3411 37.9549 22.3411 36.7834C22.3411 36.0657 21.9587 35.7068 21.293 35.5875ZM19.4117 34.2534H19.9898C20.5672 34.2534 20.7835 34.4332 20.7835 34.7424C20.7835 35.1308 20.4308 35.2502 19.8428 35.2502H19.4117V34.2534ZM19.9601 37.3739H19.382V36.1376H19.8916C20.5672 36.1376 20.9298 36.2973 20.9298 36.746C20.9298 37.2243 20.4499 37.3739 19.9601 37.3739ZM17.5092 35.7673C17.5092 34.2117 16.5686 33.1948 15.2166 33.1948C13.7374 33.1948 12.9049 34.4109 12.9049 35.8269C12.9049 37.1524 13.63 38.4282 15.3933 38.4282C15.9905 38.4282 16.6562 38.2894 17.3424 37.8499L17.0286 36.9431C16.4703 37.2128 16.1078 37.3019 15.6279 37.3019C14.9714 37.3019 14.3445 36.8834 14.3148 36.2052H17.5092V35.7673ZM14.2859 35.2192C14.2859 34.7604 14.6095 34.2419 15.177 34.2419C15.7756 34.2419 16.0392 34.7403 16.0689 35.2192H14.2859ZM27.2267 35.7673C27.2267 34.2117 26.286 33.1948 24.934 33.1948C23.4549 33.1948 22.6224 34.4109 22.6224 35.8269C22.6224 37.1524 23.3475 38.4282 25.1107 38.4282C25.7079 38.4282 26.3743 38.2894 27.0599 37.8499L26.7461 36.9431C26.1885 37.2128 25.8252 37.3019 25.3454 37.3019C24.6895 37.3019 24.0627 36.8834 24.033 36.2052H27.2267V35.7673ZM24.0033 35.2192C24.0033 34.7604 24.327 34.2419 24.8945 34.2419C25.4924 34.2419 25.7567 34.7403 25.7864 35.2192H24.0033Z" fill="white"/>
<path d="M57.5514 29.7385C57.4708 29.7953 57.3882 29.8399 57.3041 29.8672C57.0249 29.9571 56.6807 29.8744 56.3719 29.745C56.1514 29.6522 55.9203 29.5321 55.6779 29.3804C55.8044 29.0661 55.9231 28.7072 56.0242 28.3103C56.1811 27.6939 56.256 27.151 56.2715 26.6742C56.2814 26.3793 56.2673 26.1096 56.2355 25.8644C56.1917 25.5271 56.0899 25.1841 55.8736 24.982C55.8051 24.9194 55.7217 24.8669 55.6284 24.8238C56.0701 24.7749 56.4623 24.7713 56.8086 24.7972C57.1726 24.8288 57.5429 24.9201 57.7592 25.1359C57.9754 25.3516 58.0709 25.7277 58.109 26.0967C58.1443 26.4491 58.1472 26.8482 58.1062 27.2998C58.0645 27.745 57.9797 28.2398 57.8405 28.7885H57.8412C57.7535 29.1279 57.6532 29.4523 57.5514 29.7385ZM52.2178 29.4595C52.2093 29.3602 52.2128 29.2646 52.2319 29.1768C52.2948 28.8856 52.5372 28.6245 52.8022 28.416C52.9916 28.2685 53.2086 28.1247 53.4595 27.9866C53.6637 28.2556 53.9097 28.539 54.1973 28.8266C54.6432 29.2732 55.068 29.6105 55.4659 29.8622C55.7118 30.0183 55.9479 30.1405 56.1726 30.2355C56.4814 30.3649 56.8242 30.4476 57.1048 30.3577C57.1924 30.3282 57.2786 30.2815 57.362 30.2211C57.1825 30.6346 56.9896 30.9827 56.7945 31.2746C56.5853 31.5796 56.3231 31.8608 56.0312 31.9427C55.7394 32.0255 55.3719 31.9219 55.039 31.7709C54.7217 31.6263 54.3803 31.4285 54.0164 31.1668C53.6588 30.9079 53.2793 30.5857 52.8821 30.188C52.6369 29.9428 52.41 29.6925 52.2178 29.4595ZM55.1146 24.8978C55.2037 24.9403 55.2828 24.9913 55.3478 25.0517C55.5641 25.2531 55.6652 25.5976 55.7104 25.9349C55.7415 26.1751 55.7549 26.439 55.7471 26.7288C55.4157 26.7741 55.0517 26.8489 54.663 26.959C54.0602 27.1287 53.5605 27.3344 53.1471 27.5595C52.8913 27.6983 52.6687 27.845 52.4764 27.996C52.2114 28.2031 51.9697 28.4642 51.9061 28.7561C51.887 28.8482 51.8835 28.9474 51.8941 29.051C51.6319 28.6864 51.4319 28.3419 51.2814 28.024C51.1259 27.6875 51.0185 27.3157 51.0941 27.0172C51.1697 26.7188 51.4418 26.4462 51.7365 26.229C52.0185 26.0212 52.357 25.8191 52.7619 25.6299C53.1612 25.4444 53.6256 25.2711 54.162 25.1201C54.4941 25.0251 54.8206 24.9511 55.1146 24.8978Z" fill="white"/>
</svg>
