<svg width="64" height="64" viewBox="0 0 64 64" fill="none" xmlns="http://www.w3.org/2000/svg">
<rect width="64" height="64" fill="url(#paint0_linear_19402_4728)"/>
<path d="M18.5618 35.9219H21.6519C22.6515 35.9219 22.826 35.324 22.8821 34.7867C22.9341 34.2891 23.6406 26.9219 23.6406 26.9219H20.5672C19.6902 26.9219 19.3847 27.3797 19.3203 28.1289C19.2767 28.5035 18.5618 35.9219 18.5618 35.9219Z" fill="white"/>
<path d="M39.9192 33.8105H38.8428L39.5057 26.9219H35.2914C35.2914 26.9219 34.5723 34.5426 34.5287 34.921C34.5303 35.1855 34.6465 35.4387 34.8519 35.6258C35.0573 35.8128 35.3354 35.9185 35.6259 35.92H42.9262C43.1987 35.9194 43.4613 35.8267 43.6632 35.66C43.8651 35.4934 43.992 35.2644 44.0192 35.0175C44.0629 34.5748 44.7943 26.9219 44.7943 26.9219H40.58L39.9192 33.8105Z" fill="white"/>
<path d="M9.9468 26.9219C9.19454 26.9219 8.78308 27.2776 8.69996 28.1138C8.66671 28.5319 8.4028 31.2355 8.36955 31.6253C8.3363 32.015 8.49423 32.3574 9.0283 32.3574H13.6L13.438 34.0488H12.349L12.4239 33.2694H8.20954C8.20954 33.2694 8.09109 34.6164 8.03706 35.0819C7.98303 35.5473 8.14304 35.9219 8.80387 35.9219H16.2849C17.4715 35.9219 17.5317 35.1291 17.6003 34.5294C17.6647 33.9732 17.9058 31.3547 17.939 31.0236C17.9484 30.9533 17.9406 30.8819 17.9162 30.8147C17.8917 30.7474 17.8512 30.6859 17.7976 30.6346C17.744 30.5832 17.6786 30.5433 17.606 30.5177C17.5335 30.492 17.4556 30.4813 17.378 30.4863H12.6919L12.854 28.793H13.945L13.8702 29.5706H18.0845C18.0845 29.5706 18.2092 28.057 18.2653 27.6408C18.3214 27.2246 18.072 26.9219 17.5858 26.9219H9.9468Z" fill="white"/>
<path d="M24.7119 26.9219L23.8474 35.92H32.2781C32.9888 35.92 33.3899 35.5189 33.4543 34.8245C33.4813 34.5426 33.5748 33.5891 33.6496 32.8039C33.6743 32.6713 33.6583 32.535 33.6033 32.4102C33.5482 32.2853 33.4564 32.1767 33.3379 32.0964L32.3405 31.4285C32.3405 31.4285 33.2943 30.8609 33.5437 30.7152C33.793 30.5696 33.8803 30.386 33.9115 30.0398C33.9801 29.2546 34.0715 28.3598 34.0923 28.1119C34.1484 27.463 33.7473 26.9219 32.8891 26.9219H24.7119ZM29.8218 28.793L29.6598 30.4958H28.5833L28.7454 28.8025L29.8218 28.793ZM28.4025 32.3574H29.479L29.3169 34.0602H28.2404L28.4025 32.3574Z" fill="white"/>
<path d="M54.1968 26.9219H45.8721L45.018 35.9219H49.2323L49.5004 33.1369H50.5706L50.3025 35.92H54.5168C54.5168 35.92 54.7018 33.941 54.735 33.6496C54.7645 33.5007 54.7488 33.3472 54.6894 33.2059C54.6301 33.0645 54.5295 32.9406 54.3984 32.8475L53.4362 32.2023C53.4362 32.2023 54.2924 31.699 54.5626 31.5326C54.8327 31.3661 54.9782 31.1863 55.0218 30.6755C55.0654 30.1647 55.2483 28.3389 55.2753 27.9965C55.2843 27.861 55.2633 27.7252 55.2136 27.5972C55.1638 27.4693 55.0864 27.3517 54.9858 27.2515C54.8852 27.1512 54.7635 27.0704 54.628 27.0138C54.4925 26.9572 54.3459 26.9259 54.1968 26.9219ZM49.6687 31.2734L49.8765 29.0409H50.9488L50.741 31.2734H49.6687Z" fill="white"/>
<defs>
<linearGradient id="paint0_linear_19402_4728" x1="32" y1="0" x2="32" y2="226.389" gradientUnits="userSpaceOnUse">
<stop stop-color="#016B6A"/>
<stop offset="1" stop-color="#02D1CF"/>
</linearGradient>
</defs>
</svg>
